%TF.GenerationSoftware,KiCad,Pcbnew,5.1.9*%
%TF.CreationDate,2021-01-24T16:08:06-08:00*%
%TF.ProjectId,TeensyDisplayShield,5465656e-7379-4446-9973-706c61795368,rev?*%
%TF.SameCoordinates,Original*%
%TF.FileFunction,Soldermask,Top*%
%TF.FilePolarity,Negative*%
%FSLAX46Y46*%
G04 Gerber Fmt 4.6, Leading zero omitted, Abs format (unit mm)*
G04 Created by KiCad (PCBNEW 5.1.9) date 2021-01-24 16:08:06*
%MOMM*%
%LPD*%
G01*
G04 APERTURE LIST*
%ADD10C,1.152000*%
%ADD11C,1.700000*%
%ADD12O,1.700000X1.700000*%
%ADD13R,1.700000X1.700000*%
%ADD14R,0.900000X1.200000*%
%ADD15C,1.600000*%
%ADD16R,1.600000X1.500000*%
%ADD17C,3.000000*%
%ADD18O,1.200000X1.750000*%
%ADD19R,1.000000X1.500000*%
%ADD20C,2.000000*%
%ADD21R,1.060000X0.650000*%
%ADD22R,6.000000X2.600000*%
%ADD23R,6.000000X3.600000*%
%ADD24R,0.800000X0.900000*%
%ADD25R,1.900000X2.500000*%
%ADD26R,0.900000X0.800000*%
%ADD27C,6.400000*%
G04 APERTURE END LIST*
D10*
%TO.C,REF\u002A\u002A*%
X204880000Y-137210000D03*
%TD*%
%TO.C,REF\u002A\u002A*%
X45280000Y-137260000D03*
%TD*%
D11*
%TO.C,A2*%
X114300000Y-134620000D03*
X114300000Y-137160000D03*
X162560000Y-137160000D03*
X162560000Y-134620000D03*
X114300000Y-102620000D03*
X162560000Y-132080000D03*
X114300000Y-105160000D03*
X162560000Y-129540000D03*
X114300000Y-107700000D03*
X162560000Y-127000000D03*
X114300000Y-110240000D03*
X162560000Y-124460000D03*
X114300000Y-112780000D03*
X162560000Y-119380000D03*
X114300000Y-115320000D03*
X162560000Y-116840000D03*
X114300000Y-119380000D03*
X162560000Y-114300000D03*
X114300000Y-121920000D03*
D12*
X162560000Y-111760000D03*
D11*
X114300000Y-124460000D03*
D12*
X162560000Y-109220000D03*
D11*
X114300000Y-127000000D03*
D12*
X162560000Y-106680000D03*
D11*
X114300000Y-129540000D03*
D12*
X162560000Y-104140000D03*
D11*
X114300000Y-132080000D03*
X162560000Y-101600000D03*
X114300000Y-97540000D03*
X114300000Y-100080000D03*
%TD*%
%TO.C,A1*%
X132080000Y-121920000D03*
X132080000Y-119380000D03*
X132080000Y-116840000D03*
X132080000Y-114300000D03*
X132080000Y-111760000D03*
X132080000Y-109220000D03*
X132080000Y-106680000D03*
X132080000Y-104140000D03*
X132080000Y-101600000D03*
X132080000Y-99060000D03*
X132080000Y-96520000D03*
X132080000Y-93980000D03*
X132080000Y-91440000D03*
X132080000Y-88900000D03*
X132080000Y-86360000D03*
D13*
X132080000Y-83820000D03*
D11*
X152400000Y-93980000D03*
X152400000Y-96520000D03*
X152400000Y-99060000D03*
X152400000Y-101600000D03*
X152400000Y-104140000D03*
X152400000Y-106680000D03*
X152400000Y-109220000D03*
X152400000Y-111760000D03*
X152400000Y-114300000D03*
X152400000Y-116840000D03*
X152400000Y-119380000D03*
X152400000Y-121920000D03*
%TD*%
D14*
%TO.C,D2*%
X138500000Y-85580000D03*
X141800000Y-85580000D03*
%TD*%
%TO.C,D1*%
G36*
G01*
X167752000Y-82562500D02*
X167752000Y-83037500D01*
G75*
G02*
X167514500Y-83275000I-237500J0D01*
G01*
X166939500Y-83275000D01*
G75*
G02*
X166702000Y-83037500I0J237500D01*
G01*
X166702000Y-82562500D01*
G75*
G02*
X166939500Y-82325000I237500J0D01*
G01*
X167514500Y-82325000D01*
G75*
G02*
X167752000Y-82562500I0J-237500D01*
G01*
G37*
G36*
G01*
X169502000Y-82562500D02*
X169502000Y-83037500D01*
G75*
G02*
X169264500Y-83275000I-237500J0D01*
G01*
X168689500Y-83275000D01*
G75*
G02*
X168452000Y-83037500I0J237500D01*
G01*
X168452000Y-82562500D01*
G75*
G02*
X168689500Y-82325000I237500J0D01*
G01*
X169264500Y-82325000D01*
G75*
G02*
X169502000Y-82562500I0J-237500D01*
G01*
G37*
%TD*%
D15*
%TO.C,J2*%
X116190000Y-88900000D03*
X118690000Y-88900000D03*
X120690000Y-88900000D03*
D16*
X123190000Y-88900000D03*
D17*
X113120000Y-86190000D03*
X126260000Y-86190000D03*
%TD*%
D13*
%TO.C,J5*%
X195700000Y-78000000D03*
D12*
X193160000Y-78000000D03*
X190620000Y-78000000D03*
X188080000Y-78000000D03*
%TD*%
%TO.C,J1*%
G36*
G01*
X180950000Y-79575001D02*
X180950000Y-78324999D01*
G75*
G02*
X181199999Y-78075000I249999J0D01*
G01*
X181900001Y-78075000D01*
G75*
G02*
X182150000Y-78324999I0J-249999D01*
G01*
X182150000Y-79575001D01*
G75*
G02*
X181900001Y-79825000I-249999J0D01*
G01*
X181199999Y-79825000D01*
G75*
G02*
X180950000Y-79575001I0J249999D01*
G01*
G37*
D18*
X183550000Y-78950000D03*
%TD*%
D13*
%TO.C,J6*%
X167170000Y-78000000D03*
D12*
X164630000Y-78000000D03*
%TD*%
%TO.C,J3*%
X117602000Y-140440000D03*
X120142000Y-140440000D03*
X122682000Y-140440000D03*
X125222000Y-140440000D03*
X127762000Y-140440000D03*
X130302000Y-140440000D03*
D13*
X132842000Y-140440000D03*
D12*
X135382000Y-140440000D03*
X137922000Y-140440000D03*
D13*
X140462000Y-140440000D03*
D12*
X143002000Y-140440000D03*
X145542000Y-140440000D03*
D13*
X148082000Y-140440000D03*
D12*
X150622000Y-140440000D03*
D11*
X153162000Y-140440000D03*
D13*
X155702000Y-140440000D03*
%TD*%
D19*
%TO.C,JP2*%
X175400000Y-94090000D03*
X172800000Y-94090000D03*
X174100000Y-94090000D03*
%TD*%
D20*
%TO.C,SW2*%
X197850000Y-89640000D03*
X193350000Y-89640000D03*
X197850000Y-96140000D03*
X193350000Y-96140000D03*
%TD*%
D13*
%TO.C,U2*%
X105410000Y-81280000D03*
D11*
X95760800Y-95199200D03*
X95760800Y-92659200D03*
X95760800Y-90119200D03*
X95760800Y-87579200D03*
D13*
X95760800Y-85039200D03*
D11*
X107950000Y-78740000D03*
X107950000Y-81280000D03*
X107950000Y-83820000D03*
X107950000Y-86360000D03*
X107950000Y-88900000D03*
X107950000Y-91440000D03*
X107950000Y-93980000D03*
X107950000Y-96520000D03*
X107950000Y-99060000D03*
X107950000Y-101600000D03*
X107950000Y-104140000D03*
X107950000Y-106680000D03*
X107950000Y-109220000D03*
X107950000Y-111760000D03*
D13*
X92710000Y-78740000D03*
D11*
X92710000Y-81280000D03*
X92710000Y-83820000D03*
X92710000Y-86360000D03*
X92710000Y-88900000D03*
X92710000Y-91440000D03*
X92710000Y-93980000D03*
X92710000Y-96520000D03*
X92710000Y-99060000D03*
X92710000Y-101600000D03*
X92710000Y-104140000D03*
X92710000Y-106680000D03*
X92710000Y-109220000D03*
X107950000Y-114300000D03*
X107950000Y-116840000D03*
X107950000Y-119380000D03*
X107950000Y-121920000D03*
X107950000Y-124460000D03*
X107950000Y-127000000D03*
X107950000Y-129540000D03*
X107950000Y-132080000D03*
X107950000Y-134620000D03*
X107950000Y-137160000D03*
X92710000Y-137160000D03*
X92710000Y-134620000D03*
X92710000Y-132080000D03*
X92710000Y-129540000D03*
X92710000Y-111760000D03*
X92710000Y-114300000D03*
X92710000Y-116840000D03*
X92710000Y-127000000D03*
X92710000Y-124460000D03*
X92710000Y-121920000D03*
X92710000Y-119380000D03*
X95250000Y-124460000D03*
X97790000Y-124460000D03*
X100330000Y-124460000D03*
X102870000Y-124460000D03*
X105410000Y-124460000D03*
%TD*%
D21*
%TO.C,U1*%
X163702000Y-89050000D03*
X163702000Y-87150000D03*
X165902000Y-87150000D03*
X165902000Y-88100000D03*
X165902000Y-89050000D03*
%TD*%
D12*
%TO.C,SW1*%
X187450000Y-139700000D03*
X189990000Y-139700000D03*
D13*
X192530000Y-139700000D03*
%TD*%
%TO.C,R4*%
G36*
G01*
X146312500Y-87242500D02*
X146312500Y-87717500D01*
G75*
G02*
X146075000Y-87955000I-237500J0D01*
G01*
X145575000Y-87955000D01*
G75*
G02*
X145337500Y-87717500I0J237500D01*
G01*
X145337500Y-87242500D01*
G75*
G02*
X145575000Y-87005000I237500J0D01*
G01*
X146075000Y-87005000D01*
G75*
G02*
X146312500Y-87242500I0J-237500D01*
G01*
G37*
G36*
G01*
X148137500Y-87242500D02*
X148137500Y-87717500D01*
G75*
G02*
X147900000Y-87955000I-237500J0D01*
G01*
X147400000Y-87955000D01*
G75*
G02*
X147162500Y-87717500I0J237500D01*
G01*
X147162500Y-87242500D01*
G75*
G02*
X147400000Y-87005000I237500J0D01*
G01*
X147900000Y-87005000D01*
G75*
G02*
X148137500Y-87242500I0J-237500D01*
G01*
G37*
%TD*%
%TO.C,R5*%
G36*
G01*
X157387500Y-85892500D02*
X156912500Y-85892500D01*
G75*
G02*
X156675000Y-85655000I0J237500D01*
G01*
X156675000Y-85155000D01*
G75*
G02*
X156912500Y-84917500I237500J0D01*
G01*
X157387500Y-84917500D01*
G75*
G02*
X157625000Y-85155000I0J-237500D01*
G01*
X157625000Y-85655000D01*
G75*
G02*
X157387500Y-85892500I-237500J0D01*
G01*
G37*
G36*
G01*
X157387500Y-84067500D02*
X156912500Y-84067500D01*
G75*
G02*
X156675000Y-83830000I0J237500D01*
G01*
X156675000Y-83330000D01*
G75*
G02*
X156912500Y-83092500I237500J0D01*
G01*
X157387500Y-83092500D01*
G75*
G02*
X157625000Y-83330000I0J-237500D01*
G01*
X157625000Y-83830000D01*
G75*
G02*
X157387500Y-84067500I-237500J0D01*
G01*
G37*
%TD*%
%TO.C,R6*%
G36*
G01*
X155787500Y-84067500D02*
X155312500Y-84067500D01*
G75*
G02*
X155075000Y-83830000I0J237500D01*
G01*
X155075000Y-83330000D01*
G75*
G02*
X155312500Y-83092500I237500J0D01*
G01*
X155787500Y-83092500D01*
G75*
G02*
X156025000Y-83330000I0J-237500D01*
G01*
X156025000Y-83830000D01*
G75*
G02*
X155787500Y-84067500I-237500J0D01*
G01*
G37*
G36*
G01*
X155787500Y-85892500D02*
X155312500Y-85892500D01*
G75*
G02*
X155075000Y-85655000I0J237500D01*
G01*
X155075000Y-85155000D01*
G75*
G02*
X155312500Y-84917500I237500J0D01*
G01*
X155787500Y-84917500D01*
G75*
G02*
X156025000Y-85155000I0J-237500D01*
G01*
X156025000Y-85655000D01*
G75*
G02*
X155787500Y-85892500I-237500J0D01*
G01*
G37*
%TD*%
%TO.C,R7*%
G36*
G01*
X158987500Y-85892500D02*
X158512500Y-85892500D01*
G75*
G02*
X158275000Y-85655000I0J237500D01*
G01*
X158275000Y-85155000D01*
G75*
G02*
X158512500Y-84917500I237500J0D01*
G01*
X158987500Y-84917500D01*
G75*
G02*
X159225000Y-85155000I0J-237500D01*
G01*
X159225000Y-85655000D01*
G75*
G02*
X158987500Y-85892500I-237500J0D01*
G01*
G37*
G36*
G01*
X158987500Y-84067500D02*
X158512500Y-84067500D01*
G75*
G02*
X158275000Y-83830000I0J237500D01*
G01*
X158275000Y-83330000D01*
G75*
G02*
X158512500Y-83092500I237500J0D01*
G01*
X158987500Y-83092500D01*
G75*
G02*
X159225000Y-83330000I0J-237500D01*
G01*
X159225000Y-83830000D01*
G75*
G02*
X158987500Y-84067500I-237500J0D01*
G01*
G37*
%TD*%
D21*
%TO.C,U3*%
X151550000Y-87480000D03*
X151550000Y-86530000D03*
X151550000Y-85580000D03*
X149350000Y-85580000D03*
X149350000Y-87480000D03*
X149350000Y-86530000D03*
%TD*%
D10*
%TO.C,REF\u002A\u002A*%
X195600000Y-100900000D03*
%TD*%
%TO.C,REF\u002A\u002A*%
X204882000Y-81180000D03*
%TD*%
%TO.C,REF\u002A\u002A*%
X100332000Y-120020000D03*
%TD*%
%TO.C,REF\u002A\u002A*%
X45282000Y-81220000D03*
%TD*%
%TO.C,R3*%
G36*
G01*
X139875000Y-87817500D02*
X139875000Y-87342500D01*
G75*
G02*
X140112500Y-87105000I237500J0D01*
G01*
X140612500Y-87105000D01*
G75*
G02*
X140850000Y-87342500I0J-237500D01*
G01*
X140850000Y-87817500D01*
G75*
G02*
X140612500Y-88055000I-237500J0D01*
G01*
X140112500Y-88055000D01*
G75*
G02*
X139875000Y-87817500I0J237500D01*
G01*
G37*
G36*
G01*
X138050000Y-87817500D02*
X138050000Y-87342500D01*
G75*
G02*
X138287500Y-87105000I237500J0D01*
G01*
X138787500Y-87105000D01*
G75*
G02*
X139025000Y-87342500I0J-237500D01*
G01*
X139025000Y-87817500D01*
G75*
G02*
X138787500Y-88055000I-237500J0D01*
G01*
X138287500Y-88055000D01*
G75*
G02*
X138050000Y-87817500I0J237500D01*
G01*
G37*
%TD*%
%TO.C,R2*%
G36*
G01*
X164077000Y-82562500D02*
X164077000Y-83037500D01*
G75*
G02*
X163839500Y-83275000I-237500J0D01*
G01*
X163339500Y-83275000D01*
G75*
G02*
X163102000Y-83037500I0J237500D01*
G01*
X163102000Y-82562500D01*
G75*
G02*
X163339500Y-82325000I237500J0D01*
G01*
X163839500Y-82325000D01*
G75*
G02*
X164077000Y-82562500I0J-237500D01*
G01*
G37*
G36*
G01*
X165902000Y-82562500D02*
X165902000Y-83037500D01*
G75*
G02*
X165664500Y-83275000I-237500J0D01*
G01*
X165164500Y-83275000D01*
G75*
G02*
X164927000Y-83037500I0J237500D01*
G01*
X164927000Y-82562500D01*
G75*
G02*
X165164500Y-82325000I237500J0D01*
G01*
X165664500Y-82325000D01*
G75*
G02*
X165902000Y-82562500I0J-237500D01*
G01*
G37*
%TD*%
%TO.C,R1*%
G36*
G01*
X165027000Y-91037500D02*
X165027000Y-90562500D01*
G75*
G02*
X165264500Y-90325000I237500J0D01*
G01*
X165764500Y-90325000D01*
G75*
G02*
X166002000Y-90562500I0J-237500D01*
G01*
X166002000Y-91037500D01*
G75*
G02*
X165764500Y-91275000I-237500J0D01*
G01*
X165264500Y-91275000D01*
G75*
G02*
X165027000Y-91037500I0J237500D01*
G01*
G37*
G36*
G01*
X163202000Y-91037500D02*
X163202000Y-90562500D01*
G75*
G02*
X163439500Y-90325000I237500J0D01*
G01*
X163939500Y-90325000D01*
G75*
G02*
X164177000Y-90562500I0J-237500D01*
G01*
X164177000Y-91037500D01*
G75*
G02*
X163939500Y-91275000I-237500J0D01*
G01*
X163439500Y-91275000D01*
G75*
G02*
X163202000Y-91037500I0J237500D01*
G01*
G37*
%TD*%
%TO.C,R10*%
G36*
G01*
X135464500Y-80525000D02*
X135939500Y-80525000D01*
G75*
G02*
X136177000Y-80762500I0J-237500D01*
G01*
X136177000Y-81262500D01*
G75*
G02*
X135939500Y-81500000I-237500J0D01*
G01*
X135464500Y-81500000D01*
G75*
G02*
X135227000Y-81262500I0J237500D01*
G01*
X135227000Y-80762500D01*
G75*
G02*
X135464500Y-80525000I237500J0D01*
G01*
G37*
G36*
G01*
X135464500Y-78700000D02*
X135939500Y-78700000D01*
G75*
G02*
X136177000Y-78937500I0J-237500D01*
G01*
X136177000Y-79437500D01*
G75*
G02*
X135939500Y-79675000I-237500J0D01*
G01*
X135464500Y-79675000D01*
G75*
G02*
X135227000Y-79437500I0J237500D01*
G01*
X135227000Y-78937500D01*
G75*
G02*
X135464500Y-78700000I237500J0D01*
G01*
G37*
%TD*%
%TO.C,R9*%
G36*
G01*
X137739500Y-79675000D02*
X137264500Y-79675000D01*
G75*
G02*
X137027000Y-79437500I0J237500D01*
G01*
X137027000Y-78937500D01*
G75*
G02*
X137264500Y-78700000I237500J0D01*
G01*
X137739500Y-78700000D01*
G75*
G02*
X137977000Y-78937500I0J-237500D01*
G01*
X137977000Y-79437500D01*
G75*
G02*
X137739500Y-79675000I-237500J0D01*
G01*
G37*
G36*
G01*
X137739500Y-81500000D02*
X137264500Y-81500000D01*
G75*
G02*
X137027000Y-81262500I0J237500D01*
G01*
X137027000Y-80762500D01*
G75*
G02*
X137264500Y-80525000I237500J0D01*
G01*
X137739500Y-80525000D01*
G75*
G02*
X137977000Y-80762500I0J-237500D01*
G01*
X137977000Y-81262500D01*
G75*
G02*
X137739500Y-81500000I-237500J0D01*
G01*
G37*
%TD*%
D22*
%TO.C,BT1*%
X62230000Y-119380000D03*
D23*
X86630000Y-119380000D03*
%TD*%
D24*
%TO.C,Q1*%
X140150000Y-81580000D03*
X141100000Y-83580000D03*
X139200000Y-83580000D03*
%TD*%
D12*
%TO.C,J4*%
X81542000Y-140440000D03*
X84082000Y-140440000D03*
X86622000Y-140440000D03*
D13*
X89162000Y-140440000D03*
%TD*%
D20*
%TO.C,SW7*%
X64008000Y-134706000D03*
X64008000Y-130206000D03*
X57508000Y-134706000D03*
X57508000Y-130206000D03*
%TD*%
%TO.C,SW6*%
X192936000Y-134706000D03*
X192936000Y-130206000D03*
X186436000Y-134706000D03*
X186436000Y-130206000D03*
%TD*%
%TO.C,SW11*%
X68834000Y-97640000D03*
X64334000Y-97640000D03*
X68834000Y-104140000D03*
X64334000Y-104140000D03*
%TD*%
%TO.C,SW10*%
X56858000Y-87140000D03*
X52358000Y-87140000D03*
X56858000Y-93640000D03*
X52358000Y-93640000D03*
%TD*%
%TO.C,SW9*%
X56858000Y-108140000D03*
X52358000Y-108140000D03*
X56858000Y-114640000D03*
X52358000Y-114640000D03*
%TD*%
%TO.C,SW8*%
X44882000Y-97640000D03*
X40382000Y-97640000D03*
X44882000Y-104140000D03*
X40382000Y-104140000D03*
%TD*%
%TO.C,SW5*%
X185350000Y-104140000D03*
X189850000Y-104140000D03*
X185350000Y-97640000D03*
X189850000Y-97640000D03*
%TD*%
%TO.C,SW4*%
X205850000Y-97640000D03*
X201350000Y-97640000D03*
X205850000Y-104140000D03*
X201350000Y-104140000D03*
%TD*%
%TO.C,SW3*%
X193350000Y-112140000D03*
X197850000Y-112140000D03*
X193350000Y-105640000D03*
X197850000Y-105640000D03*
%TD*%
D14*
%TO.C,D3*%
X156650000Y-87480000D03*
X153350000Y-87480000D03*
%TD*%
D25*
%TO.C,L1*%
X149350000Y-81680000D03*
X153450000Y-81680000D03*
%TD*%
%TO.C,C4*%
G36*
G01*
X144650003Y-83117500D02*
X143349997Y-83117500D01*
G75*
G02*
X143100000Y-82867503I0J249997D01*
G01*
X143100000Y-82042497D01*
G75*
G02*
X143349997Y-81792500I249997J0D01*
G01*
X144650003Y-81792500D01*
G75*
G02*
X144900000Y-82042497I0J-249997D01*
G01*
X144900000Y-82867503D01*
G75*
G02*
X144650003Y-83117500I-249997J0D01*
G01*
G37*
G36*
G01*
X144650003Y-86242500D02*
X143349997Y-86242500D01*
G75*
G02*
X143100000Y-85992503I0J249997D01*
G01*
X143100000Y-85167497D01*
G75*
G02*
X143349997Y-84917500I249997J0D01*
G01*
X144650003Y-84917500D01*
G75*
G02*
X144900000Y-85167497I0J-249997D01*
G01*
X144900000Y-85992503D01*
G75*
G02*
X144650003Y-86242500I-249997J0D01*
G01*
G37*
%TD*%
%TO.C,C5*%
G36*
G01*
X147400003Y-86242500D02*
X146099997Y-86242500D01*
G75*
G02*
X145850000Y-85992503I0J249997D01*
G01*
X145850000Y-85167497D01*
G75*
G02*
X146099997Y-84917500I249997J0D01*
G01*
X147400003Y-84917500D01*
G75*
G02*
X147650000Y-85167497I0J-249997D01*
G01*
X147650000Y-85992503D01*
G75*
G02*
X147400003Y-86242500I-249997J0D01*
G01*
G37*
G36*
G01*
X147400003Y-83117500D02*
X146099997Y-83117500D01*
G75*
G02*
X145850000Y-82867503I0J249997D01*
G01*
X145850000Y-82042497D01*
G75*
G02*
X146099997Y-81792500I249997J0D01*
G01*
X147400003Y-81792500D01*
G75*
G02*
X147650000Y-82042497I0J-249997D01*
G01*
X147650000Y-82867503D01*
G75*
G02*
X147400003Y-83117500I-249997J0D01*
G01*
G37*
%TD*%
%TO.C,C6*%
G36*
G01*
X157951997Y-89962500D02*
X159252003Y-89962500D01*
G75*
G02*
X159502000Y-90212497I0J-249997D01*
G01*
X159502000Y-91037503D01*
G75*
G02*
X159252003Y-91287500I-249997J0D01*
G01*
X157951997Y-91287500D01*
G75*
G02*
X157702000Y-91037503I0J249997D01*
G01*
X157702000Y-90212497D01*
G75*
G02*
X157951997Y-89962500I249997J0D01*
G01*
G37*
G36*
G01*
X157951997Y-86837500D02*
X159252003Y-86837500D01*
G75*
G02*
X159502000Y-87087497I0J-249997D01*
G01*
X159502000Y-87912503D01*
G75*
G02*
X159252003Y-88162500I-249997J0D01*
G01*
X157951997Y-88162500D01*
G75*
G02*
X157702000Y-87912503I0J249997D01*
G01*
X157702000Y-87087497D01*
G75*
G02*
X157951997Y-86837500I249997J0D01*
G01*
G37*
%TD*%
%TO.C,C7*%
G36*
G01*
X160351997Y-86837500D02*
X161652003Y-86837500D01*
G75*
G02*
X161902000Y-87087497I0J-249997D01*
G01*
X161902000Y-87912503D01*
G75*
G02*
X161652003Y-88162500I-249997J0D01*
G01*
X160351997Y-88162500D01*
G75*
G02*
X160102000Y-87912503I0J249997D01*
G01*
X160102000Y-87087497D01*
G75*
G02*
X160351997Y-86837500I249997J0D01*
G01*
G37*
G36*
G01*
X160351997Y-89962500D02*
X161652003Y-89962500D01*
G75*
G02*
X161902000Y-90212497I0J-249997D01*
G01*
X161902000Y-91037503D01*
G75*
G02*
X161652003Y-91287500I-249997J0D01*
G01*
X160351997Y-91287500D01*
G75*
G02*
X160102000Y-91037503I0J249997D01*
G01*
X160102000Y-90212497D01*
G75*
G02*
X160351997Y-89962500I249997J0D01*
G01*
G37*
%TD*%
%TO.C,C1*%
G36*
G01*
X164402000Y-84349997D02*
X164402000Y-85650003D01*
G75*
G02*
X164152003Y-85900000I-249997J0D01*
G01*
X163326997Y-85900000D01*
G75*
G02*
X163077000Y-85650003I0J249997D01*
G01*
X163077000Y-84349997D01*
G75*
G02*
X163326997Y-84100000I249997J0D01*
G01*
X164152003Y-84100000D01*
G75*
G02*
X164402000Y-84349997I0J-249997D01*
G01*
G37*
G36*
G01*
X167527000Y-84349997D02*
X167527000Y-85650003D01*
G75*
G02*
X167277003Y-85900000I-249997J0D01*
G01*
X166451997Y-85900000D01*
G75*
G02*
X166202000Y-85650003I0J249997D01*
G01*
X166202000Y-84349997D01*
G75*
G02*
X166451997Y-84100000I249997J0D01*
G01*
X167277003Y-84100000D01*
G75*
G02*
X167527000Y-84349997I0J-249997D01*
G01*
G37*
%TD*%
%TO.C,C2*%
G36*
G01*
X167351997Y-86537500D02*
X168652003Y-86537500D01*
G75*
G02*
X168902000Y-86787497I0J-249997D01*
G01*
X168902000Y-87612503D01*
G75*
G02*
X168652003Y-87862500I-249997J0D01*
G01*
X167351997Y-87862500D01*
G75*
G02*
X167102000Y-87612503I0J249997D01*
G01*
X167102000Y-86787497D01*
G75*
G02*
X167351997Y-86537500I249997J0D01*
G01*
G37*
G36*
G01*
X167351997Y-89662500D02*
X168652003Y-89662500D01*
G75*
G02*
X168902000Y-89912497I0J-249997D01*
G01*
X168902000Y-90737503D01*
G75*
G02*
X168652003Y-90987500I-249997J0D01*
G01*
X167351997Y-90987500D01*
G75*
G02*
X167102000Y-90737503I0J249997D01*
G01*
X167102000Y-89912497D01*
G75*
G02*
X167351997Y-89662500I249997J0D01*
G01*
G37*
%TD*%
D26*
%TO.C,Q2*%
X173832000Y-89360000D03*
X173832000Y-91260000D03*
X175832000Y-90310000D03*
%TD*%
%TO.C,R8*%
G36*
G01*
X172094500Y-88910000D02*
X172569500Y-88910000D01*
G75*
G02*
X172807000Y-89147500I0J-237500D01*
G01*
X172807000Y-89647500D01*
G75*
G02*
X172569500Y-89885000I-237500J0D01*
G01*
X172094500Y-89885000D01*
G75*
G02*
X171857000Y-89647500I0J237500D01*
G01*
X171857000Y-89147500D01*
G75*
G02*
X172094500Y-88910000I237500J0D01*
G01*
G37*
G36*
G01*
X172094500Y-90735000D02*
X172569500Y-90735000D01*
G75*
G02*
X172807000Y-90972500I0J-237500D01*
G01*
X172807000Y-91472500D01*
G75*
G02*
X172569500Y-91710000I-237500J0D01*
G01*
X172094500Y-91710000D01*
G75*
G02*
X171857000Y-91472500I0J237500D01*
G01*
X171857000Y-90972500D01*
G75*
G02*
X172094500Y-90735000I237500J0D01*
G01*
G37*
%TD*%
%TO.C,C3*%
G36*
G01*
X143181997Y-90122500D02*
X144482003Y-90122500D01*
G75*
G02*
X144732000Y-90372497I0J-249997D01*
G01*
X144732000Y-91197503D01*
G75*
G02*
X144482003Y-91447500I-249997J0D01*
G01*
X143181997Y-91447500D01*
G75*
G02*
X142932000Y-91197503I0J249997D01*
G01*
X142932000Y-90372497D01*
G75*
G02*
X143181997Y-90122500I249997J0D01*
G01*
G37*
G36*
G01*
X143181997Y-86997500D02*
X144482003Y-86997500D01*
G75*
G02*
X144732000Y-87247497I0J-249997D01*
G01*
X144732000Y-88072503D01*
G75*
G02*
X144482003Y-88322500I-249997J0D01*
G01*
X143181997Y-88322500D01*
G75*
G02*
X142932000Y-88072503I0J249997D01*
G01*
X142932000Y-87247497D01*
G75*
G02*
X143181997Y-86997500I249997J0D01*
G01*
G37*
%TD*%
%TO.C,C8*%
G36*
G01*
X161682003Y-85722500D02*
X160381997Y-85722500D01*
G75*
G02*
X160132000Y-85472503I0J249997D01*
G01*
X160132000Y-84647497D01*
G75*
G02*
X160381997Y-84397500I249997J0D01*
G01*
X161682003Y-84397500D01*
G75*
G02*
X161932000Y-84647497I0J-249997D01*
G01*
X161932000Y-85472503D01*
G75*
G02*
X161682003Y-85722500I-249997J0D01*
G01*
G37*
G36*
G01*
X161682003Y-82597500D02*
X160381997Y-82597500D01*
G75*
G02*
X160132000Y-82347503I0J249997D01*
G01*
X160132000Y-81522497D01*
G75*
G02*
X160381997Y-81272500I249997J0D01*
G01*
X161682003Y-81272500D01*
G75*
G02*
X161932000Y-81522497I0J-249997D01*
G01*
X161932000Y-82347503D01*
G75*
G02*
X161682003Y-82597500I-249997J0D01*
G01*
G37*
%TD*%
%TO.C,C9*%
G36*
G01*
X133049997Y-77075000D02*
X134350003Y-77075000D01*
G75*
G02*
X134600000Y-77324997I0J-249997D01*
G01*
X134600000Y-78150003D01*
G75*
G02*
X134350003Y-78400000I-249997J0D01*
G01*
X133049997Y-78400000D01*
G75*
G02*
X132800000Y-78150003I0J249997D01*
G01*
X132800000Y-77324997D01*
G75*
G02*
X133049997Y-77075000I249997J0D01*
G01*
G37*
G36*
G01*
X133049997Y-80200000D02*
X134350003Y-80200000D01*
G75*
G02*
X134600000Y-80449997I0J-249997D01*
G01*
X134600000Y-81275003D01*
G75*
G02*
X134350003Y-81525000I-249997J0D01*
G01*
X133049997Y-81525000D01*
G75*
G02*
X132800000Y-81275003I0J249997D01*
G01*
X132800000Y-80449997D01*
G75*
G02*
X133049997Y-80200000I249997J0D01*
G01*
G37*
%TD*%
D11*
%TO.C,J7*%
X175260000Y-116840000D03*
D12*
X172720000Y-116840000D03*
X175260000Y-114300000D03*
X172720000Y-114300000D03*
X175260000Y-111760000D03*
X172720000Y-111760000D03*
X175260000Y-109220000D03*
X172720000Y-109220000D03*
X175260000Y-106680000D03*
X172720000Y-106680000D03*
%TD*%
%TO.C,J8*%
X79100000Y-106680000D03*
X76560000Y-106680000D03*
X79100000Y-104140000D03*
X76560000Y-104140000D03*
X79100000Y-101600000D03*
X76560000Y-101600000D03*
X79100000Y-99060000D03*
X76560000Y-99060000D03*
X79100000Y-96520000D03*
D11*
X76560000Y-96520000D03*
%TD*%
D27*
%TO.C,H1*%
X76560000Y-81200000D03*
%TD*%
%TO.C,H2*%
X173884000Y-81200000D03*
%TD*%
%TO.C,H3*%
X76560000Y-137240000D03*
%TD*%
%TO.C,H4*%
X173884000Y-137240000D03*
%TD*%
%TO.C,H5*%
X209884000Y-81200000D03*
%TD*%
%TO.C,H6*%
X209884000Y-137240000D03*
%TD*%
%TO.C,H7*%
X40560000Y-81200000D03*
%TD*%
%TO.C,H8*%
X40560000Y-137240000D03*
%TD*%
M02*
