%TF.GenerationSoftware,KiCad,Pcbnew,5.1.9*%
%TF.CreationDate,2021-01-24T16:08:06-08:00*%
%TF.ProjectId,TeensyDisplayShield,5465656e-7379-4446-9973-706c61795368,rev?*%
%TF.SameCoordinates,Original*%
%TF.FileFunction,Legend,Bot*%
%TF.FilePolarity,Positive*%
%FSLAX46Y46*%
G04 Gerber Fmt 4.6, Leading zero omitted, Abs format (unit mm)*
G04 Created by KiCad (PCBNEW 5.1.9) date 2021-01-24 16:08:06*
%MOMM*%
%LPD*%
G01*
G04 APERTURE LIST*
%ADD10C,0.150000*%
%ADD11C,0.120000*%
G04 APERTURE END LIST*
D10*
X79598381Y-94136595D02*
X79646000Y-94231833D01*
X79646000Y-94374690D01*
X79598381Y-94517547D01*
X79503142Y-94612785D01*
X79407904Y-94660404D01*
X79217428Y-94708023D01*
X79074571Y-94708023D01*
X78884095Y-94660404D01*
X78788857Y-94612785D01*
X78693619Y-94517547D01*
X78646000Y-94374690D01*
X78646000Y-94279452D01*
X78693619Y-94136595D01*
X78741238Y-94088976D01*
X79074571Y-94088976D01*
X79074571Y-94279452D01*
X78646000Y-93660404D02*
X79646000Y-93660404D01*
X78646000Y-93088976D01*
X79646000Y-93088976D01*
X78646000Y-92612785D02*
X79646000Y-92612785D01*
X79646000Y-92374690D01*
X79598381Y-92231833D01*
X79503142Y-92136595D01*
X79407904Y-92088976D01*
X79217428Y-92041357D01*
X79074571Y-92041357D01*
X78884095Y-92088976D01*
X78788857Y-92136595D01*
X78693619Y-92231833D01*
X78646000Y-92374690D01*
X78646000Y-92612785D01*
X74573119Y-107084761D02*
X74430262Y-107132380D01*
X74192167Y-107132380D01*
X74096928Y-107084761D01*
X74049309Y-107037142D01*
X74001690Y-106941904D01*
X74001690Y-106846666D01*
X74049309Y-106751428D01*
X74096928Y-106703809D01*
X74192167Y-106656190D01*
X74382643Y-106608571D01*
X74477881Y-106560952D01*
X74525500Y-106513333D01*
X74573119Y-106418095D01*
X74573119Y-106322857D01*
X74525500Y-106227619D01*
X74477881Y-106180000D01*
X74382643Y-106132380D01*
X74144548Y-106132380D01*
X74001690Y-106180000D01*
X73192167Y-107084761D02*
X73287405Y-107132380D01*
X73477881Y-107132380D01*
X73573119Y-107084761D01*
X73620738Y-106989523D01*
X73620738Y-106608571D01*
X73573119Y-106513333D01*
X73477881Y-106465714D01*
X73287405Y-106465714D01*
X73192167Y-106513333D01*
X73144548Y-106608571D01*
X73144548Y-106703809D01*
X73620738Y-106799047D01*
X72573119Y-107132380D02*
X72668357Y-107084761D01*
X72715976Y-106989523D01*
X72715976Y-106132380D01*
X71811214Y-107084761D02*
X71906452Y-107132380D01*
X72096928Y-107132380D01*
X72192167Y-107084761D01*
X72239786Y-106989523D01*
X72239786Y-106608571D01*
X72192167Y-106513333D01*
X72096928Y-106465714D01*
X71906452Y-106465714D01*
X71811214Y-106513333D01*
X71763595Y-106608571D01*
X71763595Y-106703809D01*
X72239786Y-106799047D01*
X70906452Y-107084761D02*
X71001690Y-107132380D01*
X71192167Y-107132380D01*
X71287405Y-107084761D01*
X71335024Y-107037142D01*
X71382643Y-106941904D01*
X71382643Y-106656190D01*
X71335024Y-106560952D01*
X71287405Y-106513333D01*
X71192167Y-106465714D01*
X71001690Y-106465714D01*
X70906452Y-106513333D01*
X70620738Y-106465714D02*
X70239786Y-106465714D01*
X70477881Y-106132380D02*
X70477881Y-106989523D01*
X70430262Y-107084761D01*
X70335024Y-107132380D01*
X70239786Y-107132380D01*
X74431214Y-104116190D02*
X74431214Y-104592380D01*
X74764547Y-103592380D02*
X74431214Y-104116190D01*
X74097881Y-103592380D01*
X74653404Y-101052380D02*
X73986738Y-102052380D01*
X73986738Y-101052380D02*
X74653404Y-102052380D01*
X74320071Y-98988571D02*
X74177214Y-99036190D01*
X74129595Y-99083809D01*
X74081976Y-99179047D01*
X74081976Y-99321904D01*
X74129595Y-99417142D01*
X74177214Y-99464761D01*
X74272452Y-99512380D01*
X74653404Y-99512380D01*
X74653404Y-98512380D01*
X74320071Y-98512380D01*
X74224833Y-98560000D01*
X74177214Y-98607619D01*
X74129595Y-98702857D01*
X74129595Y-98798095D01*
X74177214Y-98893333D01*
X74224833Y-98940952D01*
X74320071Y-98988571D01*
X74653404Y-98988571D01*
X74669309Y-96686666D02*
X74193119Y-96686666D01*
X74764547Y-96972380D02*
X74431214Y-95972380D01*
X74097881Y-96972380D01*
X173220000Y-104296595D02*
X173267619Y-104391833D01*
X173267619Y-104534690D01*
X173220000Y-104677547D01*
X173124761Y-104772785D01*
X173029523Y-104820404D01*
X172839047Y-104868023D01*
X172696190Y-104868023D01*
X172505714Y-104820404D01*
X172410476Y-104772785D01*
X172315238Y-104677547D01*
X172267619Y-104534690D01*
X172267619Y-104439452D01*
X172315238Y-104296595D01*
X172362857Y-104248976D01*
X172696190Y-104248976D01*
X172696190Y-104439452D01*
X172267619Y-103820404D02*
X173267619Y-103820404D01*
X172267619Y-103248976D01*
X173267619Y-103248976D01*
X172267619Y-102772785D02*
X173267619Y-102772785D01*
X173267619Y-102534690D01*
X173220000Y-102391833D01*
X173124761Y-102296595D01*
X173029523Y-102248976D01*
X172839047Y-102201357D01*
X172696190Y-102201357D01*
X172505714Y-102248976D01*
X172410476Y-102296595D01*
X172315238Y-102391833D01*
X172267619Y-102534690D01*
X172267619Y-102772785D01*
X178691023Y-116292380D02*
X178691023Y-117101904D01*
X178643404Y-117197142D01*
X178595785Y-117244761D01*
X178500547Y-117292380D01*
X178310071Y-117292380D01*
X178214833Y-117244761D01*
X178167214Y-117197142D01*
X178119595Y-117101904D01*
X178119595Y-116292380D01*
X177643404Y-117292380D02*
X177643404Y-116292380D01*
X177262452Y-116292380D01*
X177167214Y-116340000D01*
X177119595Y-116387619D01*
X177071976Y-116482857D01*
X177071976Y-116625714D01*
X177119595Y-116720952D01*
X177167214Y-116768571D01*
X177262452Y-116816190D01*
X177643404Y-116816190D01*
X180881500Y-114752380D02*
X180881500Y-113752380D01*
X180643404Y-113752380D01*
X180500547Y-113800000D01*
X180405309Y-113895238D01*
X180357690Y-113990476D01*
X180310071Y-114180952D01*
X180310071Y-114323809D01*
X180357690Y-114514285D01*
X180405309Y-114609523D01*
X180500547Y-114704761D01*
X180643404Y-114752380D01*
X180881500Y-114752380D01*
X179691023Y-113752380D02*
X179500547Y-113752380D01*
X179405309Y-113800000D01*
X179310071Y-113895238D01*
X179262452Y-114085714D01*
X179262452Y-114419047D01*
X179310071Y-114609523D01*
X179405309Y-114704761D01*
X179500547Y-114752380D01*
X179691023Y-114752380D01*
X179786261Y-114704761D01*
X179881500Y-114609523D01*
X179929119Y-114419047D01*
X179929119Y-114085714D01*
X179881500Y-113895238D01*
X179786261Y-113800000D01*
X179691023Y-113752380D01*
X178929119Y-113752380D02*
X178691023Y-114752380D01*
X178500547Y-114038095D01*
X178310071Y-114752380D01*
X178071976Y-113752380D01*
X177691023Y-114752380D02*
X177691023Y-113752380D01*
X177119595Y-114752380D01*
X177119595Y-113752380D01*
X179500547Y-112212380D02*
X179976738Y-112212380D01*
X179976738Y-111212380D01*
X179167214Y-111688571D02*
X178833880Y-111688571D01*
X178691023Y-112212380D02*
X179167214Y-112212380D01*
X179167214Y-111212380D01*
X178691023Y-111212380D01*
X177929119Y-111688571D02*
X178262452Y-111688571D01*
X178262452Y-112212380D02*
X178262452Y-111212380D01*
X177786261Y-111212380D01*
X177548166Y-111212380D02*
X176976738Y-111212380D01*
X177262452Y-112212380D02*
X177262452Y-111212380D01*
X180357690Y-109672380D02*
X180691023Y-109196190D01*
X180929119Y-109672380D02*
X180929119Y-108672380D01*
X180548166Y-108672380D01*
X180452928Y-108720000D01*
X180405309Y-108767619D01*
X180357690Y-108862857D01*
X180357690Y-109005714D01*
X180405309Y-109100952D01*
X180452928Y-109148571D01*
X180548166Y-109196190D01*
X180929119Y-109196190D01*
X179929119Y-109672380D02*
X179929119Y-108672380D01*
X178929119Y-108720000D02*
X179024357Y-108672380D01*
X179167214Y-108672380D01*
X179310071Y-108720000D01*
X179405309Y-108815238D01*
X179452928Y-108910476D01*
X179500547Y-109100952D01*
X179500547Y-109243809D01*
X179452928Y-109434285D01*
X179405309Y-109529523D01*
X179310071Y-109624761D01*
X179167214Y-109672380D01*
X179071976Y-109672380D01*
X178929119Y-109624761D01*
X178881500Y-109577142D01*
X178881500Y-109243809D01*
X179071976Y-109243809D01*
X178452928Y-109672380D02*
X178452928Y-108672380D01*
X178452928Y-109148571D02*
X177881500Y-109148571D01*
X177881500Y-109672380D02*
X177881500Y-108672380D01*
X177548166Y-108672380D02*
X176976738Y-108672380D01*
X177262452Y-109672380D02*
X177262452Y-108672380D01*
X180310071Y-107084761D02*
X180167214Y-107132380D01*
X179929119Y-107132380D01*
X179833880Y-107084761D01*
X179786261Y-107037142D01*
X179738642Y-106941904D01*
X179738642Y-106846666D01*
X179786261Y-106751428D01*
X179833880Y-106703809D01*
X179929119Y-106656190D01*
X180119595Y-106608571D01*
X180214833Y-106560952D01*
X180262452Y-106513333D01*
X180310071Y-106418095D01*
X180310071Y-106322857D01*
X180262452Y-106227619D01*
X180214833Y-106180000D01*
X180119595Y-106132380D01*
X179881500Y-106132380D01*
X179738642Y-106180000D01*
X179452928Y-106465714D02*
X179071976Y-106465714D01*
X179310071Y-106132380D02*
X179310071Y-106989523D01*
X179262452Y-107084761D01*
X179167214Y-107132380D01*
X179071976Y-107132380D01*
X178310071Y-107132380D02*
X178310071Y-106608571D01*
X178357690Y-106513333D01*
X178452928Y-106465714D01*
X178643404Y-106465714D01*
X178738642Y-106513333D01*
X178310071Y-107084761D02*
X178405309Y-107132380D01*
X178643404Y-107132380D01*
X178738642Y-107084761D01*
X178786261Y-106989523D01*
X178786261Y-106894285D01*
X178738642Y-106799047D01*
X178643404Y-106751428D01*
X178405309Y-106751428D01*
X178310071Y-106703809D01*
X177833880Y-107132380D02*
X177833880Y-106465714D01*
X177833880Y-106656190D02*
X177786261Y-106560952D01*
X177738642Y-106513333D01*
X177643404Y-106465714D01*
X177548166Y-106465714D01*
X177357690Y-106465714D02*
X176976738Y-106465714D01*
X177214833Y-106132380D02*
X177214833Y-106989523D01*
X177167214Y-107084761D01*
X177071976Y-107132380D01*
X176976738Y-107132380D01*
X166670000Y-80764404D02*
X166622380Y-80669166D01*
X166622380Y-80526309D01*
X166670000Y-80383452D01*
X166765238Y-80288214D01*
X166860476Y-80240595D01*
X167050952Y-80192976D01*
X167193809Y-80192976D01*
X167384285Y-80240595D01*
X167479523Y-80288214D01*
X167574761Y-80383452D01*
X167622380Y-80526309D01*
X167622380Y-80621547D01*
X167574761Y-80764404D01*
X167527142Y-80812023D01*
X167193809Y-80812023D01*
X167193809Y-80621547D01*
X167622380Y-81240595D02*
X166622380Y-81240595D01*
X167622380Y-81812023D01*
X166622380Y-81812023D01*
X167622380Y-82288214D02*
X166622380Y-82288214D01*
X166622380Y-82526309D01*
X166670000Y-82669166D01*
X166765238Y-82764404D01*
X166860476Y-82812023D01*
X167050952Y-82859642D01*
X167193809Y-82859642D01*
X167384285Y-82812023D01*
X167479523Y-82764404D01*
X167574761Y-82669166D01*
X167622380Y-82526309D01*
X167622380Y-82288214D01*
X89660000Y-137675595D02*
X89707619Y-137770833D01*
X89707619Y-137913690D01*
X89660000Y-138056547D01*
X89564761Y-138151785D01*
X89469523Y-138199404D01*
X89279047Y-138247023D01*
X89136190Y-138247023D01*
X88945714Y-138199404D01*
X88850476Y-138151785D01*
X88755238Y-138056547D01*
X88707619Y-137913690D01*
X88707619Y-137818452D01*
X88755238Y-137675595D01*
X88802857Y-137627976D01*
X89136190Y-137627976D01*
X89136190Y-137818452D01*
X88707619Y-137199404D02*
X89707619Y-137199404D01*
X88707619Y-136627976D01*
X89707619Y-136627976D01*
X88707619Y-136151785D02*
X89707619Y-136151785D01*
X89707619Y-135913690D01*
X89660000Y-135770833D01*
X89564761Y-135675595D01*
X89469523Y-135627976D01*
X89279047Y-135580357D01*
X89136190Y-135580357D01*
X88945714Y-135627976D01*
X88850476Y-135675595D01*
X88755238Y-135770833D01*
X88707619Y-135913690D01*
X88707619Y-136151785D01*
X87167619Y-138294642D02*
X87167619Y-137675595D01*
X86786666Y-138008928D01*
X86786666Y-137866071D01*
X86739047Y-137770833D01*
X86691428Y-137723214D01*
X86596190Y-137675595D01*
X86358095Y-137675595D01*
X86262857Y-137723214D01*
X86215238Y-137770833D01*
X86167619Y-137866071D01*
X86167619Y-138151785D01*
X86215238Y-138247023D01*
X86262857Y-138294642D01*
X86262857Y-137247023D02*
X86215238Y-137199404D01*
X86167619Y-137247023D01*
X86215238Y-137294642D01*
X86262857Y-137247023D01*
X86167619Y-137247023D01*
X87167619Y-136866071D02*
X87167619Y-136247023D01*
X86786666Y-136580357D01*
X86786666Y-136437500D01*
X86739047Y-136342261D01*
X86691428Y-136294642D01*
X86596190Y-136247023D01*
X86358095Y-136247023D01*
X86262857Y-136294642D01*
X86215238Y-136342261D01*
X86167619Y-136437500D01*
X86167619Y-136723214D01*
X86215238Y-136818452D01*
X86262857Y-136866071D01*
X86834285Y-135913690D02*
X86167619Y-135675595D01*
X86834285Y-135437500D01*
X83913333Y-138247023D02*
X83913333Y-137770833D01*
X83627619Y-138342261D02*
X84627619Y-138008928D01*
X83627619Y-137675595D01*
X84532380Y-137389880D02*
X84580000Y-137342261D01*
X84627619Y-137247023D01*
X84627619Y-137008928D01*
X84580000Y-136913690D01*
X84532380Y-136866071D01*
X84437142Y-136818452D01*
X84341904Y-136818452D01*
X84199047Y-136866071D01*
X83627619Y-137437500D01*
X83627619Y-136818452D01*
X84675238Y-135675595D02*
X83389523Y-136532738D01*
X83675238Y-135389880D02*
X83627619Y-135247023D01*
X83627619Y-135008928D01*
X83675238Y-134913690D01*
X83722857Y-134866071D01*
X83818095Y-134818452D01*
X83913333Y-134818452D01*
X84008571Y-134866071D01*
X84056190Y-134913690D01*
X84103809Y-135008928D01*
X84151428Y-135199404D01*
X84199047Y-135294642D01*
X84246666Y-135342261D01*
X84341904Y-135389880D01*
X84437142Y-135389880D01*
X84532380Y-135342261D01*
X84580000Y-135294642D01*
X84627619Y-135199404D01*
X84627619Y-134961309D01*
X84580000Y-134818452D01*
X83722857Y-133818452D02*
X83675238Y-133866071D01*
X83627619Y-134008928D01*
X83627619Y-134104166D01*
X83675238Y-134247023D01*
X83770476Y-134342261D01*
X83865714Y-134389880D01*
X84056190Y-134437500D01*
X84199047Y-134437500D01*
X84389523Y-134389880D01*
X84484761Y-134342261D01*
X84580000Y-134247023D01*
X84627619Y-134104166D01*
X84627619Y-134008928D01*
X84580000Y-133866071D01*
X84532380Y-133818452D01*
X83627619Y-132913690D02*
X83627619Y-133389880D01*
X84627619Y-133389880D01*
X83627619Y-132056547D02*
X83627619Y-132627976D01*
X83627619Y-132342261D02*
X84627619Y-132342261D01*
X84484761Y-132437500D01*
X84389523Y-132532738D01*
X84341904Y-132627976D01*
X84675238Y-130913690D02*
X83389523Y-131770833D01*
X83627619Y-130008928D02*
X84103809Y-130342261D01*
X83627619Y-130580357D02*
X84627619Y-130580357D01*
X84627619Y-130199404D01*
X84580000Y-130104166D01*
X84532380Y-130056547D01*
X84437142Y-130008928D01*
X84294285Y-130008928D01*
X84199047Y-130056547D01*
X84151428Y-130104166D01*
X84103809Y-130199404D01*
X84103809Y-130580357D01*
X84627619Y-129675595D02*
X83627619Y-129008928D01*
X84627619Y-129008928D02*
X83627619Y-129675595D01*
X84294285Y-128199404D02*
X83627619Y-128199404D01*
X84675238Y-128437500D02*
X83960952Y-128675595D01*
X83960952Y-128056547D01*
X81373333Y-138247023D02*
X81373333Y-137770833D01*
X81087619Y-138342261D02*
X82087619Y-138008928D01*
X81087619Y-137675595D01*
X82087619Y-137437500D02*
X82087619Y-136818452D01*
X81706666Y-137151785D01*
X81706666Y-137008928D01*
X81659047Y-136913690D01*
X81611428Y-136866071D01*
X81516190Y-136818452D01*
X81278095Y-136818452D01*
X81182857Y-136866071D01*
X81135238Y-136913690D01*
X81087619Y-137008928D01*
X81087619Y-137294642D01*
X81135238Y-137389880D01*
X81182857Y-137437500D01*
X82135238Y-135675595D02*
X80849523Y-136532738D01*
X81135238Y-135389880D02*
X81087619Y-135247023D01*
X81087619Y-135008928D01*
X81135238Y-134913690D01*
X81182857Y-134866071D01*
X81278095Y-134818452D01*
X81373333Y-134818452D01*
X81468571Y-134866071D01*
X81516190Y-134913690D01*
X81563809Y-135008928D01*
X81611428Y-135199404D01*
X81659047Y-135294642D01*
X81706666Y-135342261D01*
X81801904Y-135389880D01*
X81897142Y-135389880D01*
X81992380Y-135342261D01*
X82040000Y-135294642D01*
X82087619Y-135199404D01*
X82087619Y-134961309D01*
X82040000Y-134818452D01*
X81087619Y-134389880D02*
X82087619Y-134389880D01*
X82087619Y-134151785D01*
X82040000Y-134008928D01*
X81944761Y-133913690D01*
X81849523Y-133866071D01*
X81659047Y-133818452D01*
X81516190Y-133818452D01*
X81325714Y-133866071D01*
X81230476Y-133913690D01*
X81135238Y-134008928D01*
X81087619Y-134151785D01*
X81087619Y-134389880D01*
X81373333Y-133437500D02*
X81373333Y-132961309D01*
X81087619Y-133532738D02*
X82087619Y-133199404D01*
X81087619Y-132866071D01*
X81087619Y-132008928D02*
X81087619Y-132580357D01*
X81087619Y-132294642D02*
X82087619Y-132294642D01*
X81944761Y-132389880D01*
X81849523Y-132485119D01*
X81801904Y-132580357D01*
X82135238Y-130866071D02*
X80849523Y-131723214D01*
X82087619Y-130675595D02*
X82087619Y-130104166D01*
X81087619Y-130389880D02*
X82087619Y-130389880D01*
X82087619Y-129866071D02*
X81087619Y-129199404D01*
X82087619Y-129199404D02*
X81087619Y-129866071D01*
X81754285Y-128389880D02*
X81087619Y-128389880D01*
X82135238Y-128627976D02*
X81420952Y-128866071D01*
X81420952Y-128247023D01*
X190072380Y-80716785D02*
X190072380Y-80240595D01*
X190548571Y-80192976D01*
X190500952Y-80240595D01*
X190453333Y-80335833D01*
X190453333Y-80573928D01*
X190500952Y-80669166D01*
X190548571Y-80716785D01*
X190643809Y-80764404D01*
X190881904Y-80764404D01*
X190977142Y-80716785D01*
X191024761Y-80669166D01*
X191072380Y-80573928D01*
X191072380Y-80335833D01*
X191024761Y-80240595D01*
X190977142Y-80192976D01*
X190405714Y-81097738D02*
X191072380Y-81335833D01*
X190405714Y-81573928D01*
X187532380Y-80097738D02*
X188532380Y-80431071D01*
X187532380Y-80764404D01*
X188008571Y-81431071D02*
X188056190Y-81573928D01*
X188103809Y-81621547D01*
X188199047Y-81669166D01*
X188341904Y-81669166D01*
X188437142Y-81621547D01*
X188484761Y-81573928D01*
X188532380Y-81478690D01*
X188532380Y-81097738D01*
X187532380Y-81097738D01*
X187532380Y-81431071D01*
X187580000Y-81526309D01*
X187627619Y-81573928D01*
X187722857Y-81621547D01*
X187818095Y-81621547D01*
X187913333Y-81573928D01*
X187960952Y-81526309D01*
X188008571Y-81431071D01*
X188008571Y-81097738D01*
X188246666Y-82050119D02*
X188246666Y-82526309D01*
X188532380Y-81954880D02*
X187532380Y-82288214D01*
X188532380Y-82621547D01*
X187532380Y-82812023D02*
X187532380Y-83383452D01*
X188532380Y-83097738D02*
X187532380Y-83097738D01*
X192612380Y-80716785D02*
X192612380Y-80240595D01*
X193088571Y-80192976D01*
X193040952Y-80240595D01*
X192993333Y-80335833D01*
X192993333Y-80573928D01*
X193040952Y-80669166D01*
X193088571Y-80716785D01*
X193183809Y-80764404D01*
X193421904Y-80764404D01*
X193517142Y-80716785D01*
X193564761Y-80669166D01*
X193612380Y-80573928D01*
X193612380Y-80335833D01*
X193564761Y-80240595D01*
X193517142Y-80192976D01*
X192945714Y-81097738D02*
X193612380Y-81335833D01*
X192945714Y-81573928D01*
X195200000Y-80764404D02*
X195152380Y-80669166D01*
X195152380Y-80526309D01*
X195200000Y-80383452D01*
X195295238Y-80288214D01*
X195390476Y-80240595D01*
X195580952Y-80192976D01*
X195723809Y-80192976D01*
X195914285Y-80240595D01*
X196009523Y-80288214D01*
X196104761Y-80383452D01*
X196152380Y-80526309D01*
X196152380Y-80621547D01*
X196104761Y-80764404D01*
X196057142Y-80812023D01*
X195723809Y-80812023D01*
X195723809Y-80621547D01*
X196152380Y-81240595D02*
X195152380Y-81240595D01*
X196152380Y-81812023D01*
X195152380Y-81812023D01*
X196152380Y-82288214D02*
X195152380Y-82288214D01*
X195152380Y-82526309D01*
X195200000Y-82669166D01*
X195295238Y-82764404D01*
X195390476Y-82812023D01*
X195580952Y-82859642D01*
X195723809Y-82859642D01*
X195914285Y-82812023D01*
X196009523Y-82764404D01*
X196104761Y-82669166D01*
X196152380Y-82526309D01*
X196152380Y-82288214D01*
X177038000Y-141478000D02*
X177038000Y-76962000D01*
X164082380Y-80097738D02*
X165082380Y-80431071D01*
X164082380Y-80764404D01*
X164082380Y-81097738D02*
X164891904Y-81097738D01*
X164987142Y-81145357D01*
X165034761Y-81192976D01*
X165082380Y-81288214D01*
X165082380Y-81478690D01*
X165034761Y-81573928D01*
X164987142Y-81621547D01*
X164891904Y-81669166D01*
X164082380Y-81669166D01*
X165034761Y-82097738D02*
X165082380Y-82240595D01*
X165082380Y-82478690D01*
X165034761Y-82573928D01*
X164987142Y-82621547D01*
X164891904Y-82669166D01*
X164796666Y-82669166D01*
X164701428Y-82621547D01*
X164653809Y-82573928D01*
X164606190Y-82478690D01*
X164558571Y-82288214D01*
X164510952Y-82192976D01*
X164463333Y-82145357D01*
X164368095Y-82097738D01*
X164272857Y-82097738D01*
X164177619Y-82145357D01*
X164130000Y-82192976D01*
X164082380Y-82288214D01*
X164082380Y-82526309D01*
X164130000Y-82669166D01*
X164558571Y-83431071D02*
X164606190Y-83573928D01*
X164653809Y-83621547D01*
X164749047Y-83669166D01*
X164891904Y-83669166D01*
X164987142Y-83621547D01*
X165034761Y-83573928D01*
X165082380Y-83478690D01*
X165082380Y-83097738D01*
X164082380Y-83097738D01*
X164082380Y-83431071D01*
X164130000Y-83526309D01*
X164177619Y-83573928D01*
X164272857Y-83621547D01*
X164368095Y-83621547D01*
X164463333Y-83573928D01*
X164510952Y-83526309D01*
X164558571Y-83431071D01*
X164558571Y-83097738D01*
X191961190Y-137507380D02*
X191961190Y-136507380D01*
X191580238Y-136507380D01*
X191485000Y-136555000D01*
X191437380Y-136602619D01*
X191389761Y-136697857D01*
X191389761Y-136840714D01*
X191437380Y-136935952D01*
X191485000Y-136983571D01*
X191580238Y-137031190D01*
X191961190Y-137031190D01*
X190818333Y-137507380D02*
X190913571Y-137459761D01*
X190961190Y-137412142D01*
X191008809Y-137316904D01*
X191008809Y-137031190D01*
X190961190Y-136935952D01*
X190913571Y-136888333D01*
X190818333Y-136840714D01*
X190675476Y-136840714D01*
X190580238Y-136888333D01*
X190532619Y-136935952D01*
X190485000Y-137031190D01*
X190485000Y-137316904D01*
X190532619Y-137412142D01*
X190580238Y-137459761D01*
X190675476Y-137507380D01*
X190818333Y-137507380D01*
X190151666Y-136840714D02*
X189961190Y-137507380D01*
X189770714Y-137031190D01*
X189580238Y-137507380D01*
X189389761Y-136840714D01*
X188627857Y-137459761D02*
X188723095Y-137507380D01*
X188913571Y-137507380D01*
X189008809Y-137459761D01*
X189056428Y-137364523D01*
X189056428Y-136983571D01*
X189008809Y-136888333D01*
X188913571Y-136840714D01*
X188723095Y-136840714D01*
X188627857Y-136888333D01*
X188580238Y-136983571D01*
X188580238Y-137078809D01*
X189056428Y-137174047D01*
X188151666Y-137507380D02*
X188151666Y-136840714D01*
X188151666Y-137031190D02*
X188104047Y-136935952D01*
X188056428Y-136888333D01*
X187961190Y-136840714D01*
X187865952Y-136840714D01*
X119540309Y-79356904D02*
X119083166Y-79356904D01*
X119311738Y-80156904D02*
X119311738Y-79356904D01*
X118511738Y-80118809D02*
X118587928Y-80156904D01*
X118740309Y-80156904D01*
X118816500Y-80118809D01*
X118854595Y-80042619D01*
X118854595Y-79737857D01*
X118816500Y-79661666D01*
X118740309Y-79623571D01*
X118587928Y-79623571D01*
X118511738Y-79661666D01*
X118473642Y-79737857D01*
X118473642Y-79814047D01*
X118854595Y-79890238D01*
X117826023Y-80118809D02*
X117902214Y-80156904D01*
X118054595Y-80156904D01*
X118130785Y-80118809D01*
X118168880Y-80042619D01*
X118168880Y-79737857D01*
X118130785Y-79661666D01*
X118054595Y-79623571D01*
X117902214Y-79623571D01*
X117826023Y-79661666D01*
X117787928Y-79737857D01*
X117787928Y-79814047D01*
X118168880Y-79890238D01*
X117445071Y-79623571D02*
X117445071Y-80156904D01*
X117445071Y-79699761D02*
X117406976Y-79661666D01*
X117330785Y-79623571D01*
X117216500Y-79623571D01*
X117140309Y-79661666D01*
X117102214Y-79737857D01*
X117102214Y-80156904D01*
X116759357Y-80118809D02*
X116683166Y-80156904D01*
X116530785Y-80156904D01*
X116454595Y-80118809D01*
X116416500Y-80042619D01*
X116416500Y-80004523D01*
X116454595Y-79928333D01*
X116530785Y-79890238D01*
X116645071Y-79890238D01*
X116721261Y-79852142D01*
X116759357Y-79775952D01*
X116759357Y-79737857D01*
X116721261Y-79661666D01*
X116645071Y-79623571D01*
X116530785Y-79623571D01*
X116454595Y-79661666D01*
X116149833Y-79623571D02*
X115959357Y-80156904D01*
X115768880Y-79623571D02*
X115959357Y-80156904D01*
X116035547Y-80347380D01*
X116073642Y-80385476D01*
X116149833Y-80423571D01*
X114968880Y-79356904D02*
X114702214Y-80156904D01*
X114435547Y-79356904D01*
X114168880Y-79356904D02*
X114168880Y-80004523D01*
X114130785Y-80080714D01*
X114092690Y-80118809D01*
X114016500Y-80156904D01*
X113864119Y-80156904D01*
X113787928Y-80118809D01*
X113749833Y-80080714D01*
X113711738Y-80004523D01*
X113711738Y-79356904D01*
X113368880Y-80118809D02*
X113254595Y-80156904D01*
X113064119Y-80156904D01*
X112987928Y-80118809D01*
X112949833Y-80080714D01*
X112911738Y-80004523D01*
X112911738Y-79928333D01*
X112949833Y-79852142D01*
X112987928Y-79814047D01*
X113064119Y-79775952D01*
X113216500Y-79737857D01*
X113292690Y-79699761D01*
X113330785Y-79661666D01*
X113368880Y-79585476D01*
X113368880Y-79509285D01*
X113330785Y-79433095D01*
X113292690Y-79395000D01*
X113216500Y-79356904D01*
X113026023Y-79356904D01*
X112911738Y-79395000D01*
X112302214Y-79737857D02*
X112187928Y-79775952D01*
X112149833Y-79814047D01*
X112111738Y-79890238D01*
X112111738Y-80004523D01*
X112149833Y-80080714D01*
X112187928Y-80118809D01*
X112264119Y-80156904D01*
X112568880Y-80156904D01*
X112568880Y-79356904D01*
X112302214Y-79356904D01*
X112226023Y-79395000D01*
X112187928Y-79433095D01*
X112149833Y-79509285D01*
X112149833Y-79585476D01*
X112187928Y-79661666D01*
X112226023Y-79699761D01*
X112302214Y-79737857D01*
X112568880Y-79737857D01*
X119426023Y-81506904D02*
X119426023Y-80706904D01*
X119235547Y-80706904D01*
X119121261Y-80745000D01*
X119045071Y-80821190D01*
X119006976Y-80897380D01*
X118968880Y-81049761D01*
X118968880Y-81164047D01*
X119006976Y-81316428D01*
X119045071Y-81392619D01*
X119121261Y-81468809D01*
X119235547Y-81506904D01*
X119426023Y-81506904D01*
X118626023Y-81506904D02*
X118626023Y-80973571D01*
X118626023Y-80706904D02*
X118664119Y-80745000D01*
X118626023Y-80783095D01*
X118587928Y-80745000D01*
X118626023Y-80706904D01*
X118626023Y-80783095D01*
X118283166Y-81468809D02*
X118206976Y-81506904D01*
X118054595Y-81506904D01*
X117978404Y-81468809D01*
X117940309Y-81392619D01*
X117940309Y-81354523D01*
X117978404Y-81278333D01*
X118054595Y-81240238D01*
X118168880Y-81240238D01*
X118245071Y-81202142D01*
X118283166Y-81125952D01*
X118283166Y-81087857D01*
X118245071Y-81011666D01*
X118168880Y-80973571D01*
X118054595Y-80973571D01*
X117978404Y-81011666D01*
X117254595Y-81468809D02*
X117330785Y-81506904D01*
X117483166Y-81506904D01*
X117559357Y-81468809D01*
X117597452Y-81430714D01*
X117635547Y-81354523D01*
X117635547Y-81125952D01*
X117597452Y-81049761D01*
X117559357Y-81011666D01*
X117483166Y-80973571D01*
X117330785Y-80973571D01*
X117254595Y-81011666D01*
X116797452Y-81506904D02*
X116873642Y-81468809D01*
X116911738Y-81430714D01*
X116949833Y-81354523D01*
X116949833Y-81125952D01*
X116911738Y-81049761D01*
X116873642Y-81011666D01*
X116797452Y-80973571D01*
X116683166Y-80973571D01*
X116606976Y-81011666D01*
X116568880Y-81049761D01*
X116530785Y-81125952D01*
X116530785Y-81354523D01*
X116568880Y-81430714D01*
X116606976Y-81468809D01*
X116683166Y-81506904D01*
X116797452Y-81506904D01*
X116187928Y-80973571D02*
X116187928Y-81506904D01*
X116187928Y-81049761D02*
X116149833Y-81011666D01*
X116073642Y-80973571D01*
X115959357Y-80973571D01*
X115883166Y-81011666D01*
X115845071Y-81087857D01*
X115845071Y-81506904D01*
X115464119Y-80973571D02*
X115464119Y-81506904D01*
X115464119Y-81049761D02*
X115426023Y-81011666D01*
X115349833Y-80973571D01*
X115235547Y-80973571D01*
X115159357Y-81011666D01*
X115121261Y-81087857D01*
X115121261Y-81506904D01*
X114435547Y-81468809D02*
X114511738Y-81506904D01*
X114664119Y-81506904D01*
X114740309Y-81468809D01*
X114778404Y-81392619D01*
X114778404Y-81087857D01*
X114740309Y-81011666D01*
X114664119Y-80973571D01*
X114511738Y-80973571D01*
X114435547Y-81011666D01*
X114397452Y-81087857D01*
X114397452Y-81164047D01*
X114778404Y-81240238D01*
X113711738Y-81468809D02*
X113787928Y-81506904D01*
X113940309Y-81506904D01*
X114016500Y-81468809D01*
X114054595Y-81430714D01*
X114092690Y-81354523D01*
X114092690Y-81125952D01*
X114054595Y-81049761D01*
X114016500Y-81011666D01*
X113940309Y-80973571D01*
X113787928Y-80973571D01*
X113711738Y-81011666D01*
X113483166Y-80973571D02*
X113178404Y-80973571D01*
X113368880Y-80706904D02*
X113368880Y-81392619D01*
X113330785Y-81468809D01*
X113254595Y-81506904D01*
X113178404Y-81506904D01*
X192166571Y-127861142D02*
X191952285Y-127932571D01*
X191595142Y-127932571D01*
X191452285Y-127861142D01*
X191380857Y-127789714D01*
X191309428Y-127646857D01*
X191309428Y-127504000D01*
X191380857Y-127361142D01*
X191452285Y-127289714D01*
X191595142Y-127218285D01*
X191880857Y-127146857D01*
X192023714Y-127075428D01*
X192095142Y-127004000D01*
X192166571Y-126861142D01*
X192166571Y-126718285D01*
X192095142Y-126575428D01*
X192023714Y-126504000D01*
X191880857Y-126432571D01*
X191523714Y-126432571D01*
X191309428Y-126504000D01*
X190880857Y-126932571D02*
X190309428Y-126932571D01*
X190666571Y-126432571D02*
X190666571Y-127718285D01*
X190595142Y-127861142D01*
X190452285Y-127932571D01*
X190309428Y-127932571D01*
X189166571Y-127932571D02*
X189166571Y-127146857D01*
X189238000Y-127004000D01*
X189380857Y-126932571D01*
X189666571Y-126932571D01*
X189809428Y-127004000D01*
X189166571Y-127861142D02*
X189309428Y-127932571D01*
X189666571Y-127932571D01*
X189809428Y-127861142D01*
X189880857Y-127718285D01*
X189880857Y-127575428D01*
X189809428Y-127432571D01*
X189666571Y-127361142D01*
X189309428Y-127361142D01*
X189166571Y-127289714D01*
X188452285Y-127932571D02*
X188452285Y-126932571D01*
X188452285Y-127218285D02*
X188380857Y-127075428D01*
X188309428Y-127004000D01*
X188166571Y-126932571D01*
X188023714Y-126932571D01*
X187738000Y-126932571D02*
X187166571Y-126932571D01*
X187523714Y-126432571D02*
X187523714Y-127718285D01*
X187452285Y-127861142D01*
X187309428Y-127932571D01*
X187166571Y-127932571D01*
X63884571Y-127861142D02*
X63670285Y-127932571D01*
X63313142Y-127932571D01*
X63170285Y-127861142D01*
X63098857Y-127789714D01*
X63027428Y-127646857D01*
X63027428Y-127504000D01*
X63098857Y-127361142D01*
X63170285Y-127289714D01*
X63313142Y-127218285D01*
X63598857Y-127146857D01*
X63741714Y-127075428D01*
X63813142Y-127004000D01*
X63884571Y-126861142D01*
X63884571Y-126718285D01*
X63813142Y-126575428D01*
X63741714Y-126504000D01*
X63598857Y-126432571D01*
X63241714Y-126432571D01*
X63027428Y-126504000D01*
X61813142Y-127861142D02*
X61956000Y-127932571D01*
X62241714Y-127932571D01*
X62384571Y-127861142D01*
X62456000Y-127718285D01*
X62456000Y-127146857D01*
X62384571Y-127004000D01*
X62241714Y-126932571D01*
X61956000Y-126932571D01*
X61813142Y-127004000D01*
X61741714Y-127146857D01*
X61741714Y-127289714D01*
X62456000Y-127432571D01*
X60884571Y-127932571D02*
X61027428Y-127861142D01*
X61098857Y-127718285D01*
X61098857Y-126432571D01*
X59741714Y-127861142D02*
X59884571Y-127932571D01*
X60170285Y-127932571D01*
X60313142Y-127861142D01*
X60384571Y-127718285D01*
X60384571Y-127146857D01*
X60313142Y-127004000D01*
X60170285Y-126932571D01*
X59884571Y-126932571D01*
X59741714Y-127004000D01*
X59670285Y-127146857D01*
X59670285Y-127289714D01*
X60384571Y-127432571D01*
X58384571Y-127861142D02*
X58527428Y-127932571D01*
X58813142Y-127932571D01*
X58956000Y-127861142D01*
X59027428Y-127789714D01*
X59098857Y-127646857D01*
X59098857Y-127218285D01*
X59027428Y-127075428D01*
X58956000Y-127004000D01*
X58813142Y-126932571D01*
X58527428Y-126932571D01*
X58384571Y-127004000D01*
X57956000Y-126932571D02*
X57384571Y-126932571D01*
X57741714Y-126432571D02*
X57741714Y-127718285D01*
X57670285Y-127861142D01*
X57527428Y-127932571D01*
X57384571Y-127932571D01*
X190500000Y-105918000D02*
X182372000Y-105918000D01*
X182372000Y-95758000D02*
X190500000Y-95758000D01*
X182372000Y-105918000D02*
X182372000Y-95758000D01*
X190500000Y-87630000D02*
X200660000Y-87630000D01*
X190500000Y-95758000D02*
X190500000Y-87630000D01*
X200660000Y-87630000D02*
X200660000Y-95758000D01*
X200660000Y-105918000D02*
X200660000Y-114046000D01*
X190500000Y-114046000D02*
X190500000Y-105918000D01*
X200660000Y-114046000D02*
X190500000Y-114046000D01*
X200660000Y-95758000D02*
X208788000Y-95758000D01*
X208788000Y-105918000D02*
X200660000Y-105918000D01*
X208788000Y-95758000D02*
X208788000Y-105918000D01*
X54467142Y-104251142D02*
X54181428Y-104346380D01*
X54086190Y-104441619D01*
X53990952Y-104632095D01*
X53990952Y-104917809D01*
X54086190Y-105108285D01*
X54181428Y-105203523D01*
X54371904Y-105298761D01*
X55133809Y-105298761D01*
X55133809Y-103298761D01*
X54467142Y-103298761D01*
X54276666Y-103394000D01*
X54181428Y-103489238D01*
X54086190Y-103679714D01*
X54086190Y-103870190D01*
X54181428Y-104060666D01*
X54276666Y-104155904D01*
X54467142Y-104251142D01*
X55133809Y-104251142D01*
X43148190Y-94313333D02*
X42195809Y-94313333D01*
X43338666Y-94884761D02*
X42672000Y-92884761D01*
X42005333Y-94884761D01*
X55276666Y-82470761D02*
X53943333Y-84470761D01*
X53943333Y-82470761D02*
X55276666Y-84470761D01*
X66548000Y-93932380D02*
X66548000Y-94884761D01*
X67214666Y-92884761D02*
X66548000Y-93932380D01*
X65881333Y-92884761D01*
X48006000Y-100838000D02*
G75*
G03*
X48006000Y-100838000I-5334000J0D01*
G01*
X59944000Y-111252000D02*
G75*
G03*
X59944000Y-111252000I-5334000J0D01*
G01*
X59944000Y-90424000D02*
G75*
G03*
X59944000Y-90424000I-5334000J0D01*
G01*
X71882000Y-100838000D02*
G75*
G03*
X71882000Y-100838000I-5334000J0D01*
G01*
X73406000Y-141478000D02*
X73406000Y-76962000D01*
X177038000Y-76962000D02*
X73406000Y-76962000D01*
X73406000Y-141478000D02*
X177038000Y-141478000D01*
D11*
%TO.C,JP1*%
X120194000Y-79280000D02*
X120194000Y-81280000D01*
X122994000Y-79280000D02*
X120194000Y-79280000D01*
X122994000Y-81280000D02*
X122994000Y-79280000D01*
X120194000Y-81280000D02*
X122994000Y-81280000D01*
%TO.C,SW2*%
X194850000Y-89390000D02*
X196350000Y-89390000D01*
X198850000Y-90640000D02*
X198850000Y-95140000D01*
X196350000Y-96390000D02*
X194850000Y-96390000D01*
X192350000Y-95140000D02*
X192350000Y-90640000D01*
%TO.C,SW7*%
X64258000Y-131706000D02*
X64258000Y-133206000D01*
X63008000Y-135706000D02*
X58508000Y-135706000D01*
X57258000Y-133206000D02*
X57258000Y-131706000D01*
X58508000Y-129206000D02*
X63008000Y-129206000D01*
%TO.C,SW6*%
X193186000Y-131706000D02*
X193186000Y-133206000D01*
X191936000Y-135706000D02*
X187436000Y-135706000D01*
X186186000Y-133206000D02*
X186186000Y-131706000D01*
X187436000Y-129206000D02*
X191936000Y-129206000D01*
%TO.C,SW11*%
X65834000Y-97390000D02*
X67334000Y-97390000D01*
X69834000Y-98640000D02*
X69834000Y-103140000D01*
X67334000Y-104390000D02*
X65834000Y-104390000D01*
X63334000Y-103140000D02*
X63334000Y-98640000D01*
%TO.C,SW10*%
X53858000Y-86890000D02*
X55358000Y-86890000D01*
X57858000Y-88140000D02*
X57858000Y-92640000D01*
X55358000Y-93890000D02*
X53858000Y-93890000D01*
X51358000Y-92640000D02*
X51358000Y-88140000D01*
%TO.C,SW9*%
X53858000Y-107890000D02*
X55358000Y-107890000D01*
X57858000Y-109140000D02*
X57858000Y-113640000D01*
X55358000Y-114890000D02*
X53858000Y-114890000D01*
X51358000Y-113640000D02*
X51358000Y-109140000D01*
%TO.C,SW8*%
X41882000Y-97390000D02*
X43382000Y-97390000D01*
X45882000Y-98640000D02*
X45882000Y-103140000D01*
X43382000Y-104390000D02*
X41882000Y-104390000D01*
X39382000Y-103140000D02*
X39382000Y-98640000D01*
%TO.C,SW5*%
X188350000Y-104390000D02*
X186850000Y-104390000D01*
X184350000Y-103140000D02*
X184350000Y-98640000D01*
X186850000Y-97390000D02*
X188350000Y-97390000D01*
X190850000Y-98640000D02*
X190850000Y-103140000D01*
%TO.C,SW4*%
X202850000Y-97390000D02*
X204350000Y-97390000D01*
X206850000Y-98640000D02*
X206850000Y-103140000D01*
X204350000Y-104390000D02*
X202850000Y-104390000D01*
X200350000Y-103140000D02*
X200350000Y-98640000D01*
%TO.C,SW3*%
X196350000Y-112390000D02*
X194850000Y-112390000D01*
X192350000Y-111140000D02*
X192350000Y-106640000D01*
X194850000Y-105390000D02*
X196350000Y-105390000D01*
X198850000Y-106640000D02*
X198850000Y-111140000D01*
%TO.C,JP1*%
D10*
X122427333Y-81532380D02*
X122427333Y-82246666D01*
X122474952Y-82389523D01*
X122570190Y-82484761D01*
X122713047Y-82532380D01*
X122808285Y-82532380D01*
X121951142Y-82532380D02*
X121951142Y-81532380D01*
X121570190Y-81532380D01*
X121474952Y-81580000D01*
X121427333Y-81627619D01*
X121379714Y-81722857D01*
X121379714Y-81865714D01*
X121427333Y-81960952D01*
X121474952Y-82008571D01*
X121570190Y-82056190D01*
X121951142Y-82056190D01*
X120427333Y-82532380D02*
X120998761Y-82532380D01*
X120713047Y-82532380D02*
X120713047Y-81532380D01*
X120808285Y-81675238D01*
X120903523Y-81770476D01*
X120998761Y-81818095D01*
%TD*%
M02*
