%TF.GenerationSoftware,KiCad,Pcbnew,5.1.9*%
%TF.CreationDate,2021-01-24T16:08:06-08:00*%
%TF.ProjectId,TeensyDisplayShield,5465656e-7379-4446-9973-706c61795368,rev?*%
%TF.SameCoordinates,Original*%
%TF.FileFunction,Copper,L4,Bot*%
%TF.FilePolarity,Positive*%
%FSLAX46Y46*%
G04 Gerber Fmt 4.6, Leading zero omitted, Abs format (unit mm)*
G04 Created by KiCad (PCBNEW 5.1.9) date 2021-01-24 16:08:06*
%MOMM*%
%LPD*%
G01*
G04 APERTURE LIST*
%TA.AperFunction,EtchedComponent*%
%ADD10C,0.100000*%
%TD*%
%TA.AperFunction,ComponentPad*%
%ADD11C,1.700000*%
%TD*%
%TA.AperFunction,ComponentPad*%
%ADD12O,1.700000X1.700000*%
%TD*%
%TA.AperFunction,ComponentPad*%
%ADD13R,1.700000X1.700000*%
%TD*%
%TA.AperFunction,ComponentPad*%
%ADD14C,1.600000*%
%TD*%
%TA.AperFunction,ComponentPad*%
%ADD15R,1.600000X1.500000*%
%TD*%
%TA.AperFunction,ComponentPad*%
%ADD16C,3.000000*%
%TD*%
%TA.AperFunction,ComponentPad*%
%ADD17O,1.200000X1.750000*%
%TD*%
%TA.AperFunction,SMDPad,CuDef*%
%ADD18R,1.000000X1.500000*%
%TD*%
%TA.AperFunction,ComponentPad*%
%ADD19C,2.000000*%
%TD*%
%TA.AperFunction,ComponentPad*%
%ADD20C,6.400000*%
%TD*%
%TA.AperFunction,ViaPad*%
%ADD21C,0.800000*%
%TD*%
%TA.AperFunction,ViaPad*%
%ADD22C,1.270000*%
%TD*%
%TA.AperFunction,ViaPad*%
%ADD23C,0.685800*%
%TD*%
%TA.AperFunction,Conductor*%
%ADD24C,0.300000*%
%TD*%
%TA.AperFunction,Conductor*%
%ADD25C,0.750000*%
%TD*%
%TA.AperFunction,Conductor*%
%ADD26C,0.500000*%
%TD*%
%TA.AperFunction,Conductor*%
%ADD27C,0.400000*%
%TD*%
G04 APERTURE END LIST*
D10*
%TO.C,JP1*%
G36*
X121344000Y-80080000D02*
G01*
X121844000Y-80080000D01*
X121844000Y-79680000D01*
X121344000Y-79680000D01*
X121344000Y-80080000D01*
G37*
G36*
X121344000Y-80880000D02*
G01*
X121844000Y-80880000D01*
X121844000Y-80480000D01*
X121344000Y-80480000D01*
X121344000Y-80880000D01*
G37*
%TD*%
D11*
%TO.P,A2,16*%
%TO.N,Net-(A2-Pad16)*%
X114300000Y-134620000D03*
%TO.P,A2,15*%
%TO.N,Net-(A2-Pad15)*%
X114300000Y-137160000D03*
%TO.P,A2,14*%
%TO.N,A5-SCL*%
X162560000Y-137160000D03*
%TO.P,A2,13*%
%TO.N,A4-SDA*%
X162560000Y-134620000D03*
%TO.P,A2,28*%
%TO.N,D13-SPI-SCK*%
X114300000Y-102620000D03*
%TO.P,A2,12*%
%TO.N,Net-(A2-Pad12)*%
X162560000Y-132080000D03*
%TO.P,A2,27*%
%TO.N,D12-SPI-MISO*%
X114300000Y-105160000D03*
%TO.P,A2,11*%
%TO.N,A8*%
X162560000Y-129540000D03*
%TO.P,A2,26*%
%TO.N,D11-SPI-MOSI*%
X114300000Y-107700000D03*
%TO.P,A2,10*%
%TO.N,Net-(A2-Pad10)*%
X162560000Y-127000000D03*
%TO.P,A2,25*%
%TO.N,D10-SPI-CS*%
X114300000Y-110240000D03*
%TO.P,A2,9*%
%TO.N,Net-(A2-Pad9)*%
X162560000Y-124460000D03*
%TO.P,A2,24*%
%TO.N,D9*%
X114300000Y-112780000D03*
%TO.P,A2,8*%
%TO.N,+5V*%
X162560000Y-119380000D03*
%TO.P,A2,23*%
%TO.N,D8-TX2*%
X114300000Y-115320000D03*
%TO.P,A2,7*%
%TO.N,GND*%
X162560000Y-116840000D03*
%TO.P,A2,22*%
%TO.N,Net-(A2-Pad22)*%
X114300000Y-119380000D03*
%TO.P,A2,6*%
%TO.N,GND*%
X162560000Y-114300000D03*
%TO.P,A2,21*%
%TO.N,Net-(A2-Pad21)*%
X114300000Y-121920000D03*
D12*
%TO.P,A2,5*%
%TO.N,+5V*%
X162560000Y-111760000D03*
D11*
%TO.P,A2,20*%
%TO.N,Net-(A2-Pad20)*%
X114300000Y-124460000D03*
D12*
%TO.P,A2,4*%
%TO.N,+3V3*%
X162560000Y-109220000D03*
D11*
%TO.P,A2,19*%
%TO.N,Net-(A2-Pad19)*%
X114300000Y-127000000D03*
D12*
%TO.P,A2,3*%
%TO.N,Net-(A2-Pad3)*%
X162560000Y-106680000D03*
D11*
%TO.P,A2,18*%
%TO.N,Net-(A2-Pad18)*%
X114300000Y-129540000D03*
D12*
%TO.P,A2,2*%
%TO.N,Net-(A2-Pad2)*%
X162560000Y-104140000D03*
D11*
%TO.P,A2,17*%
%TO.N,Net-(A2-Pad17)*%
X114300000Y-132080000D03*
%TO.P,A2,1*%
%TO.N,Net-(A2-Pad1)*%
X162560000Y-101600000D03*
%TO.P,A2,30*%
%TO.N,Net-(A2-Pad30)*%
X114300000Y-97540000D03*
%TO.P,A2,29*%
%TO.N,GND*%
X114300000Y-100080000D03*
%TD*%
%TO.P,A1,16*%
%TO.N,Net-(A1-Pad16)*%
X132080000Y-121920000D03*
%TO.P,A1,15*%
%TO.N,D1-TX1-SPI1-MISO1*%
X132080000Y-119380000D03*
%TO.P,A1,14*%
%TO.N,D0-RX1-SPI-CS1*%
X132080000Y-116840000D03*
%TO.P,A1,13*%
%TO.N,D12-SPI-MISO*%
X132080000Y-114300000D03*
%TO.P,A1,12*%
%TO.N,D11-SPI-MOSI*%
X132080000Y-111760000D03*
%TO.P,A1,11*%
%TO.N,D13-SPI-SCK*%
X132080000Y-109220000D03*
%TO.P,A1,10*%
%TO.N,Button-B*%
X132080000Y-106680000D03*
%TO.P,A1,9*%
%TO.N,Button-Y*%
X132080000Y-104140000D03*
%TO.P,A1,8*%
%TO.N,A9*%
X132080000Y-101600000D03*
%TO.P,A1,7*%
%TO.N,A8*%
X132080000Y-99060000D03*
%TO.P,A1,6*%
%TO.N,A17*%
X132080000Y-96520000D03*
%TO.P,A1,5*%
%TO.N,A16*%
X132080000Y-93980000D03*
%TO.P,A1,4*%
%TO.N,GND*%
X132080000Y-91440000D03*
%TO.P,A1,3*%
%TO.N,Net-(A1-Pad3)*%
X132080000Y-88900000D03*
%TO.P,A1,2*%
%TO.N,+3V3*%
X132080000Y-86360000D03*
D13*
%TO.P,A1,1*%
%TO.N,Net-(A1-Pad1)*%
X132080000Y-83820000D03*
D11*
%TO.P,A1,28*%
%TO.N,Feather-VBAT*%
X152400000Y-93980000D03*
%TO.P,A1,27*%
%TO.N,Net-(A1-Pad27)*%
X152400000Y-96520000D03*
%TO.P,A1,26*%
%TO.N,+5V*%
X152400000Y-99060000D03*
%TO.P,A1,25*%
%TO.N,Button-Select*%
X152400000Y-101600000D03*
%TO.P,A1,24*%
%TO.N,Button-Right*%
X152400000Y-104140000D03*
%TO.P,A1,23*%
%TO.N,Button-Left*%
X152400000Y-106680000D03*
%TO.P,A1,22*%
%TO.N,Button-Down*%
X152400000Y-109220000D03*
%TO.P,A1,21*%
%TO.N,Button-Up*%
X152400000Y-111760000D03*
%TO.P,A1,20*%
%TO.N,D9*%
X152400000Y-114300000D03*
%TO.P,A1,19*%
%TO.N,D8-TX2*%
X152400000Y-116840000D03*
%TO.P,A1,18*%
%TO.N,A5-SCL*%
X152400000Y-119380000D03*
%TO.P,A1,17*%
%TO.N,A4-SDA*%
X152400000Y-121920000D03*
%TD*%
D14*
%TO.P,J2,4*%
%TO.N,GND*%
X116190000Y-88900000D03*
%TO.P,J2,3*%
%TO.N,USBHost_D+*%
X118690000Y-88900000D03*
%TO.P,J2,2*%
%TO.N,USBHost_D-*%
X120690000Y-88900000D03*
D15*
%TO.P,J2,1*%
%TO.N,USBHost_5V*%
X123190000Y-88900000D03*
D16*
%TO.P,J2,5*%
%TO.N,Net-(J2-Pad5)*%
X113120000Y-86190000D03*
X126260000Y-86190000D03*
%TD*%
D13*
%TO.P,J5,1*%
%TO.N,GND*%
X195700000Y-78000000D03*
D12*
%TO.P,J5,2*%
%TO.N,+5V*%
X193160000Y-78000000D03*
%TO.P,J5,3*%
X190620000Y-78000000D03*
%TO.P,J5,4*%
%TO.N,VBAT*%
X188080000Y-78000000D03*
%TD*%
%TO.P,J1,1*%
%TO.N,Onboard-VBAT*%
%TA.AperFunction,ComponentPad*%
G36*
G01*
X180950000Y-79575001D02*
X180950000Y-78324999D01*
G75*
G02*
X181199999Y-78075000I249999J0D01*
G01*
X181900001Y-78075000D01*
G75*
G02*
X182150000Y-78324999I0J-249999D01*
G01*
X182150000Y-79575001D01*
G75*
G02*
X181900001Y-79825000I-249999J0D01*
G01*
X181199999Y-79825000D01*
G75*
G02*
X180950000Y-79575001I0J249999D01*
G01*
G37*
%TD.AperFunction*%
D17*
%TO.P,J1,2*%
%TO.N,GND*%
X183550000Y-78950000D03*
%TD*%
D13*
%TO.P,J6,1*%
%TO.N,GND*%
X167170000Y-78000000D03*
D12*
%TO.P,J6,2*%
%TO.N,VUSB*%
X164630000Y-78000000D03*
%TD*%
%TO.P,J3,16*%
%TO.N,D35-TX8*%
X117602000Y-140440000D03*
%TO.P,J3,15*%
%TO.N,D34-RX8*%
X120142000Y-140440000D03*
%TO.P,J3,14*%
%TO.N,D29-TX7*%
X122682000Y-140440000D03*
%TO.P,J3,13*%
%TO.N,D28-RX7*%
X125222000Y-140440000D03*
%TO.P,J3,12*%
%TO.N,A10-SCL2-TX6*%
X127762000Y-140440000D03*
%TO.P,J3,11*%
%TO.N,A11-SDA2-RX6*%
X130302000Y-140440000D03*
D13*
%TO.P,J3,10*%
%TO.N,GND*%
X132842000Y-140440000D03*
D12*
%TO.P,J3,9*%
%TO.N,A6-TX5*%
X135382000Y-140440000D03*
%TO.P,J3,8*%
%TO.N,A7-RX5*%
X137922000Y-140440000D03*
D13*
%TO.P,J3,7*%
%TO.N,GND*%
X140462000Y-140440000D03*
D12*
%TO.P,J3,6*%
%TO.N,A0-TX3*%
X143002000Y-140440000D03*
%TO.P,J3,5*%
%TO.N,A1-RX3*%
X145542000Y-140440000D03*
D13*
%TO.P,J3,4*%
%TO.N,GND*%
X148082000Y-140440000D03*
D12*
%TO.P,J3,3*%
%TO.N,D1-TX1-SPI1-MISO1*%
X150622000Y-140440000D03*
D11*
%TO.P,J3,2*%
%TO.N,D0-RX1-SPI-CS1*%
X153162000Y-140440000D03*
D13*
%TO.P,J3,1*%
%TO.N,GND*%
X155702000Y-140440000D03*
%TD*%
D18*
%TO.P,JP1,1*%
%TO.N,Teensy-VUSB*%
X120944000Y-80280000D03*
%TO.P,JP1,2*%
%TO.N,VUSB*%
X122244000Y-80280000D03*
%TD*%
D19*
%TO.P,SW2,1*%
%TO.N,Button-Up*%
X197850000Y-89640000D03*
%TO.P,SW2,2*%
%TO.N,GND*%
X193350000Y-89640000D03*
%TO.P,SW2,1*%
%TO.N,Button-Up*%
X197850000Y-96140000D03*
%TO.P,SW2,2*%
%TO.N,GND*%
X193350000Y-96140000D03*
%TD*%
D13*
%TO.P,U2,49*%
%TO.N,Teensy-VUSB*%
X105410000Y-81280000D03*
D11*
%TO.P,U2,59*%
%TO.N,GND*%
X95760800Y-95199200D03*
%TO.P,U2,58*%
X95760800Y-92659200D03*
%TO.P,U2,57*%
%TO.N,USBHost_D+*%
X95760800Y-90119200D03*
%TO.P,U2,56*%
%TO.N,USBHost_D-*%
X95760800Y-87579200D03*
D13*
%TO.P,U2,55*%
%TO.N,USBHost_5V*%
X95760800Y-85039200D03*
D11*
%TO.P,U2,48*%
%TO.N,+5V*%
X107950000Y-78740000D03*
%TO.P,U2,47*%
%TO.N,GND*%
X107950000Y-81280000D03*
%TO.P,U2,46*%
%TO.N,+3V3*%
X107950000Y-83820000D03*
%TO.P,U2,45*%
%TO.N,A9*%
X107950000Y-86360000D03*
%TO.P,U2,44*%
%TO.N,A8*%
X107950000Y-88900000D03*
%TO.P,U2,43*%
%TO.N,A7-RX5*%
X107950000Y-91440000D03*
%TO.P,U2,42*%
%TO.N,A6-TX5*%
X107950000Y-93980000D03*
%TO.P,U2,41*%
%TO.N,A5-SCL*%
X107950000Y-96520000D03*
%TO.P,U2,40*%
%TO.N,A4-SDA*%
X107950000Y-99060000D03*
%TO.P,U2,39*%
%TO.N,A3-SDA1-TX4*%
X107950000Y-101600000D03*
%TO.P,U2,38*%
%TO.N,A2-SCL1-RX4*%
X107950000Y-104140000D03*
%TO.P,U2,37*%
%TO.N,A1-RX3*%
X107950000Y-106680000D03*
%TO.P,U2,36*%
%TO.N,A0-TX3*%
X107950000Y-109220000D03*
%TO.P,U2,35*%
%TO.N,D13-SPI-SCK*%
X107950000Y-111760000D03*
D13*
%TO.P,U2,1*%
%TO.N,GND*%
X92710000Y-78740000D03*
D11*
%TO.P,U2,2*%
%TO.N,D0-RX1-SPI-CS1*%
X92710000Y-81280000D03*
%TO.P,U2,3*%
%TO.N,D1-TX1-SPI1-MISO1*%
X92710000Y-83820000D03*
%TO.P,U2,4*%
%TO.N,Button-Up*%
X92710000Y-86360000D03*
%TO.P,U2,5*%
%TO.N,Button-Down*%
X92710000Y-88900000D03*
%TO.P,U2,6*%
%TO.N,Button-Left*%
X92710000Y-91440000D03*
%TO.P,U2,7*%
%TO.N,Button-Right*%
X92710000Y-93980000D03*
%TO.P,U2,8*%
%TO.N,Button-Select*%
X92710000Y-96520000D03*
%TO.P,U2,9*%
%TO.N,D7-RX2*%
X92710000Y-99060000D03*
%TO.P,U2,10*%
%TO.N,D8-TX2*%
X92710000Y-101600000D03*
%TO.P,U2,11*%
%TO.N,D9*%
X92710000Y-104140000D03*
%TO.P,U2,12*%
%TO.N,D10-SPI-CS*%
X92710000Y-106680000D03*
%TO.P,U2,13*%
%TO.N,D11-SPI-MOSI*%
X92710000Y-109220000D03*
%TO.P,U2,34*%
%TO.N,GND*%
X107950000Y-114300000D03*
%TO.P,U2,33*%
%TO.N,A17*%
X107950000Y-116840000D03*
%TO.P,U2,32*%
%TO.N,A16*%
X107950000Y-119380000D03*
%TO.P,U2,31*%
%TO.N,A15-SPI1-MISO1*%
X107950000Y-121920000D03*
%TO.P,U2,30*%
%TO.N,A14-SPI1-CS1*%
X107950000Y-124460000D03*
%TO.P,U2,29*%
%TO.N,D37-SPI-CS*%
X107950000Y-127000000D03*
%TO.P,U2,28*%
%TO.N,D36-SPI-CS*%
X107950000Y-129540000D03*
%TO.P,U2,27*%
%TO.N,D35-TX8*%
X107950000Y-132080000D03*
%TO.P,U2,26*%
%TO.N,D34-RX8*%
X107950000Y-134620000D03*
%TO.P,U2,25*%
%TO.N,D33*%
X107950000Y-137160000D03*
%TO.P,U2,24*%
%TO.N,D32*%
X92710000Y-137160000D03*
%TO.P,U2,23*%
%TO.N,Button-B*%
X92710000Y-134620000D03*
%TO.P,U2,22*%
%TO.N,Button-Y*%
X92710000Y-132080000D03*
%TO.P,U2,21*%
%TO.N,D29-TX7*%
X92710000Y-129540000D03*
%TO.P,U2,14*%
%TO.N,D12-SPI-MISO*%
X92710000Y-111760000D03*
%TO.P,U2,15*%
%TO.N,+3V3*%
X92710000Y-114300000D03*
%TO.P,U2,16*%
%TO.N,A10-SCL2-TX6*%
X92710000Y-116840000D03*
%TO.P,U2,20*%
%TO.N,D28-RX7*%
X92710000Y-127000000D03*
%TO.P,U2,19*%
%TO.N,A13-SPI1-SCK1*%
X92710000Y-124460000D03*
%TO.P,U2,18*%
%TO.N,A12-SPI1-MOSI1*%
X92710000Y-121920000D03*
%TO.P,U2,17*%
%TO.N,A11-SDA2-RX6*%
X92710000Y-119380000D03*
%TO.P,U2,50*%
%TO.N,Net-(BT1-Pad1)*%
X95250000Y-124460000D03*
%TO.P,U2,51*%
%TO.N,Net-(U2-Pad51)*%
X97790000Y-124460000D03*
%TO.P,U2,52*%
%TO.N,GND*%
X100330000Y-124460000D03*
%TO.P,U2,53*%
%TO.N,Net-(U2-Pad53)*%
X102870000Y-124460000D03*
%TO.P,U2,54*%
%TO.N,Net-(U2-Pad54)*%
X105410000Y-124460000D03*
%TD*%
D12*
%TO.P,SW1,3*%
%TO.N,N/C*%
X187450000Y-139700000D03*
%TO.P,SW1,2*%
%TO.N,GND*%
X189990000Y-139700000D03*
D13*
%TO.P,SW1,1*%
%TO.N,Net-(Q2-Pad1)*%
X192530000Y-139700000D03*
%TD*%
D12*
%TO.P,J4,4*%
%TO.N,A3-SDA1-TX4*%
X81542000Y-140440000D03*
%TO.P,J4,3*%
%TO.N,A2-SCL1-RX4*%
X84082000Y-140440000D03*
%TO.P,J4,2*%
%TO.N,+3V3*%
X86622000Y-140440000D03*
D13*
%TO.P,J4,1*%
%TO.N,GND*%
X89162000Y-140440000D03*
%TD*%
D19*
%TO.P,SW7,1*%
%TO.N,Button-Select*%
X64008000Y-134706000D03*
%TO.P,SW7,2*%
%TO.N,GND*%
X64008000Y-130206000D03*
%TO.P,SW7,1*%
%TO.N,Button-Select*%
X57508000Y-134706000D03*
%TO.P,SW7,2*%
%TO.N,GND*%
X57508000Y-130206000D03*
%TD*%
%TO.P,SW6,1*%
%TO.N,A16*%
X192936000Y-134706000D03*
%TO.P,SW6,2*%
%TO.N,GND*%
X192936000Y-130206000D03*
%TO.P,SW6,1*%
%TO.N,A16*%
X186436000Y-134706000D03*
%TO.P,SW6,2*%
%TO.N,GND*%
X186436000Y-130206000D03*
%TD*%
%TO.P,SW11,1*%
%TO.N,Button-Y*%
X68834000Y-97640000D03*
%TO.P,SW11,2*%
%TO.N,GND*%
X64334000Y-97640000D03*
%TO.P,SW11,1*%
%TO.N,Button-Y*%
X68834000Y-104140000D03*
%TO.P,SW11,2*%
%TO.N,GND*%
X64334000Y-104140000D03*
%TD*%
%TO.P,SW10,1*%
%TO.N,A9*%
X56858000Y-87140000D03*
%TO.P,SW10,2*%
%TO.N,GND*%
X52358000Y-87140000D03*
%TO.P,SW10,1*%
%TO.N,A9*%
X56858000Y-93640000D03*
%TO.P,SW10,2*%
%TO.N,GND*%
X52358000Y-93640000D03*
%TD*%
%TO.P,SW9,1*%
%TO.N,Button-B*%
X56858000Y-108140000D03*
%TO.P,SW9,2*%
%TO.N,GND*%
X52358000Y-108140000D03*
%TO.P,SW9,1*%
%TO.N,Button-B*%
X56858000Y-114640000D03*
%TO.P,SW9,2*%
%TO.N,GND*%
X52358000Y-114640000D03*
%TD*%
%TO.P,SW8,1*%
%TO.N,A17*%
X44882000Y-97640000D03*
%TO.P,SW8,2*%
%TO.N,GND*%
X40382000Y-97640000D03*
%TO.P,SW8,1*%
%TO.N,A17*%
X44882000Y-104140000D03*
%TO.P,SW8,2*%
%TO.N,GND*%
X40382000Y-104140000D03*
%TD*%
%TO.P,SW5,1*%
%TO.N,Button-Right*%
X185350000Y-104140000D03*
%TO.P,SW5,2*%
%TO.N,GND*%
X189850000Y-104140000D03*
%TO.P,SW5,1*%
%TO.N,Button-Right*%
X185350000Y-97640000D03*
%TO.P,SW5,2*%
%TO.N,GND*%
X189850000Y-97640000D03*
%TD*%
%TO.P,SW4,1*%
%TO.N,Button-Left*%
X205850000Y-97640000D03*
%TO.P,SW4,2*%
%TO.N,GND*%
X201350000Y-97640000D03*
%TO.P,SW4,1*%
%TO.N,Button-Left*%
X205850000Y-104140000D03*
%TO.P,SW4,2*%
%TO.N,GND*%
X201350000Y-104140000D03*
%TD*%
%TO.P,SW3,1*%
%TO.N,Button-Down*%
X193350000Y-112140000D03*
%TO.P,SW3,2*%
%TO.N,GND*%
X197850000Y-112140000D03*
%TO.P,SW3,1*%
%TO.N,Button-Down*%
X193350000Y-105640000D03*
%TO.P,SW3,2*%
%TO.N,GND*%
X197850000Y-105640000D03*
%TD*%
D11*
%TO.P,J7,1*%
%TO.N,Button-Up*%
X175260000Y-116840000D03*
D12*
%TO.P,J7,2*%
%TO.N,GND*%
X172720000Y-116840000D03*
%TO.P,J7,3*%
%TO.N,Button-Down*%
X175260000Y-114300000D03*
%TO.P,J7,4*%
%TO.N,GND*%
X172720000Y-114300000D03*
%TO.P,J7,5*%
%TO.N,Button-Left*%
X175260000Y-111760000D03*
%TO.P,J7,6*%
%TO.N,GND*%
X172720000Y-111760000D03*
%TO.P,J7,7*%
%TO.N,Button-Right*%
X175260000Y-109220000D03*
%TO.P,J7,8*%
%TO.N,GND*%
X172720000Y-109220000D03*
%TO.P,J7,9*%
%TO.N,A16*%
X175260000Y-106680000D03*
%TO.P,J7,10*%
%TO.N,GND*%
X172720000Y-106680000D03*
%TD*%
%TO.P,J8,10*%
%TO.N,GND*%
X79100000Y-106680000D03*
%TO.P,J8,9*%
%TO.N,Button-Select*%
X76560000Y-106680000D03*
%TO.P,J8,8*%
%TO.N,GND*%
X79100000Y-104140000D03*
%TO.P,J8,7*%
%TO.N,Button-Y*%
X76560000Y-104140000D03*
%TO.P,J8,6*%
%TO.N,GND*%
X79100000Y-101600000D03*
%TO.P,J8,5*%
%TO.N,A9*%
X76560000Y-101600000D03*
%TO.P,J8,4*%
%TO.N,GND*%
X79100000Y-99060000D03*
%TO.P,J8,3*%
%TO.N,Button-B*%
X76560000Y-99060000D03*
%TO.P,J8,2*%
%TO.N,GND*%
X79100000Y-96520000D03*
D11*
%TO.P,J8,1*%
%TO.N,A17*%
X76560000Y-96520000D03*
%TD*%
D20*
%TO.P,H1,1*%
%TO.N,GND*%
X76560000Y-81200000D03*
%TD*%
%TO.P,H2,1*%
%TO.N,GND*%
X173884000Y-81200000D03*
%TD*%
%TO.P,H3,1*%
%TO.N,GND*%
X76560000Y-137240000D03*
%TD*%
%TO.P,H4,1*%
%TO.N,GND*%
X173884000Y-137240000D03*
%TD*%
%TO.P,H5,1*%
%TO.N,GND*%
X209884000Y-81200000D03*
%TD*%
%TO.P,H6,1*%
%TO.N,GND*%
X209884000Y-137240000D03*
%TD*%
%TO.P,H7,1*%
%TO.N,GND*%
X40560000Y-81200000D03*
%TD*%
%TO.P,H8,1*%
%TO.N,GND*%
X40560000Y-137240000D03*
%TD*%
D21*
%TO.N,GND*%
X168702000Y-91600000D03*
X62302000Y-117500000D03*
X62302000Y-121300000D03*
X165502000Y-91900000D03*
X167102000Y-88600000D03*
X165602000Y-85000000D03*
X168202000Y-85000000D03*
X167202000Y-91600000D03*
X162502000Y-90700000D03*
X161602000Y-92000000D03*
X160402000Y-92000000D03*
X159202000Y-92000000D03*
X157902000Y-92000000D03*
X157102000Y-90700000D03*
X145802000Y-88600000D03*
X141502000Y-87600000D03*
X140402000Y-88700000D03*
X135702000Y-82200000D03*
X136602000Y-82200000D03*
X143202000Y-81100000D03*
X144602000Y-81100000D03*
X145802000Y-81100000D03*
X147502000Y-81100000D03*
X155502000Y-82400000D03*
X150450000Y-86530000D03*
X146631992Y-88560000D03*
X142432000Y-90860000D03*
X145232000Y-90860000D03*
X159532000Y-81960000D03*
X162532000Y-81960000D03*
X152700752Y-86303557D03*
X132300000Y-80900000D03*
X133700016Y-79800000D03*
%TO.N,D10-SPI-CS*%
X104902000Y-107950000D03*
%TO.N,D12-SPI-MISO*%
X111030000Y-110400000D03*
X118030000Y-114000000D03*
%TO.N,D13-SPI-SCK*%
X105918000Y-106172000D03*
%TO.N,A4-SDA*%
X154210000Y-129840000D03*
X103662000Y-115840000D03*
%TO.N,A5-SCL*%
X153210000Y-130640000D03*
X102312000Y-113090000D03*
%TO.N,D0-RX1-SPI-CS1*%
X121712000Y-116389999D03*
X98612000Y-93290000D03*
X151312000Y-131490000D03*
X139231992Y-130009992D03*
X112762000Y-95140000D03*
%TO.N,D1-TX1-SPI1-MISO1*%
X98812000Y-96340000D03*
X111612000Y-96190000D03*
X120362000Y-119390000D03*
X149812000Y-132190000D03*
X137231995Y-130010005D03*
D22*
%TO.N,VUSB*%
X125430000Y-81610000D03*
X138202000Y-82600000D03*
D21*
%TO.N,A9*%
X102182000Y-86060000D03*
X105182000Y-92560000D03*
X127582000Y-93160000D03*
X127882000Y-101460000D03*
X72860000Y-88290000D03*
X72860000Y-101390000D03*
%TO.N,A8*%
X129802000Y-79200000D03*
X128402000Y-92100000D03*
X137082000Y-123860000D03*
X155082000Y-123960000D03*
X155582000Y-129160000D03*
%TO.N,A7-RX5*%
X135312000Y-130040000D03*
X124312000Y-129290000D03*
%TO.N,A6-TX5*%
X134662000Y-131690000D03*
X122912000Y-130340000D03*
%TO.N,A17*%
X125282000Y-122160000D03*
X126282000Y-96560000D03*
X96182000Y-115560000D03*
X95682000Y-110560000D03*
X111630000Y-118200000D03*
X82610000Y-110190000D03*
%TO.N,A16*%
X139382000Y-94760000D03*
X116682000Y-123060000D03*
X139882000Y-124760000D03*
X179936000Y-129914000D03*
%TO.N,D28-RX7*%
X110162000Y-132040000D03*
%TO.N,A10-SCL2-TX6*%
X110262000Y-128340000D03*
X99282000Y-126260000D03*
%TO.N,A11-SDA2-RX6*%
X90562000Y-125640000D03*
X110462000Y-130240000D03*
X118872000Y-134060000D03*
D22*
%TO.N,VBAT*%
X142002000Y-80500000D03*
X170500000Y-87800000D03*
X178320000Y-87810000D03*
D21*
%TO.N,D29-TX7*%
X99862000Y-132400000D03*
X100862000Y-137300000D03*
%TO.N,Button-Up*%
X102616000Y-135890000D03*
D23*
X144400000Y-128480000D03*
D21*
X100300000Y-86880000D03*
X190382000Y-118110000D03*
%TO.N,Button-Down*%
X104140000Y-133096000D03*
D23*
X143400000Y-127480000D03*
D21*
X101382000Y-100760000D03*
D23*
%TO.N,Button-Left*%
X100862000Y-93190000D03*
D21*
X158582000Y-107060000D03*
X159382000Y-119960000D03*
D23*
X143682002Y-125660000D03*
D21*
X198492000Y-120650000D03*
X103006000Y-122386000D03*
X179060000Y-111990000D03*
X179220000Y-120650000D03*
%TO.N,Button-Select*%
X111582000Y-97760000D03*
X98582000Y-98460000D03*
X103082000Y-98470001D03*
X72860000Y-134390000D03*
X89060000Y-96290000D03*
X73960000Y-93290000D03*
%TO.N,A0-TX3*%
X140482000Y-106560000D03*
X118982000Y-104760000D03*
%TO.N,A1-RX3*%
X138182000Y-110860000D03*
X146682000Y-128360000D03*
X138682000Y-126480010D03*
D22*
%TO.N,USBHost_5V*%
X101100000Y-84980000D03*
X105162000Y-83640000D03*
X115344000Y-84180000D03*
D21*
%TO.N,A2-SCL1-RX4*%
X88062000Y-104240000D03*
%TO.N,A3-SDA1-TX4*%
X87062000Y-102640000D03*
D22*
%TO.N,+3V3*%
X110902000Y-89700000D03*
X142702000Y-107200000D03*
X141002000Y-90300000D03*
D21*
%TO.N,+5V*%
X160202000Y-86200000D03*
X162002000Y-86200000D03*
X162002000Y-88800000D03*
X160202000Y-88800000D03*
X158902000Y-88800000D03*
X157702000Y-88800000D03*
%TO.N,Net-(Q2-Pad1)*%
X174780000Y-90000000D03*
%TO.N,D8-TX2*%
X90112000Y-114190000D03*
X148962000Y-120340000D03*
X117130000Y-118900000D03*
X110630000Y-117400000D03*
%TO.N,D9*%
X94762000Y-114090000D03*
X105662000Y-114340000D03*
%TO.N,Button-B*%
X126482000Y-107260000D03*
X126502000Y-135700000D03*
X71760000Y-109290000D03*
X72860000Y-132090000D03*
X71860000Y-98990000D03*
%TO.N,Button-Y*%
X98482000Y-102860000D03*
X98382000Y-105160000D03*
X81530000Y-105420000D03*
X80836000Y-131614000D03*
%TO.N,Net-(D1-Pad1)*%
X164771998Y-88400000D03*
X169500000Y-85100000D03*
%TO.N,Net-(JP2-Pad2)*%
X171440000Y-91200000D03*
%TO.N,Net-(R5-Pad2)*%
X154532000Y-84360000D03*
X152532004Y-84560000D03*
%TD*%
D24*
%TO.N,D10-SPI-CS*%
X106426000Y-113030000D02*
X105156000Y-111760000D01*
X105156000Y-111760000D02*
X105156000Y-108204000D01*
X105156000Y-108204000D02*
X104902000Y-107950000D01*
X111510000Y-113030000D02*
X114300000Y-110240000D01*
X111000000Y-113030000D02*
X111510000Y-113030000D01*
X111000000Y-113030000D02*
X106426000Y-113030000D01*
%TO.N,D12-SPI-MISO*%
X112530000Y-106930000D02*
X114300000Y-105160000D01*
X112530000Y-108900000D02*
X112530000Y-106930000D01*
X111030000Y-110400000D02*
X112530000Y-108900000D01*
X118030000Y-108890000D02*
X118030000Y-114000000D01*
X114300000Y-105160000D02*
X118030000Y-108890000D01*
%TO.N,D13-SPI-SCK*%
X105918000Y-109728000D02*
X105918000Y-106172000D01*
X107950000Y-111760000D02*
X105918000Y-109728000D01*
%TO.N,A4-SDA*%
X154210000Y-126016000D02*
X154210000Y-129840000D01*
X152400000Y-124206000D02*
X154210000Y-126016000D01*
X152400000Y-121920000D02*
X152400000Y-124206000D01*
X107950000Y-99060000D02*
X103662000Y-103348000D01*
X103662000Y-103348000D02*
X103662000Y-115840000D01*
%TO.N,A5-SCL*%
X153210000Y-126540000D02*
X153210000Y-130640000D01*
X151199999Y-124529999D02*
X153210000Y-126540000D01*
X151199999Y-120580001D02*
X151199999Y-124529999D01*
X152400000Y-119380000D02*
X151199999Y-120580001D01*
X102312000Y-102158000D02*
X102312000Y-113090000D01*
X107950000Y-96520000D02*
X102312000Y-102158000D01*
%TO.N,D0-RX1-SPI-CS1*%
X98612000Y-83590000D02*
X96302000Y-81280000D01*
X96302000Y-81280000D02*
X92710000Y-81280000D01*
X98612000Y-93290000D02*
X98612000Y-83590000D01*
X151312000Y-131490000D02*
X153162000Y-133340000D01*
X136062000Y-126840000D02*
X139231992Y-130009992D01*
X132080000Y-116840000D02*
X136062000Y-120822000D01*
X136062000Y-120822000D02*
X136062000Y-126840000D01*
X121712000Y-116389999D02*
X121712000Y-101043998D01*
X115808002Y-95140000D02*
X112762000Y-95140000D01*
X121712000Y-101043998D02*
X115808002Y-95140000D01*
X153162000Y-140440000D02*
X153162000Y-133340000D01*
%TO.N,D1-TX1-SPI1-MISO1*%
X92710000Y-83820000D02*
X97342000Y-83820000D01*
X97342000Y-94870000D02*
X98812000Y-96340000D01*
X97342000Y-83820000D02*
X97342000Y-94870000D01*
X150562000Y-139640000D02*
X150622000Y-139700000D01*
X149812000Y-132190000D02*
X150562000Y-132940000D01*
X132080000Y-119380000D02*
X134412000Y-121712000D01*
X134412000Y-121712000D02*
X134412000Y-127190010D01*
X134412000Y-127190010D02*
X137231995Y-130010005D01*
X120362000Y-119390000D02*
X120382000Y-119370000D01*
X120382000Y-119370000D02*
X120382000Y-100852000D01*
X120382000Y-100852000D02*
X115720000Y-96190000D01*
X115720000Y-96190000D02*
X111612000Y-96190000D01*
X150622000Y-133000000D02*
X150562000Y-132940000D01*
X150622000Y-140440000D02*
X150622000Y-133000000D01*
D25*
%TO.N,VUSB*%
X124100000Y-80280000D02*
X125430000Y-81610000D01*
X122244000Y-80280000D02*
X124100000Y-80280000D01*
X138202000Y-82600000D02*
X142402000Y-78400000D01*
X163300000Y-78000000D02*
X162900000Y-78400000D01*
X164630000Y-78000000D02*
X163300000Y-78000000D01*
X142402000Y-78400000D02*
X162900000Y-78400000D01*
D24*
%TO.N,A9*%
X107950000Y-86360000D02*
X102482000Y-86360000D01*
X102482000Y-86360000D02*
X102182000Y-86060000D01*
X105182000Y-89128000D02*
X105182000Y-92560000D01*
X107950000Y-86360000D02*
X105182000Y-89128000D01*
X127582000Y-101160000D02*
X127882000Y-101460000D01*
X127582000Y-93160000D02*
X127582000Y-101160000D01*
X56858000Y-93640000D02*
X56858000Y-87140000D01*
X72860000Y-88290000D02*
X72860000Y-101390000D01*
%TO.N,A8*%
X128402000Y-80600000D02*
X128402000Y-92100000D01*
X129802000Y-79200000D02*
X128402000Y-80600000D01*
X128402000Y-95382000D02*
X128402000Y-92100000D01*
X132080000Y-99060000D02*
X128402000Y-95382000D01*
X137082000Y-104062000D02*
X137082000Y-123860000D01*
X132080000Y-99060000D02*
X137082000Y-104062000D01*
X155582000Y-124460000D02*
X155582000Y-129160000D01*
X155082000Y-123960000D02*
X155582000Y-124460000D01*
%TO.N,A7-RX5*%
X107950000Y-91440000D02*
X114562000Y-91440000D01*
X114562000Y-91440000D02*
X124262000Y-101140000D01*
X124262000Y-101140000D02*
X124262000Y-104090000D01*
X135312000Y-130040000D02*
X137922000Y-132650000D01*
X124262000Y-104090000D02*
X124262000Y-129240000D01*
X124262000Y-129240000D02*
X124312000Y-129290000D01*
X137922000Y-140440000D02*
X137922000Y-132650000D01*
%TO.N,A6-TX5*%
X108010000Y-94040000D02*
X107950000Y-93980000D01*
X115662000Y-94040000D02*
X108010000Y-94040000D01*
X122862000Y-101240000D02*
X115662000Y-94040000D01*
X134662000Y-131690000D02*
X135362000Y-132390000D01*
X122862000Y-101240000D02*
X122862000Y-130290000D01*
X122862000Y-130290000D02*
X122912000Y-130340000D01*
X135382000Y-132410000D02*
X135362000Y-132390000D01*
X135382000Y-140440000D02*
X135382000Y-132410000D01*
%TO.N,A17*%
X125282000Y-97560000D02*
X126282000Y-96560000D01*
X125282000Y-122160000D02*
X125282000Y-97560000D01*
X96182000Y-115560000D02*
X95682000Y-115060000D01*
X95682000Y-115060000D02*
X95682000Y-110560000D01*
X44882000Y-97640000D02*
X44882000Y-104140000D01*
X107950000Y-116840000D02*
X109310000Y-118200000D01*
X109310000Y-118200000D02*
X111630000Y-118200000D01*
X82610000Y-110190000D02*
X82610000Y-98640000D01*
X76560000Y-96520000D02*
X76560000Y-94890000D01*
X76560000Y-94890000D02*
X77470000Y-93980000D01*
X77470000Y-93980000D02*
X81280000Y-93980000D01*
X82610000Y-95310000D02*
X82610000Y-98640000D01*
X81280000Y-93980000D02*
X82610000Y-95310000D01*
%TO.N,A16*%
X139382000Y-124260000D02*
X139882000Y-124760000D01*
X139382000Y-94760000D02*
X139382000Y-124260000D01*
X186436000Y-134706000D02*
X192936000Y-134706000D01*
X116682000Y-121260000D02*
X116682000Y-123060000D01*
X116072000Y-120650000D02*
X116682000Y-121260000D01*
X109220000Y-120650000D02*
X116072000Y-120650000D01*
X107950000Y-119380000D02*
X109220000Y-120650000D01*
X181460000Y-128390000D02*
X179936000Y-129914000D01*
X181460000Y-109790000D02*
X181460000Y-128390000D01*
X178350000Y-106680000D02*
X181460000Y-109790000D01*
X176530000Y-106680000D02*
X178350000Y-106680000D01*
X176530000Y-106680000D02*
X175260000Y-106680000D01*
%TO.N,D35-TX8*%
X109527000Y-139000000D02*
X110217000Y-139690000D01*
X106662000Y-139000000D02*
X109527000Y-139000000D01*
X105562000Y-137900000D02*
X106662000Y-139000000D01*
X105562000Y-133400000D02*
X105562000Y-137900000D01*
X106882000Y-132080000D02*
X105562000Y-133400000D01*
X107950000Y-132080000D02*
X106882000Y-132080000D01*
X110967000Y-140440000D02*
X110217000Y-139690000D01*
X117602000Y-140440000D02*
X110967000Y-140440000D01*
%TO.N,D34-RX8*%
X111760000Y-138430000D02*
X107950000Y-134620000D01*
X115362000Y-138430000D02*
X111760000Y-138430000D01*
X116692000Y-137100000D02*
X115362000Y-138430000D01*
X118892000Y-137100000D02*
X116692000Y-137100000D01*
X120142000Y-138350000D02*
X118892000Y-137100000D01*
X120142000Y-138350000D02*
X120142000Y-140440000D01*
%TO.N,D28-RX7*%
X110162000Y-133528002D02*
X110162000Y-132040000D01*
X112533998Y-135900000D02*
X110162000Y-133528002D01*
X122260000Y-135900000D02*
X112533998Y-135900000D01*
X125222000Y-138862000D02*
X122260000Y-135900000D01*
X125222000Y-140440000D02*
X125222000Y-138862000D01*
%TO.N,A10-SCL2-TX6*%
X110332000Y-128270000D02*
X116332000Y-128270000D01*
X110262000Y-128340000D02*
X110332000Y-128270000D01*
X99032000Y-123162000D02*
X92710000Y-116840000D01*
X99032000Y-126010000D02*
X99032000Y-123162000D01*
X99282000Y-126260000D02*
X99032000Y-126010000D01*
X127762000Y-140440000D02*
X127762000Y-138512000D01*
X126674000Y-137424000D02*
X125486000Y-137424000D01*
X127762000Y-138512000D02*
X126674000Y-137424000D01*
X116332000Y-128270000D02*
X125486000Y-137424000D01*
%TO.N,A11-SDA2-RX6*%
X90562000Y-121528000D02*
X90562000Y-125640000D01*
X92710000Y-119380000D02*
X90562000Y-121528000D01*
X115622000Y-130810000D02*
X118872000Y-134060000D01*
X111032000Y-130810000D02*
X115622000Y-130810000D01*
X110462000Y-130240000D02*
X111032000Y-130810000D01*
D26*
%TO.N,VBAT*%
X169500000Y-83400000D02*
X170500000Y-84400000D01*
X170500000Y-84400000D02*
X170500000Y-86000000D01*
X158100000Y-83400000D02*
X169500000Y-83400000D01*
X170500000Y-86000000D02*
X170500000Y-87800000D01*
X154565001Y-79865001D02*
X158100000Y-83400000D01*
X142636999Y-79865001D02*
X154565001Y-79865001D01*
X142002000Y-80500000D02*
X142636999Y-79865001D01*
D25*
X178320000Y-87810000D02*
X182760000Y-87810000D01*
X188080000Y-82490000D02*
X188080000Y-78000000D01*
X182760000Y-87810000D02*
X188080000Y-82490000D01*
D24*
%TO.N,D29-TX7*%
X100862000Y-133400000D02*
X100862000Y-137300000D01*
X99862000Y-132400000D02*
X100862000Y-133400000D01*
%TO.N,Button-Up*%
X147100000Y-125780000D02*
X144400000Y-128480000D01*
X147100000Y-117060000D02*
X147100000Y-125780000D01*
X152400000Y-111760000D02*
X147100000Y-117060000D01*
X99900001Y-87279999D02*
X100300000Y-86880000D01*
X99626742Y-87553258D02*
X99900001Y-87279999D01*
X98132000Y-117660000D02*
X99626742Y-116165258D01*
X98132000Y-121060000D02*
X98132000Y-117660000D01*
X99523000Y-122451000D02*
X98132000Y-121060000D01*
X100741000Y-122451000D02*
X99523000Y-122451000D01*
X101610000Y-123320000D02*
X100741000Y-122451000D01*
X101610000Y-134884000D02*
X101610000Y-123320000D01*
X99626742Y-116165258D02*
X99626742Y-87553258D01*
X102616000Y-135890000D02*
X101610000Y-134884000D01*
X197850000Y-89640000D02*
X197850000Y-96140000D01*
X191532000Y-116960000D02*
X190382000Y-118110000D01*
X191532000Y-94168000D02*
X191532000Y-116960000D01*
X192940000Y-92760000D02*
X191532000Y-94168000D01*
X194730000Y-92760000D02*
X192940000Y-92760000D01*
X197850000Y-89640000D02*
X194730000Y-92760000D01*
%TO.N,Button-Down*%
X143742899Y-127137101D02*
X143400000Y-127480000D01*
X146100000Y-124780000D02*
X143742899Y-127137101D01*
X146100000Y-115520000D02*
X146100000Y-124780000D01*
X152400000Y-109220000D02*
X146100000Y-115520000D01*
X193350000Y-105640000D02*
X193350000Y-112140000D01*
X101382000Y-115710000D02*
X101382000Y-100760000D01*
X104140000Y-118468000D02*
X101382000Y-115710000D01*
X104140000Y-133096000D02*
X104140000Y-118468000D01*
%TO.N,Button-Left*%
X158582000Y-107060000D02*
X159282000Y-107760000D01*
X159282000Y-119860000D02*
X159382000Y-119960000D01*
X159282000Y-107760000D02*
X159282000Y-119860000D01*
X143682002Y-115397998D02*
X143682002Y-125660000D01*
X152400000Y-106680000D02*
X143682002Y-115397998D01*
X205850000Y-97640000D02*
X205850000Y-104140000D01*
X205850000Y-113292000D02*
X198492000Y-120650000D01*
X205850000Y-104140000D02*
X205850000Y-113292000D01*
X103006000Y-118934000D02*
X103006000Y-122386000D01*
X100272039Y-116200039D02*
X103006000Y-118934000D01*
X100272039Y-93779961D02*
X100272039Y-116200039D01*
X100862000Y-93190000D02*
X100272039Y-93779961D01*
X179960000Y-119910000D02*
X179220000Y-120650000D01*
X179960000Y-112890000D02*
X179960000Y-119910000D01*
X179060000Y-111990000D02*
X179960000Y-112890000D01*
%TO.N,Button-Right*%
X185350000Y-104140000D02*
X185350000Y-97640000D01*
%TO.N,Button-Select*%
X103082000Y-98470001D02*
X103082000Y-97390001D01*
X103082000Y-97390001D02*
X105291999Y-95180001D01*
X105291999Y-95180001D02*
X109002001Y-95180001D01*
X109207000Y-95385000D02*
X111582000Y-97760000D01*
X109002001Y-95180001D02*
X109207000Y-95385000D01*
X92710000Y-96520000D02*
X92750000Y-96560000D01*
X92750000Y-96560000D02*
X95282000Y-96560000D01*
X95282000Y-96560000D02*
X97182000Y-98460000D01*
X97182000Y-98460000D02*
X98582000Y-98460000D01*
X76560000Y-130690000D02*
X72860000Y-134390000D01*
X76560000Y-106590000D02*
X76560000Y-130690000D01*
X89290000Y-96520000D02*
X89060000Y-96290000D01*
X92710000Y-96520000D02*
X89290000Y-96520000D01*
X73960000Y-103990000D02*
X76560000Y-106590000D01*
X73960000Y-93290000D02*
X73960000Y-103990000D01*
%TO.N,A0-TX3*%
X110382000Y-107010000D02*
X108172000Y-109220000D01*
X108172000Y-109220000D02*
X107950000Y-109220000D01*
X110382000Y-104810000D02*
X110382000Y-107010000D01*
X118112000Y-103890000D02*
X111302000Y-103890000D01*
X111302000Y-103890000D02*
X110382000Y-104810000D01*
X118982000Y-104760000D02*
X118112000Y-103890000D01*
X141082000Y-107160000D02*
X140482000Y-106560000D01*
X141082000Y-135112000D02*
X141082000Y-107160000D01*
X143002000Y-137032000D02*
X141082000Y-135112000D01*
X143002000Y-140440000D02*
X143002000Y-137032000D01*
%TO.N,A1-RX3*%
X138182000Y-110860000D02*
X138682000Y-111360000D01*
X138682000Y-111360000D02*
X138682000Y-126480010D01*
X145542000Y-129500000D02*
X146682000Y-128360000D01*
X145542000Y-140440000D02*
X145542000Y-129500000D01*
D27*
%TO.N,USBHost_5V*%
X103822000Y-84980000D02*
X105162000Y-83640000D01*
X101100000Y-84980000D02*
X103822000Y-84980000D01*
D26*
X116204000Y-86870000D02*
X115374000Y-86040000D01*
X115374000Y-84210000D02*
X115344000Y-84180000D01*
X115374000Y-86040000D02*
X115374000Y-84210000D01*
X121704000Y-86870000D02*
X116204000Y-86870000D01*
X123190000Y-88356000D02*
X121704000Y-86870000D01*
X123190000Y-88900000D02*
X123190000Y-88356000D01*
D24*
%TO.N,A2-SCL1-RX4*%
X85060000Y-139462000D02*
X84082000Y-140440000D01*
X85060000Y-107242000D02*
X85060000Y-139462000D01*
X88062000Y-104240000D02*
X85060000Y-107242000D01*
%TO.N,A3-SDA1-TX4*%
X83360000Y-138622000D02*
X81542000Y-140440000D01*
X83360000Y-106342000D02*
X83360000Y-138622000D01*
X87062000Y-102640000D02*
X83360000Y-106342000D01*
D26*
%TO.N,+3V3*%
X110902000Y-86772000D02*
X107950000Y-83820000D01*
X110902000Y-89700000D02*
X110902000Y-86772000D01*
D24*
X141002000Y-105500000D02*
X141002000Y-90300000D01*
X142702000Y-107200000D02*
X141002000Y-105500000D01*
D26*
X86622000Y-120388000D02*
X92710000Y-114300000D01*
X86622000Y-140440000D02*
X86622000Y-120388000D01*
D24*
%TO.N,Net-(Q2-Pad1)*%
X189820000Y-136990000D02*
X192530000Y-139700000D01*
X183850000Y-136990000D02*
X189820000Y-136990000D01*
X183060000Y-136200000D02*
X183850000Y-136990000D01*
X183060000Y-98280000D02*
X183060000Y-136200000D01*
X174780000Y-90000000D02*
X183060000Y-98280000D01*
%TO.N,D8-TX2*%
X90112000Y-104198000D02*
X92710000Y-101600000D01*
X90112000Y-114190000D02*
X90112000Y-104198000D01*
X148962000Y-120278000D02*
X148962000Y-120340000D01*
X152400000Y-116840000D02*
X148962000Y-120278000D01*
X117130000Y-118900000D02*
X116130000Y-117900000D01*
X116130000Y-117150000D02*
X114300000Y-115320000D01*
X116130000Y-117900000D02*
X116130000Y-117150000D01*
X112220000Y-117400000D02*
X110630000Y-117400000D01*
X114300000Y-115320000D02*
X112220000Y-117400000D01*
%TO.N,D9*%
X94762000Y-106192000D02*
X94762000Y-114090000D01*
X92710000Y-104140000D02*
X94762000Y-106192000D01*
X105662000Y-114340000D02*
X106892000Y-115570000D01*
X111510000Y-115570000D02*
X114300000Y-112780000D01*
X110800000Y-115570000D02*
X111510000Y-115570000D01*
X106892000Y-115570000D02*
X110800000Y-115570000D01*
%TO.N,Button-B*%
X126482000Y-135680000D02*
X126502000Y-135700000D01*
X126482000Y-107260000D02*
X126482000Y-135680000D01*
X56858000Y-114640000D02*
X56858000Y-108140000D01*
X71760000Y-130990000D02*
X72860000Y-132090000D01*
X71760000Y-109290000D02*
X71760000Y-130990000D01*
X71760000Y-99090000D02*
X71860000Y-98990000D01*
X71760000Y-109290000D02*
X71760000Y-99090000D01*
%TO.N,Button-Y*%
X98482000Y-105060000D02*
X98382000Y-105160000D01*
X98482000Y-102860000D02*
X98482000Y-105060000D01*
X68834000Y-97640000D02*
X68834000Y-104140000D01*
X81610000Y-105500000D02*
X81530000Y-105420000D01*
X81610000Y-112090000D02*
X81610000Y-105500000D01*
X81610000Y-130840000D02*
X80836000Y-131614000D01*
X81610000Y-112090000D02*
X81610000Y-130840000D01*
D25*
%TO.N,Teensy-VUSB*%
X118579000Y-80280000D02*
X120944000Y-80280000D01*
X115409000Y-77110000D02*
X118579000Y-80280000D01*
X106544000Y-77110000D02*
X115409000Y-77110000D01*
X105410000Y-78244000D02*
X106544000Y-77110000D01*
X105410000Y-81280000D02*
X105410000Y-78244000D01*
D24*
%TO.N,Net-(D1-Pad1)*%
X169400000Y-85100000D02*
X169500000Y-85100000D01*
X167628002Y-86871998D02*
X169400000Y-85100000D01*
X166300000Y-86871998D02*
X167628002Y-86871998D01*
X164771998Y-88400000D02*
X166300000Y-86871998D01*
D26*
%TO.N,Net-(R5-Pad2)*%
X154532000Y-84360000D02*
X152732004Y-84360000D01*
X152732004Y-84360000D02*
X152532004Y-84560000D01*
%TD*%
M02*
