%TF.GenerationSoftware,KiCad,Pcbnew,5.1.9*%
%TF.CreationDate,2021-01-24T16:08:06-08:00*%
%TF.ProjectId,TeensyDisplayShield,5465656e-7379-4446-9973-706c61795368,rev?*%
%TF.SameCoordinates,Original*%
%TF.FileFunction,Legend,Top*%
%TF.FilePolarity,Positive*%
%FSLAX46Y46*%
G04 Gerber Fmt 4.6, Leading zero omitted, Abs format (unit mm)*
G04 Created by KiCad (PCBNEW 5.1.9) date 2021-01-24 16:08:06*
%MOMM*%
%LPD*%
G01*
G04 APERTURE LIST*
%ADD10C,0.250000*%
%ADD11C,0.150000*%
%ADD12C,0.500000*%
%ADD13C,0.120000*%
%ADD14C,0.100000*%
G04 APERTURE END LIST*
D10*
X166243047Y-81351428D02*
X167004952Y-81351428D01*
X166624000Y-81732380D02*
X166624000Y-80970476D01*
X153035047Y-89225428D02*
X153796952Y-89225428D01*
X153416000Y-89606380D02*
X153416000Y-88844476D01*
X137033047Y-86177428D02*
X137794952Y-86177428D01*
X137414000Y-86558380D02*
X137414000Y-85796476D01*
D11*
X166530000Y-89900000D02*
X166530000Y-93200000D01*
X167930000Y-84300000D02*
X169730000Y-84300000D01*
D12*
X173836000Y-88138000D02*
G75*
G03*
X173836000Y-88138000I-100000J0D01*
G01*
D11*
X158852738Y-77452380D02*
X159186071Y-78452380D01*
X159519404Y-77452380D01*
X159852738Y-77452380D02*
X159852738Y-78261904D01*
X159900357Y-78357142D01*
X159947976Y-78404761D01*
X160043214Y-78452380D01*
X160233690Y-78452380D01*
X160328928Y-78404761D01*
X160376547Y-78357142D01*
X160424166Y-78261904D01*
X160424166Y-77452380D01*
X160852738Y-78404761D02*
X160995595Y-78452380D01*
X161233690Y-78452380D01*
X161328928Y-78404761D01*
X161376547Y-78357142D01*
X161424166Y-78261904D01*
X161424166Y-78166666D01*
X161376547Y-78071428D01*
X161328928Y-78023809D01*
X161233690Y-77976190D01*
X161043214Y-77928571D01*
X160947976Y-77880952D01*
X160900357Y-77833333D01*
X160852738Y-77738095D01*
X160852738Y-77642857D01*
X160900357Y-77547619D01*
X160947976Y-77500000D01*
X161043214Y-77452380D01*
X161281309Y-77452380D01*
X161424166Y-77500000D01*
X162186071Y-77928571D02*
X162328928Y-77976190D01*
X162376547Y-78023809D01*
X162424166Y-78119047D01*
X162424166Y-78261904D01*
X162376547Y-78357142D01*
X162328928Y-78404761D01*
X162233690Y-78452380D01*
X161852738Y-78452380D01*
X161852738Y-77452380D01*
X162186071Y-77452380D01*
X162281309Y-77500000D01*
X162328928Y-77547619D01*
X162376547Y-77642857D01*
X162376547Y-77738095D01*
X162328928Y-77833333D01*
X162281309Y-77880952D01*
X162186071Y-77928571D01*
X161852738Y-77928571D01*
X193707619Y-80716785D02*
X193707619Y-80240595D01*
X193231428Y-80192976D01*
X193279047Y-80240595D01*
X193326666Y-80335833D01*
X193326666Y-80573928D01*
X193279047Y-80669166D01*
X193231428Y-80716785D01*
X193136190Y-80764404D01*
X192898095Y-80764404D01*
X192802857Y-80716785D01*
X192755238Y-80669166D01*
X192707619Y-80573928D01*
X192707619Y-80335833D01*
X192755238Y-80240595D01*
X192802857Y-80192976D01*
X193374285Y-81097738D02*
X192707619Y-81335833D01*
X193374285Y-81573928D01*
X78680000Y-94060595D02*
X78632380Y-94155833D01*
X78632380Y-94298690D01*
X78680000Y-94441547D01*
X78775238Y-94536785D01*
X78870476Y-94584404D01*
X79060952Y-94632023D01*
X79203809Y-94632023D01*
X79394285Y-94584404D01*
X79489523Y-94536785D01*
X79584761Y-94441547D01*
X79632380Y-94298690D01*
X79632380Y-94203452D01*
X79584761Y-94060595D01*
X79537142Y-94012976D01*
X79203809Y-94012976D01*
X79203809Y-94203452D01*
X79632380Y-93584404D02*
X78632380Y-93584404D01*
X79632380Y-93012976D01*
X78632380Y-93012976D01*
X79632380Y-92536785D02*
X78632380Y-92536785D01*
X78632380Y-92298690D01*
X78680000Y-92155833D01*
X78775238Y-92060595D01*
X78870476Y-92012976D01*
X79060952Y-91965357D01*
X79203809Y-91965357D01*
X79394285Y-92012976D01*
X79489523Y-92060595D01*
X79584761Y-92155833D01*
X79632380Y-92298690D01*
X79632380Y-92536785D01*
X77820000Y-97790000D02*
X77820000Y-108010000D01*
X174000000Y-105360000D02*
X174000000Y-115580000D01*
X172220000Y-104296595D02*
X172172380Y-104391833D01*
X172172380Y-104534690D01*
X172220000Y-104677547D01*
X172315238Y-104772785D01*
X172410476Y-104820404D01*
X172600952Y-104868023D01*
X172743809Y-104868023D01*
X172934285Y-104820404D01*
X173029523Y-104772785D01*
X173124761Y-104677547D01*
X173172380Y-104534690D01*
X173172380Y-104439452D01*
X173124761Y-104296595D01*
X173077142Y-104248976D01*
X172743809Y-104248976D01*
X172743809Y-104439452D01*
X173172380Y-103820404D02*
X172172380Y-103820404D01*
X173172380Y-103248976D01*
X172172380Y-103248976D01*
X173172380Y-102772785D02*
X172172380Y-102772785D01*
X172172380Y-102534690D01*
X172220000Y-102391833D01*
X172315238Y-102296595D01*
X172410476Y-102248976D01*
X172600952Y-102201357D01*
X172743809Y-102201357D01*
X172934285Y-102248976D01*
X173029523Y-102296595D01*
X173124761Y-102391833D01*
X173172380Y-102534690D01*
X173172380Y-102772785D01*
X70403928Y-107084761D02*
X70546785Y-107132380D01*
X70784880Y-107132380D01*
X70880119Y-107084761D01*
X70927738Y-107037142D01*
X70975357Y-106941904D01*
X70975357Y-106846666D01*
X70927738Y-106751428D01*
X70880119Y-106703809D01*
X70784880Y-106656190D01*
X70594404Y-106608571D01*
X70499166Y-106560952D01*
X70451547Y-106513333D01*
X70403928Y-106418095D01*
X70403928Y-106322857D01*
X70451547Y-106227619D01*
X70499166Y-106180000D01*
X70594404Y-106132380D01*
X70832500Y-106132380D01*
X70975357Y-106180000D01*
X71784880Y-107084761D02*
X71689642Y-107132380D01*
X71499166Y-107132380D01*
X71403928Y-107084761D01*
X71356309Y-106989523D01*
X71356309Y-106608571D01*
X71403928Y-106513333D01*
X71499166Y-106465714D01*
X71689642Y-106465714D01*
X71784880Y-106513333D01*
X71832500Y-106608571D01*
X71832500Y-106703809D01*
X71356309Y-106799047D01*
X72403928Y-107132380D02*
X72308690Y-107084761D01*
X72261071Y-106989523D01*
X72261071Y-106132380D01*
X73165833Y-107084761D02*
X73070595Y-107132380D01*
X72880119Y-107132380D01*
X72784880Y-107084761D01*
X72737261Y-106989523D01*
X72737261Y-106608571D01*
X72784880Y-106513333D01*
X72880119Y-106465714D01*
X73070595Y-106465714D01*
X73165833Y-106513333D01*
X73213452Y-106608571D01*
X73213452Y-106703809D01*
X72737261Y-106799047D01*
X74070595Y-107084761D02*
X73975357Y-107132380D01*
X73784880Y-107132380D01*
X73689642Y-107084761D01*
X73642023Y-107037142D01*
X73594404Y-106941904D01*
X73594404Y-106656190D01*
X73642023Y-106560952D01*
X73689642Y-106513333D01*
X73784880Y-106465714D01*
X73975357Y-106465714D01*
X74070595Y-106513333D01*
X74356309Y-106465714D02*
X74737261Y-106465714D01*
X74499166Y-106132380D02*
X74499166Y-106989523D01*
X74546785Y-107084761D01*
X74642023Y-107132380D01*
X74737261Y-107132380D01*
X74403928Y-104116190D02*
X74403928Y-104592380D01*
X74070595Y-103592380D02*
X74403928Y-104116190D01*
X74737261Y-103592380D01*
X74022976Y-101052380D02*
X74689642Y-102052380D01*
X74689642Y-101052380D02*
X74022976Y-102052380D01*
X74403928Y-98988571D02*
X74546785Y-99036190D01*
X74594404Y-99083809D01*
X74642023Y-99179047D01*
X74642023Y-99321904D01*
X74594404Y-99417142D01*
X74546785Y-99464761D01*
X74451547Y-99512380D01*
X74070595Y-99512380D01*
X74070595Y-98512380D01*
X74403928Y-98512380D01*
X74499166Y-98560000D01*
X74546785Y-98607619D01*
X74594404Y-98702857D01*
X74594404Y-98798095D01*
X74546785Y-98893333D01*
X74499166Y-98940952D01*
X74403928Y-98988571D01*
X74070595Y-98988571D01*
X74165833Y-96686666D02*
X74642023Y-96686666D01*
X74070595Y-96972380D02*
X74403928Y-95972380D01*
X74737261Y-96972380D01*
X109220000Y-119380000D02*
X110490000Y-120650000D01*
X176925595Y-116292380D02*
X176925595Y-117101904D01*
X176973214Y-117197142D01*
X177020833Y-117244761D01*
X177116071Y-117292380D01*
X177306547Y-117292380D01*
X177401785Y-117244761D01*
X177449404Y-117197142D01*
X177497023Y-117101904D01*
X177497023Y-116292380D01*
X177973214Y-117292380D02*
X177973214Y-116292380D01*
X178354166Y-116292380D01*
X178449404Y-116340000D01*
X178497023Y-116387619D01*
X178544642Y-116482857D01*
X178544642Y-116625714D01*
X178497023Y-116720952D01*
X178449404Y-116768571D01*
X178354166Y-116816190D01*
X177973214Y-116816190D01*
X164070357Y-108672380D02*
X164689404Y-108672380D01*
X164356071Y-109053333D01*
X164498928Y-109053333D01*
X164594166Y-109100952D01*
X164641785Y-109148571D01*
X164689404Y-109243809D01*
X164689404Y-109481904D01*
X164641785Y-109577142D01*
X164594166Y-109624761D01*
X164498928Y-109672380D01*
X164213214Y-109672380D01*
X164117976Y-109624761D01*
X164070357Y-109577142D01*
X165117976Y-109577142D02*
X165165595Y-109624761D01*
X165117976Y-109672380D01*
X165070357Y-109624761D01*
X165117976Y-109577142D01*
X165117976Y-109672380D01*
X165498928Y-108672380D02*
X166117976Y-108672380D01*
X165784642Y-109053333D01*
X165927500Y-109053333D01*
X166022738Y-109100952D01*
X166070357Y-109148571D01*
X166117976Y-109243809D01*
X166117976Y-109481904D01*
X166070357Y-109577142D01*
X166022738Y-109624761D01*
X165927500Y-109672380D01*
X165641785Y-109672380D01*
X165546547Y-109624761D01*
X165498928Y-109577142D01*
X166451309Y-109005714D02*
X166689404Y-109672380D01*
X166927500Y-109005714D01*
X176865595Y-114752380D02*
X176865595Y-113752380D01*
X177103690Y-113752380D01*
X177246547Y-113800000D01*
X177341785Y-113895238D01*
X177389404Y-113990476D01*
X177437023Y-114180952D01*
X177437023Y-114323809D01*
X177389404Y-114514285D01*
X177341785Y-114609523D01*
X177246547Y-114704761D01*
X177103690Y-114752380D01*
X176865595Y-114752380D01*
X178056071Y-113752380D02*
X178246547Y-113752380D01*
X178341785Y-113800000D01*
X178437023Y-113895238D01*
X178484642Y-114085714D01*
X178484642Y-114419047D01*
X178437023Y-114609523D01*
X178341785Y-114704761D01*
X178246547Y-114752380D01*
X178056071Y-114752380D01*
X177960833Y-114704761D01*
X177865595Y-114609523D01*
X177817976Y-114419047D01*
X177817976Y-114085714D01*
X177865595Y-113895238D01*
X177960833Y-113800000D01*
X178056071Y-113752380D01*
X178817976Y-113752380D02*
X179056071Y-114752380D01*
X179246547Y-114038095D01*
X179437023Y-114752380D01*
X179675119Y-113752380D01*
X180056071Y-114752380D02*
X180056071Y-113752380D01*
X180627500Y-114752380D01*
X180627500Y-113752380D01*
X176817976Y-107084761D02*
X176960833Y-107132380D01*
X177198928Y-107132380D01*
X177294166Y-107084761D01*
X177341785Y-107037142D01*
X177389404Y-106941904D01*
X177389404Y-106846666D01*
X177341785Y-106751428D01*
X177294166Y-106703809D01*
X177198928Y-106656190D01*
X177008452Y-106608571D01*
X176913214Y-106560952D01*
X176865595Y-106513333D01*
X176817976Y-106418095D01*
X176817976Y-106322857D01*
X176865595Y-106227619D01*
X176913214Y-106180000D01*
X177008452Y-106132380D01*
X177246547Y-106132380D01*
X177389404Y-106180000D01*
X177675119Y-106465714D02*
X178056071Y-106465714D01*
X177817976Y-106132380D02*
X177817976Y-106989523D01*
X177865595Y-107084761D01*
X177960833Y-107132380D01*
X178056071Y-107132380D01*
X178817976Y-107132380D02*
X178817976Y-106608571D01*
X178770357Y-106513333D01*
X178675119Y-106465714D01*
X178484642Y-106465714D01*
X178389404Y-106513333D01*
X178817976Y-107084761D02*
X178722738Y-107132380D01*
X178484642Y-107132380D01*
X178389404Y-107084761D01*
X178341785Y-106989523D01*
X178341785Y-106894285D01*
X178389404Y-106799047D01*
X178484642Y-106751428D01*
X178722738Y-106751428D01*
X178817976Y-106703809D01*
X179294166Y-107132380D02*
X179294166Y-106465714D01*
X179294166Y-106656190D02*
X179341785Y-106560952D01*
X179389404Y-106513333D01*
X179484642Y-106465714D01*
X179579880Y-106465714D01*
X179770357Y-106465714D02*
X180151309Y-106465714D01*
X179913214Y-106132380D02*
X179913214Y-106989523D01*
X179960833Y-107084761D01*
X180056071Y-107132380D01*
X180151309Y-107132380D01*
X177437023Y-109672380D02*
X177103690Y-109196190D01*
X176865595Y-109672380D02*
X176865595Y-108672380D01*
X177246547Y-108672380D01*
X177341785Y-108720000D01*
X177389404Y-108767619D01*
X177437023Y-108862857D01*
X177437023Y-109005714D01*
X177389404Y-109100952D01*
X177341785Y-109148571D01*
X177246547Y-109196190D01*
X176865595Y-109196190D01*
X177865595Y-109672380D02*
X177865595Y-108672380D01*
X178865595Y-108720000D02*
X178770357Y-108672380D01*
X178627500Y-108672380D01*
X178484642Y-108720000D01*
X178389404Y-108815238D01*
X178341785Y-108910476D01*
X178294166Y-109100952D01*
X178294166Y-109243809D01*
X178341785Y-109434285D01*
X178389404Y-109529523D01*
X178484642Y-109624761D01*
X178627500Y-109672380D01*
X178722738Y-109672380D01*
X178865595Y-109624761D01*
X178913214Y-109577142D01*
X178913214Y-109243809D01*
X178722738Y-109243809D01*
X179341785Y-109672380D02*
X179341785Y-108672380D01*
X179341785Y-109148571D02*
X179913214Y-109148571D01*
X179913214Y-109672380D02*
X179913214Y-108672380D01*
X180246547Y-108672380D02*
X180817976Y-108672380D01*
X180532261Y-109672380D02*
X180532261Y-108672380D01*
X177341785Y-112212380D02*
X176865595Y-112212380D01*
X176865595Y-111212380D01*
X177675119Y-111688571D02*
X178008452Y-111688571D01*
X178151309Y-112212380D02*
X177675119Y-112212380D01*
X177675119Y-111212380D01*
X178151309Y-111212380D01*
X178913214Y-111688571D02*
X178579880Y-111688571D01*
X178579880Y-112212380D02*
X178579880Y-111212380D01*
X179056071Y-111212380D01*
X179294166Y-111212380D02*
X179865595Y-111212380D01*
X179579880Y-112212380D02*
X179579880Y-111212380D01*
X188607619Y-80097738D02*
X187607619Y-80431071D01*
X188607619Y-80764404D01*
X188131428Y-81431071D02*
X188083809Y-81573928D01*
X188036190Y-81621547D01*
X187940952Y-81669166D01*
X187798095Y-81669166D01*
X187702857Y-81621547D01*
X187655238Y-81573928D01*
X187607619Y-81478690D01*
X187607619Y-81097738D01*
X188607619Y-81097738D01*
X188607619Y-81431071D01*
X188560000Y-81526309D01*
X188512380Y-81573928D01*
X188417142Y-81621547D01*
X188321904Y-81621547D01*
X188226666Y-81573928D01*
X188179047Y-81526309D01*
X188131428Y-81431071D01*
X188131428Y-81097738D01*
X187893333Y-82050119D02*
X187893333Y-82526309D01*
X187607619Y-81954880D02*
X188607619Y-82288214D01*
X187607619Y-82621547D01*
X188607619Y-82812023D02*
X188607619Y-83383452D01*
X187607619Y-83097738D02*
X188607619Y-83097738D01*
X191147619Y-80716785D02*
X191147619Y-80240595D01*
X190671428Y-80192976D01*
X190719047Y-80240595D01*
X190766666Y-80335833D01*
X190766666Y-80573928D01*
X190719047Y-80669166D01*
X190671428Y-80716785D01*
X190576190Y-80764404D01*
X190338095Y-80764404D01*
X190242857Y-80716785D01*
X190195238Y-80669166D01*
X190147619Y-80573928D01*
X190147619Y-80335833D01*
X190195238Y-80240595D01*
X190242857Y-80192976D01*
X190814285Y-81097738D02*
X190147619Y-81335833D01*
X190814285Y-81573928D01*
X196200000Y-80764404D02*
X196247619Y-80669166D01*
X196247619Y-80526309D01*
X196200000Y-80383452D01*
X196104761Y-80288214D01*
X196009523Y-80240595D01*
X195819047Y-80192976D01*
X195676190Y-80192976D01*
X195485714Y-80240595D01*
X195390476Y-80288214D01*
X195295238Y-80383452D01*
X195247619Y-80526309D01*
X195247619Y-80621547D01*
X195295238Y-80764404D01*
X195342857Y-80812023D01*
X195676190Y-80812023D01*
X195676190Y-80621547D01*
X195247619Y-81240595D02*
X196247619Y-81240595D01*
X195247619Y-81812023D01*
X196247619Y-81812023D01*
X195247619Y-82288214D02*
X196247619Y-82288214D01*
X196247619Y-82526309D01*
X196200000Y-82669166D01*
X196104761Y-82764404D01*
X196009523Y-82812023D01*
X195819047Y-82859642D01*
X195676190Y-82859642D01*
X195485714Y-82812023D01*
X195390476Y-82764404D01*
X195295238Y-82669166D01*
X195247619Y-82526309D01*
X195247619Y-82288214D01*
X129396976Y-101052380D02*
X130063642Y-102052380D01*
X130063642Y-101052380D02*
X129396976Y-102052380D01*
X129539833Y-96686666D02*
X130016023Y-96686666D01*
X129444595Y-96972380D02*
X129777928Y-95972380D01*
X130111261Y-96972380D01*
X129777928Y-104116190D02*
X129777928Y-104592380D01*
X129444595Y-103592380D02*
X129777928Y-104116190D01*
X130111261Y-103592380D01*
X129777928Y-106608571D02*
X129920785Y-106656190D01*
X129968404Y-106703809D01*
X130016023Y-106799047D01*
X130016023Y-106941904D01*
X129968404Y-107037142D01*
X129920785Y-107084761D01*
X129825547Y-107132380D01*
X129444595Y-107132380D01*
X129444595Y-106132380D01*
X129777928Y-106132380D01*
X129873166Y-106180000D01*
X129920785Y-106227619D01*
X129968404Y-106322857D01*
X129968404Y-106418095D01*
X129920785Y-106513333D01*
X129873166Y-106560952D01*
X129777928Y-106608571D01*
X129444595Y-106608571D01*
X123196976Y-99002857D02*
X123311261Y-99040952D01*
X123349357Y-99079047D01*
X123387452Y-99155238D01*
X123387452Y-99269523D01*
X123349357Y-99345714D01*
X123311261Y-99383809D01*
X123235071Y-99421904D01*
X122930309Y-99421904D01*
X122930309Y-98621904D01*
X123196976Y-98621904D01*
X123273166Y-98660000D01*
X123311261Y-98698095D01*
X123349357Y-98774285D01*
X123349357Y-98850476D01*
X123311261Y-98926666D01*
X123273166Y-98964761D01*
X123196976Y-99002857D01*
X122930309Y-99002857D01*
X124073166Y-99421904D02*
X124073166Y-99002857D01*
X124035071Y-98926666D01*
X123958880Y-98888571D01*
X123806500Y-98888571D01*
X123730309Y-98926666D01*
X124073166Y-99383809D02*
X123996976Y-99421904D01*
X123806500Y-99421904D01*
X123730309Y-99383809D01*
X123692214Y-99307619D01*
X123692214Y-99231428D01*
X123730309Y-99155238D01*
X123806500Y-99117142D01*
X123996976Y-99117142D01*
X124073166Y-99079047D01*
X124339833Y-98888571D02*
X124644595Y-98888571D01*
X124454119Y-98621904D02*
X124454119Y-99307619D01*
X124492214Y-99383809D01*
X124568404Y-99421904D01*
X124644595Y-99421904D01*
X124796976Y-98888571D02*
X125101738Y-98888571D01*
X124911261Y-98621904D02*
X124911261Y-99307619D01*
X124949357Y-99383809D01*
X125025547Y-99421904D01*
X125101738Y-99421904D01*
X125977928Y-99421904D02*
X125977928Y-98621904D01*
X126244595Y-99193333D01*
X126511261Y-98621904D01*
X126511261Y-99421904D01*
X127006500Y-99421904D02*
X126930309Y-99383809D01*
X126892214Y-99345714D01*
X126854119Y-99269523D01*
X126854119Y-99040952D01*
X126892214Y-98964761D01*
X126930309Y-98926666D01*
X127006500Y-98888571D01*
X127120785Y-98888571D01*
X127196976Y-98926666D01*
X127235071Y-98964761D01*
X127273166Y-99040952D01*
X127273166Y-99269523D01*
X127235071Y-99345714D01*
X127196976Y-99383809D01*
X127120785Y-99421904D01*
X127006500Y-99421904D01*
X127616023Y-98888571D02*
X127616023Y-99421904D01*
X127616023Y-98964761D02*
X127654119Y-98926666D01*
X127730309Y-98888571D01*
X127844595Y-98888571D01*
X127920785Y-98926666D01*
X127958880Y-99002857D01*
X127958880Y-99421904D01*
X128339833Y-99421904D02*
X128339833Y-98888571D01*
X128339833Y-98621904D02*
X128301738Y-98660000D01*
X128339833Y-98698095D01*
X128377928Y-98660000D01*
X128339833Y-98621904D01*
X128339833Y-98698095D01*
X128606500Y-98888571D02*
X128911261Y-98888571D01*
X128720785Y-98621904D02*
X128720785Y-99307619D01*
X128758880Y-99383809D01*
X128835071Y-99421904D01*
X128911261Y-99421904D01*
X129292214Y-99421904D02*
X129216023Y-99383809D01*
X129177928Y-99345714D01*
X129139833Y-99269523D01*
X129139833Y-99040952D01*
X129177928Y-98964761D01*
X129216023Y-98926666D01*
X129292214Y-98888571D01*
X129406500Y-98888571D01*
X129482690Y-98926666D01*
X129520785Y-98964761D01*
X129558880Y-99040952D01*
X129558880Y-99269523D01*
X129520785Y-99345714D01*
X129482690Y-99383809D01*
X129406500Y-99421904D01*
X129292214Y-99421904D01*
X129901738Y-99421904D02*
X129901738Y-98888571D01*
X129901738Y-99040952D02*
X129939833Y-98964761D01*
X129977928Y-98926666D01*
X130054119Y-98888571D01*
X130130309Y-98888571D01*
X155039404Y-116340000D02*
X154944166Y-116292380D01*
X154801309Y-116292380D01*
X154658452Y-116340000D01*
X154563214Y-116435238D01*
X154515595Y-116530476D01*
X154467976Y-116720952D01*
X154467976Y-116863809D01*
X154515595Y-117054285D01*
X154563214Y-117149523D01*
X154658452Y-117244761D01*
X154801309Y-117292380D01*
X154896547Y-117292380D01*
X155039404Y-117244761D01*
X155087023Y-117197142D01*
X155087023Y-116863809D01*
X154896547Y-116863809D01*
X155515595Y-117292380D02*
X155515595Y-116292380D01*
X155896547Y-116292380D01*
X155991785Y-116340000D01*
X156039404Y-116387619D01*
X156087023Y-116482857D01*
X156087023Y-116625714D01*
X156039404Y-116720952D01*
X155991785Y-116768571D01*
X155896547Y-116816190D01*
X155515595Y-116816190D01*
X156515595Y-116292380D02*
X156515595Y-117101904D01*
X156563214Y-117197142D01*
X156610833Y-117244761D01*
X156706071Y-117292380D01*
X156896547Y-117292380D01*
X156991785Y-117244761D01*
X157039404Y-117197142D01*
X157087023Y-117101904D01*
X157087023Y-116292380D01*
X158896547Y-117197142D02*
X158848928Y-117244761D01*
X158706071Y-117292380D01*
X158610833Y-117292380D01*
X158467976Y-117244761D01*
X158372738Y-117149523D01*
X158325119Y-117054285D01*
X158277500Y-116863809D01*
X158277500Y-116720952D01*
X158325119Y-116530476D01*
X158372738Y-116435238D01*
X158467976Y-116340000D01*
X158610833Y-116292380D01*
X158706071Y-116292380D01*
X158848928Y-116340000D01*
X158896547Y-116387619D01*
X159277500Y-117244761D02*
X159420357Y-117292380D01*
X159658452Y-117292380D01*
X159753690Y-117244761D01*
X159801309Y-117197142D01*
X159848928Y-117101904D01*
X159848928Y-117006666D01*
X159801309Y-116911428D01*
X159753690Y-116863809D01*
X159658452Y-116816190D01*
X159467976Y-116768571D01*
X159372738Y-116720952D01*
X159325119Y-116673333D01*
X159277500Y-116578095D01*
X159277500Y-116482857D01*
X159325119Y-116387619D01*
X159372738Y-116340000D01*
X159467976Y-116292380D01*
X159706071Y-116292380D01*
X159848928Y-116340000D01*
X154467976Y-114704761D02*
X154610833Y-114752380D01*
X154848928Y-114752380D01*
X154944166Y-114704761D01*
X154991785Y-114657142D01*
X155039404Y-114561904D01*
X155039404Y-114466666D01*
X154991785Y-114371428D01*
X154944166Y-114323809D01*
X154848928Y-114276190D01*
X154658452Y-114228571D01*
X154563214Y-114180952D01*
X154515595Y-114133333D01*
X154467976Y-114038095D01*
X154467976Y-113942857D01*
X154515595Y-113847619D01*
X154563214Y-113800000D01*
X154658452Y-113752380D01*
X154896547Y-113752380D01*
X155039404Y-113800000D01*
X155467976Y-114752380D02*
X155467976Y-113752380D01*
X155706071Y-113752380D01*
X155848928Y-113800000D01*
X155944166Y-113895238D01*
X155991785Y-113990476D01*
X156039404Y-114180952D01*
X156039404Y-114323809D01*
X155991785Y-114514285D01*
X155944166Y-114609523D01*
X155848928Y-114704761D01*
X155706071Y-114752380D01*
X155467976Y-114752380D01*
X157801309Y-114657142D02*
X157753690Y-114704761D01*
X157610833Y-114752380D01*
X157515595Y-114752380D01*
X157372738Y-114704761D01*
X157277500Y-114609523D01*
X157229880Y-114514285D01*
X157182261Y-114323809D01*
X157182261Y-114180952D01*
X157229880Y-113990476D01*
X157277500Y-113895238D01*
X157372738Y-113800000D01*
X157515595Y-113752380D01*
X157610833Y-113752380D01*
X157753690Y-113800000D01*
X157801309Y-113847619D01*
X158182261Y-114704761D02*
X158325119Y-114752380D01*
X158563214Y-114752380D01*
X158658452Y-114704761D01*
X158706071Y-114657142D01*
X158753690Y-114561904D01*
X158753690Y-114466666D01*
X158706071Y-114371428D01*
X158658452Y-114323809D01*
X158563214Y-114276190D01*
X158372738Y-114228571D01*
X158277500Y-114180952D01*
X158229880Y-114133333D01*
X158182261Y-114038095D01*
X158182261Y-113942857D01*
X158229880Y-113847619D01*
X158277500Y-113800000D01*
X158372738Y-113752380D01*
X158610833Y-113752380D01*
X158753690Y-113800000D01*
X84820690Y-109624761D02*
X84963547Y-109672380D01*
X85201642Y-109672380D01*
X85296880Y-109624761D01*
X85344500Y-109577142D01*
X85392119Y-109481904D01*
X85392119Y-109386666D01*
X85344500Y-109291428D01*
X85296880Y-109243809D01*
X85201642Y-109196190D01*
X85011166Y-109148571D01*
X84915928Y-109100952D01*
X84868309Y-109053333D01*
X84820690Y-108958095D01*
X84820690Y-108862857D01*
X84868309Y-108767619D01*
X84915928Y-108720000D01*
X85011166Y-108672380D01*
X85249261Y-108672380D01*
X85392119Y-108720000D01*
X85820690Y-109672380D02*
X85820690Y-108672380D01*
X86201642Y-108672380D01*
X86296880Y-108720000D01*
X86344500Y-108767619D01*
X86392119Y-108862857D01*
X86392119Y-109005714D01*
X86344500Y-109100952D01*
X86296880Y-109148571D01*
X86201642Y-109196190D01*
X85820690Y-109196190D01*
X86820690Y-109672380D02*
X86820690Y-108672380D01*
X88630214Y-109577142D02*
X88582595Y-109624761D01*
X88439738Y-109672380D01*
X88344500Y-109672380D01*
X88201642Y-109624761D01*
X88106404Y-109529523D01*
X88058785Y-109434285D01*
X88011166Y-109243809D01*
X88011166Y-109100952D01*
X88058785Y-108910476D01*
X88106404Y-108815238D01*
X88201642Y-108720000D01*
X88344500Y-108672380D01*
X88439738Y-108672380D01*
X88582595Y-108720000D01*
X88630214Y-108767619D01*
X89249261Y-108672380D02*
X89439738Y-108672380D01*
X89534976Y-108720000D01*
X89630214Y-108815238D01*
X89677833Y-109005714D01*
X89677833Y-109339047D01*
X89630214Y-109529523D01*
X89534976Y-109624761D01*
X89439738Y-109672380D01*
X89249261Y-109672380D01*
X89154023Y-109624761D01*
X89058785Y-109529523D01*
X89011166Y-109339047D01*
X89011166Y-109005714D01*
X89058785Y-108815238D01*
X89154023Y-108720000D01*
X89249261Y-108672380D01*
X90106404Y-109672380D02*
X90106404Y-108672380D01*
X90487357Y-108672380D01*
X90582595Y-108720000D01*
X90630214Y-108767619D01*
X90677833Y-108862857D01*
X90677833Y-109005714D01*
X90630214Y-109100952D01*
X90582595Y-109148571D01*
X90487357Y-109196190D01*
X90106404Y-109196190D01*
X91106404Y-109672380D02*
X91106404Y-108672380D01*
X84820690Y-112164761D02*
X84963547Y-112212380D01*
X85201642Y-112212380D01*
X85296880Y-112164761D01*
X85344500Y-112117142D01*
X85392119Y-112021904D01*
X85392119Y-111926666D01*
X85344500Y-111831428D01*
X85296880Y-111783809D01*
X85201642Y-111736190D01*
X85011166Y-111688571D01*
X84915928Y-111640952D01*
X84868309Y-111593333D01*
X84820690Y-111498095D01*
X84820690Y-111402857D01*
X84868309Y-111307619D01*
X84915928Y-111260000D01*
X85011166Y-111212380D01*
X85249261Y-111212380D01*
X85392119Y-111260000D01*
X85820690Y-112212380D02*
X85820690Y-111212380D01*
X86201642Y-111212380D01*
X86296880Y-111260000D01*
X86344500Y-111307619D01*
X86392119Y-111402857D01*
X86392119Y-111545714D01*
X86344500Y-111640952D01*
X86296880Y-111688571D01*
X86201642Y-111736190D01*
X85820690Y-111736190D01*
X86820690Y-112212380D02*
X86820690Y-111212380D01*
X88630214Y-112117142D02*
X88582595Y-112164761D01*
X88439738Y-112212380D01*
X88344500Y-112212380D01*
X88201642Y-112164761D01*
X88106404Y-112069523D01*
X88058785Y-111974285D01*
X88011166Y-111783809D01*
X88011166Y-111640952D01*
X88058785Y-111450476D01*
X88106404Y-111355238D01*
X88201642Y-111260000D01*
X88344500Y-111212380D01*
X88439738Y-111212380D01*
X88582595Y-111260000D01*
X88630214Y-111307619D01*
X89058785Y-112212380D02*
X89058785Y-111212380D01*
X89534976Y-112212380D02*
X89534976Y-111212380D01*
X89915928Y-111212380D01*
X90011166Y-111260000D01*
X90058785Y-111307619D01*
X90106404Y-111402857D01*
X90106404Y-111545714D01*
X90058785Y-111640952D01*
X90011166Y-111688571D01*
X89915928Y-111736190D01*
X89534976Y-111736190D01*
X90725452Y-111212380D02*
X90915928Y-111212380D01*
X91011166Y-111260000D01*
X91106404Y-111355238D01*
X91154023Y-111545714D01*
X91154023Y-111879047D01*
X91106404Y-112069523D01*
X91011166Y-112164761D01*
X90915928Y-112212380D01*
X90725452Y-112212380D01*
X90630214Y-112164761D01*
X90534976Y-112069523D01*
X90487357Y-111879047D01*
X90487357Y-111545714D01*
X90534976Y-111355238D01*
X90630214Y-111260000D01*
X90725452Y-111212380D01*
X82392119Y-101100000D02*
X82296880Y-101052380D01*
X82154023Y-101052380D01*
X82011166Y-101100000D01*
X81915928Y-101195238D01*
X81868309Y-101290476D01*
X81820690Y-101480952D01*
X81820690Y-101623809D01*
X81868309Y-101814285D01*
X81915928Y-101909523D01*
X82011166Y-102004761D01*
X82154023Y-102052380D01*
X82249261Y-102052380D01*
X82392119Y-102004761D01*
X82439738Y-101957142D01*
X82439738Y-101623809D01*
X82249261Y-101623809D01*
X82868309Y-102052380D02*
X82868309Y-101052380D01*
X83249261Y-101052380D01*
X83344500Y-101100000D01*
X83392119Y-101147619D01*
X83439738Y-101242857D01*
X83439738Y-101385714D01*
X83392119Y-101480952D01*
X83344500Y-101528571D01*
X83249261Y-101576190D01*
X82868309Y-101576190D01*
X83868309Y-101052380D02*
X83868309Y-101861904D01*
X83915928Y-101957142D01*
X83963547Y-102004761D01*
X84058785Y-102052380D01*
X84249261Y-102052380D01*
X84344500Y-102004761D01*
X84392119Y-101957142D01*
X84439738Y-101861904D01*
X84439738Y-101052380D01*
X86249261Y-101957142D02*
X86201642Y-102004761D01*
X86058785Y-102052380D01*
X85963547Y-102052380D01*
X85820690Y-102004761D01*
X85725452Y-101909523D01*
X85677833Y-101814285D01*
X85630214Y-101623809D01*
X85630214Y-101480952D01*
X85677833Y-101290476D01*
X85725452Y-101195238D01*
X85820690Y-101100000D01*
X85963547Y-101052380D01*
X86058785Y-101052380D01*
X86201642Y-101100000D01*
X86249261Y-101147619D01*
X86630214Y-102004761D02*
X86773071Y-102052380D01*
X87011166Y-102052380D01*
X87106404Y-102004761D01*
X87154023Y-101957142D01*
X87201642Y-101861904D01*
X87201642Y-101766666D01*
X87154023Y-101671428D01*
X87106404Y-101623809D01*
X87011166Y-101576190D01*
X86820690Y-101528571D01*
X86725452Y-101480952D01*
X86677833Y-101433333D01*
X86630214Y-101338095D01*
X86630214Y-101242857D01*
X86677833Y-101147619D01*
X86725452Y-101100000D01*
X86820690Y-101052380D01*
X87058785Y-101052380D01*
X87201642Y-101100000D01*
X88344500Y-101004761D02*
X87487357Y-102290476D01*
X88677833Y-102052380D02*
X88677833Y-101052380D01*
X88915928Y-101052380D01*
X89058785Y-101100000D01*
X89154023Y-101195238D01*
X89201642Y-101290476D01*
X89249261Y-101480952D01*
X89249261Y-101623809D01*
X89201642Y-101814285D01*
X89154023Y-101909523D01*
X89058785Y-102004761D01*
X88915928Y-102052380D01*
X88677833Y-102052380D01*
X90201642Y-102052380D02*
X89630214Y-102052380D01*
X89915928Y-102052380D02*
X89915928Y-101052380D01*
X89820690Y-101195238D01*
X89725452Y-101290476D01*
X89630214Y-101338095D01*
X90820690Y-101052380D02*
X90915928Y-101052380D01*
X91011166Y-101100000D01*
X91058785Y-101147619D01*
X91106404Y-101242857D01*
X91154023Y-101433333D01*
X91154023Y-101671428D01*
X91106404Y-101861904D01*
X91058785Y-101957142D01*
X91011166Y-102004761D01*
X90915928Y-102052380D01*
X90820690Y-102052380D01*
X90725452Y-102004761D01*
X90677833Y-101957142D01*
X90630214Y-101861904D01*
X90582595Y-101671428D01*
X90582595Y-101433333D01*
X90630214Y-101242857D01*
X90677833Y-101147619D01*
X90725452Y-101100000D01*
X90820690Y-101052380D01*
X83868309Y-104544761D02*
X84011166Y-104592380D01*
X84249261Y-104592380D01*
X84344500Y-104544761D01*
X84392119Y-104497142D01*
X84439738Y-104401904D01*
X84439738Y-104306666D01*
X84392119Y-104211428D01*
X84344500Y-104163809D01*
X84249261Y-104116190D01*
X84058785Y-104068571D01*
X83963547Y-104020952D01*
X83915928Y-103973333D01*
X83868309Y-103878095D01*
X83868309Y-103782857D01*
X83915928Y-103687619D01*
X83963547Y-103640000D01*
X84058785Y-103592380D01*
X84296880Y-103592380D01*
X84439738Y-103640000D01*
X84868309Y-104592380D02*
X84868309Y-103592380D01*
X85106404Y-103592380D01*
X85249261Y-103640000D01*
X85344500Y-103735238D01*
X85392119Y-103830476D01*
X85439738Y-104020952D01*
X85439738Y-104163809D01*
X85392119Y-104354285D01*
X85344500Y-104449523D01*
X85249261Y-104544761D01*
X85106404Y-104592380D01*
X84868309Y-104592380D01*
X87201642Y-104497142D02*
X87154023Y-104544761D01*
X87011166Y-104592380D01*
X86915928Y-104592380D01*
X86773071Y-104544761D01*
X86677833Y-104449523D01*
X86630214Y-104354285D01*
X86582595Y-104163809D01*
X86582595Y-104020952D01*
X86630214Y-103830476D01*
X86677833Y-103735238D01*
X86773071Y-103640000D01*
X86915928Y-103592380D01*
X87011166Y-103592380D01*
X87154023Y-103640000D01*
X87201642Y-103687619D01*
X87582595Y-104544761D02*
X87725452Y-104592380D01*
X87963547Y-104592380D01*
X88058785Y-104544761D01*
X88106404Y-104497142D01*
X88154023Y-104401904D01*
X88154023Y-104306666D01*
X88106404Y-104211428D01*
X88058785Y-104163809D01*
X87963547Y-104116190D01*
X87773071Y-104068571D01*
X87677833Y-104020952D01*
X87630214Y-103973333D01*
X87582595Y-103878095D01*
X87582595Y-103782857D01*
X87630214Y-103687619D01*
X87677833Y-103640000D01*
X87773071Y-103592380D01*
X88011166Y-103592380D01*
X88154023Y-103640000D01*
X89296880Y-103544761D02*
X88439738Y-104830476D01*
X89630214Y-104592380D02*
X89630214Y-103592380D01*
X89868309Y-103592380D01*
X90011166Y-103640000D01*
X90106404Y-103735238D01*
X90154023Y-103830476D01*
X90201642Y-104020952D01*
X90201642Y-104163809D01*
X90154023Y-104354285D01*
X90106404Y-104449523D01*
X90011166Y-104544761D01*
X89868309Y-104592380D01*
X89630214Y-104592380D01*
X90677833Y-104592380D02*
X90868309Y-104592380D01*
X90963547Y-104544761D01*
X91011166Y-104497142D01*
X91106404Y-104354285D01*
X91154023Y-104163809D01*
X91154023Y-103782857D01*
X91106404Y-103687619D01*
X91058785Y-103640000D01*
X90963547Y-103592380D01*
X90773071Y-103592380D01*
X90677833Y-103640000D01*
X90630214Y-103687619D01*
X90582595Y-103782857D01*
X90582595Y-104020952D01*
X90630214Y-104116190D01*
X90677833Y-104163809D01*
X90773071Y-104211428D01*
X90963547Y-104211428D01*
X91058785Y-104163809D01*
X91106404Y-104116190D01*
X91154023Y-104020952D01*
X154467976Y-102004761D02*
X154610833Y-102052380D01*
X154848928Y-102052380D01*
X154944166Y-102004761D01*
X154991785Y-101957142D01*
X155039404Y-101861904D01*
X155039404Y-101766666D01*
X154991785Y-101671428D01*
X154944166Y-101623809D01*
X154848928Y-101576190D01*
X154658452Y-101528571D01*
X154563214Y-101480952D01*
X154515595Y-101433333D01*
X154467976Y-101338095D01*
X154467976Y-101242857D01*
X154515595Y-101147619D01*
X154563214Y-101100000D01*
X154658452Y-101052380D01*
X154896547Y-101052380D01*
X155039404Y-101100000D01*
X155848928Y-102004761D02*
X155753690Y-102052380D01*
X155563214Y-102052380D01*
X155467976Y-102004761D01*
X155420357Y-101909523D01*
X155420357Y-101528571D01*
X155467976Y-101433333D01*
X155563214Y-101385714D01*
X155753690Y-101385714D01*
X155848928Y-101433333D01*
X155896547Y-101528571D01*
X155896547Y-101623809D01*
X155420357Y-101719047D01*
X156467976Y-102052380D02*
X156372738Y-102004761D01*
X156325119Y-101909523D01*
X156325119Y-101052380D01*
X157229880Y-102004761D02*
X157134642Y-102052380D01*
X156944166Y-102052380D01*
X156848928Y-102004761D01*
X156801309Y-101909523D01*
X156801309Y-101528571D01*
X156848928Y-101433333D01*
X156944166Y-101385714D01*
X157134642Y-101385714D01*
X157229880Y-101433333D01*
X157277500Y-101528571D01*
X157277500Y-101623809D01*
X156801309Y-101719047D01*
X158134642Y-102004761D02*
X158039404Y-102052380D01*
X157848928Y-102052380D01*
X157753690Y-102004761D01*
X157706071Y-101957142D01*
X157658452Y-101861904D01*
X157658452Y-101576190D01*
X157706071Y-101480952D01*
X157753690Y-101433333D01*
X157848928Y-101385714D01*
X158039404Y-101385714D01*
X158134642Y-101433333D01*
X158420357Y-101385714D02*
X158801309Y-101385714D01*
X158563214Y-101052380D02*
X158563214Y-101909523D01*
X158610833Y-102004761D01*
X158706071Y-102052380D01*
X158801309Y-102052380D01*
X86915928Y-96924761D02*
X87058785Y-96972380D01*
X87296880Y-96972380D01*
X87392119Y-96924761D01*
X87439738Y-96877142D01*
X87487357Y-96781904D01*
X87487357Y-96686666D01*
X87439738Y-96591428D01*
X87392119Y-96543809D01*
X87296880Y-96496190D01*
X87106404Y-96448571D01*
X87011166Y-96400952D01*
X86963547Y-96353333D01*
X86915928Y-96258095D01*
X86915928Y-96162857D01*
X86963547Y-96067619D01*
X87011166Y-96020000D01*
X87106404Y-95972380D01*
X87344500Y-95972380D01*
X87487357Y-96020000D01*
X88296880Y-96924761D02*
X88201642Y-96972380D01*
X88011166Y-96972380D01*
X87915928Y-96924761D01*
X87868309Y-96829523D01*
X87868309Y-96448571D01*
X87915928Y-96353333D01*
X88011166Y-96305714D01*
X88201642Y-96305714D01*
X88296880Y-96353333D01*
X88344500Y-96448571D01*
X88344500Y-96543809D01*
X87868309Y-96639047D01*
X88915928Y-96972380D02*
X88820690Y-96924761D01*
X88773071Y-96829523D01*
X88773071Y-95972380D01*
X89677833Y-96924761D02*
X89582595Y-96972380D01*
X89392119Y-96972380D01*
X89296880Y-96924761D01*
X89249261Y-96829523D01*
X89249261Y-96448571D01*
X89296880Y-96353333D01*
X89392119Y-96305714D01*
X89582595Y-96305714D01*
X89677833Y-96353333D01*
X89725452Y-96448571D01*
X89725452Y-96543809D01*
X89249261Y-96639047D01*
X90582595Y-96924761D02*
X90487357Y-96972380D01*
X90296880Y-96972380D01*
X90201642Y-96924761D01*
X90154023Y-96877142D01*
X90106404Y-96781904D01*
X90106404Y-96496190D01*
X90154023Y-96400952D01*
X90201642Y-96353333D01*
X90296880Y-96305714D01*
X90487357Y-96305714D01*
X90582595Y-96353333D01*
X90868309Y-96305714D02*
X91249261Y-96305714D01*
X91011166Y-95972380D02*
X91011166Y-96829523D01*
X91058785Y-96924761D01*
X91154023Y-96972380D01*
X91249261Y-96972380D01*
X110323333Y-120937976D02*
X110323333Y-121414166D01*
X110037619Y-120842738D02*
X111037619Y-121176071D01*
X110037619Y-121509404D01*
X110037619Y-122366547D02*
X110037619Y-121795119D01*
X110037619Y-122080833D02*
X111037619Y-122080833D01*
X110894761Y-121985595D01*
X110799523Y-121890357D01*
X110751904Y-121795119D01*
X111037619Y-123223690D02*
X111037619Y-123033214D01*
X110990000Y-122937976D01*
X110942380Y-122890357D01*
X110799523Y-122795119D01*
X110609047Y-122747500D01*
X110228095Y-122747500D01*
X110132857Y-122795119D01*
X110085238Y-122842738D01*
X110037619Y-122937976D01*
X110037619Y-123128452D01*
X110085238Y-123223690D01*
X110132857Y-123271309D01*
X110228095Y-123318928D01*
X110466190Y-123318928D01*
X110561428Y-123271309D01*
X110609047Y-123223690D01*
X110656666Y-123128452D01*
X110656666Y-122937976D01*
X110609047Y-122842738D01*
X110561428Y-122795119D01*
X110466190Y-122747500D01*
X111085238Y-124461785D02*
X109799523Y-123604642D01*
X110085238Y-124747500D02*
X110037619Y-124890357D01*
X110037619Y-125128452D01*
X110085238Y-125223690D01*
X110132857Y-125271309D01*
X110228095Y-125318928D01*
X110323333Y-125318928D01*
X110418571Y-125271309D01*
X110466190Y-125223690D01*
X110513809Y-125128452D01*
X110561428Y-124937976D01*
X110609047Y-124842738D01*
X110656666Y-124795119D01*
X110751904Y-124747500D01*
X110847142Y-124747500D01*
X110942380Y-124795119D01*
X110990000Y-124842738D01*
X111037619Y-124937976D01*
X111037619Y-125176071D01*
X110990000Y-125318928D01*
X110704285Y-125604642D02*
X110704285Y-125985595D01*
X111037619Y-125747500D02*
X110180476Y-125747500D01*
X110085238Y-125795119D01*
X110037619Y-125890357D01*
X110037619Y-125985595D01*
X110037619Y-126747500D02*
X110561428Y-126747500D01*
X110656666Y-126699880D01*
X110704285Y-126604642D01*
X110704285Y-126414166D01*
X110656666Y-126318928D01*
X110085238Y-126747500D02*
X110037619Y-126652261D01*
X110037619Y-126414166D01*
X110085238Y-126318928D01*
X110180476Y-126271309D01*
X110275714Y-126271309D01*
X110370952Y-126318928D01*
X110418571Y-126414166D01*
X110418571Y-126652261D01*
X110466190Y-126747500D01*
X110037619Y-127223690D02*
X110704285Y-127223690D01*
X110513809Y-127223690D02*
X110609047Y-127271309D01*
X110656666Y-127318928D01*
X110704285Y-127414166D01*
X110704285Y-127509404D01*
X110704285Y-127699880D02*
X110704285Y-128080833D01*
X111037619Y-127842738D02*
X110180476Y-127842738D01*
X110085238Y-127890357D01*
X110037619Y-127985595D01*
X110037619Y-128080833D01*
X126777928Y-94384761D02*
X126920785Y-94432380D01*
X127158880Y-94432380D01*
X127254119Y-94384761D01*
X127301738Y-94337142D01*
X127349357Y-94241904D01*
X127349357Y-94146666D01*
X127301738Y-94051428D01*
X127254119Y-94003809D01*
X127158880Y-93956190D01*
X126968404Y-93908571D01*
X126873166Y-93860952D01*
X126825547Y-93813333D01*
X126777928Y-93718095D01*
X126777928Y-93622857D01*
X126825547Y-93527619D01*
X126873166Y-93480000D01*
X126968404Y-93432380D01*
X127206500Y-93432380D01*
X127349357Y-93480000D01*
X127635071Y-93765714D02*
X128016023Y-93765714D01*
X127777928Y-93432380D02*
X127777928Y-94289523D01*
X127825547Y-94384761D01*
X127920785Y-94432380D01*
X128016023Y-94432380D01*
X128777928Y-94432380D02*
X128777928Y-93908571D01*
X128730309Y-93813333D01*
X128635071Y-93765714D01*
X128444595Y-93765714D01*
X128349357Y-93813333D01*
X128777928Y-94384761D02*
X128682690Y-94432380D01*
X128444595Y-94432380D01*
X128349357Y-94384761D01*
X128301738Y-94289523D01*
X128301738Y-94194285D01*
X128349357Y-94099047D01*
X128444595Y-94051428D01*
X128682690Y-94051428D01*
X128777928Y-94003809D01*
X129254119Y-94432380D02*
X129254119Y-93765714D01*
X129254119Y-93956190D02*
X129301738Y-93860952D01*
X129349357Y-93813333D01*
X129444595Y-93765714D01*
X129539833Y-93765714D01*
X129730309Y-93765714D02*
X130111261Y-93765714D01*
X129873166Y-93432380D02*
X129873166Y-94289523D01*
X129920785Y-94384761D01*
X130016023Y-94432380D01*
X130111261Y-94432380D01*
X154515595Y-109672380D02*
X154515595Y-108672380D01*
X154753690Y-108672380D01*
X154896547Y-108720000D01*
X154991785Y-108815238D01*
X155039404Y-108910476D01*
X155087023Y-109100952D01*
X155087023Y-109243809D01*
X155039404Y-109434285D01*
X154991785Y-109529523D01*
X154896547Y-109624761D01*
X154753690Y-109672380D01*
X154515595Y-109672380D01*
X155706071Y-108672380D02*
X155896547Y-108672380D01*
X155991785Y-108720000D01*
X156087023Y-108815238D01*
X156134642Y-109005714D01*
X156134642Y-109339047D01*
X156087023Y-109529523D01*
X155991785Y-109624761D01*
X155896547Y-109672380D01*
X155706071Y-109672380D01*
X155610833Y-109624761D01*
X155515595Y-109529523D01*
X155467976Y-109339047D01*
X155467976Y-109005714D01*
X155515595Y-108815238D01*
X155610833Y-108720000D01*
X155706071Y-108672380D01*
X156467976Y-108672380D02*
X156706071Y-109672380D01*
X156896547Y-108958095D01*
X157087023Y-109672380D01*
X157325119Y-108672380D01*
X157706071Y-109672380D02*
X157706071Y-108672380D01*
X158277500Y-109672380D01*
X158277500Y-108672380D01*
X154991785Y-107132380D02*
X154515595Y-107132380D01*
X154515595Y-106132380D01*
X155325119Y-106608571D02*
X155658452Y-106608571D01*
X155801309Y-107132380D02*
X155325119Y-107132380D01*
X155325119Y-106132380D01*
X155801309Y-106132380D01*
X156563214Y-106608571D02*
X156229880Y-106608571D01*
X156229880Y-107132380D02*
X156229880Y-106132380D01*
X156706071Y-106132380D01*
X156944166Y-106132380D02*
X157515595Y-106132380D01*
X157229880Y-107132380D02*
X157229880Y-106132380D01*
X84344500Y-89352380D02*
X84344500Y-88352380D01*
X84582595Y-88352380D01*
X84725452Y-88400000D01*
X84820690Y-88495238D01*
X84868309Y-88590476D01*
X84915928Y-88780952D01*
X84915928Y-88923809D01*
X84868309Y-89114285D01*
X84820690Y-89209523D01*
X84725452Y-89304761D01*
X84582595Y-89352380D01*
X84344500Y-89352380D01*
X85534976Y-88352380D02*
X85725452Y-88352380D01*
X85820690Y-88400000D01*
X85915928Y-88495238D01*
X85963547Y-88685714D01*
X85963547Y-89019047D01*
X85915928Y-89209523D01*
X85820690Y-89304761D01*
X85725452Y-89352380D01*
X85534976Y-89352380D01*
X85439738Y-89304761D01*
X85344500Y-89209523D01*
X85296880Y-89019047D01*
X85296880Y-88685714D01*
X85344500Y-88495238D01*
X85439738Y-88400000D01*
X85534976Y-88352380D01*
X86296880Y-88352380D02*
X86534976Y-89352380D01*
X86725452Y-88638095D01*
X86915928Y-89352380D01*
X87154023Y-88352380D01*
X87534976Y-89352380D02*
X87534976Y-88352380D01*
X88106404Y-89352380D01*
X88106404Y-88352380D01*
X89296880Y-88304761D02*
X88439738Y-89590476D01*
X89630214Y-89352380D02*
X89630214Y-88352380D01*
X89868309Y-88352380D01*
X90011166Y-88400000D01*
X90106404Y-88495238D01*
X90154023Y-88590476D01*
X90201642Y-88780952D01*
X90201642Y-88923809D01*
X90154023Y-89114285D01*
X90106404Y-89209523D01*
X90011166Y-89304761D01*
X89868309Y-89352380D01*
X89630214Y-89352380D01*
X90534976Y-88352380D02*
X91154023Y-88352380D01*
X90820690Y-88733333D01*
X90963547Y-88733333D01*
X91058785Y-88780952D01*
X91106404Y-88828571D01*
X91154023Y-88923809D01*
X91154023Y-89161904D01*
X91106404Y-89257142D01*
X91058785Y-89304761D01*
X90963547Y-89352380D01*
X90677833Y-89352380D01*
X90582595Y-89304761D01*
X90534976Y-89257142D01*
X85725452Y-91892380D02*
X85249261Y-91892380D01*
X85249261Y-90892380D01*
X86058785Y-91368571D02*
X86392119Y-91368571D01*
X86534976Y-91892380D02*
X86058785Y-91892380D01*
X86058785Y-90892380D01*
X86534976Y-90892380D01*
X87296880Y-91368571D02*
X86963547Y-91368571D01*
X86963547Y-91892380D02*
X86963547Y-90892380D01*
X87439738Y-90892380D01*
X87677833Y-90892380D02*
X88249261Y-90892380D01*
X87963547Y-91892380D02*
X87963547Y-90892380D01*
X89296880Y-90844761D02*
X88439738Y-92130476D01*
X89630214Y-91892380D02*
X89630214Y-90892380D01*
X89868309Y-90892380D01*
X90011166Y-90940000D01*
X90106404Y-91035238D01*
X90154023Y-91130476D01*
X90201642Y-91320952D01*
X90201642Y-91463809D01*
X90154023Y-91654285D01*
X90106404Y-91749523D01*
X90011166Y-91844761D01*
X89868309Y-91892380D01*
X89630214Y-91892380D01*
X91058785Y-91225714D02*
X91058785Y-91892380D01*
X90820690Y-90844761D02*
X90582595Y-91559047D01*
X91201642Y-91559047D01*
X86534976Y-85812380D02*
X86534976Y-86621904D01*
X86582595Y-86717142D01*
X86630214Y-86764761D01*
X86725452Y-86812380D01*
X86915928Y-86812380D01*
X87011166Y-86764761D01*
X87058785Y-86717142D01*
X87106404Y-86621904D01*
X87106404Y-85812380D01*
X87582595Y-86812380D02*
X87582595Y-85812380D01*
X87963547Y-85812380D01*
X88058785Y-85860000D01*
X88106404Y-85907619D01*
X88154023Y-86002857D01*
X88154023Y-86145714D01*
X88106404Y-86240952D01*
X88058785Y-86288571D01*
X87963547Y-86336190D01*
X87582595Y-86336190D01*
X89296880Y-85764761D02*
X88439738Y-87050476D01*
X89630214Y-86812380D02*
X89630214Y-85812380D01*
X89868309Y-85812380D01*
X90011166Y-85860000D01*
X90106404Y-85955238D01*
X90154023Y-86050476D01*
X90201642Y-86240952D01*
X90201642Y-86383809D01*
X90154023Y-86574285D01*
X90106404Y-86669523D01*
X90011166Y-86764761D01*
X89868309Y-86812380D01*
X89630214Y-86812380D01*
X90582595Y-85907619D02*
X90630214Y-85860000D01*
X90725452Y-85812380D01*
X90963547Y-85812380D01*
X91058785Y-85860000D01*
X91106404Y-85907619D01*
X91154023Y-86002857D01*
X91154023Y-86098095D01*
X91106404Y-86240952D01*
X90534976Y-86812380D01*
X91154023Y-86812380D01*
X154515595Y-111212380D02*
X154515595Y-112021904D01*
X154563214Y-112117142D01*
X154610833Y-112164761D01*
X154706071Y-112212380D01*
X154896547Y-112212380D01*
X154991785Y-112164761D01*
X155039404Y-112117142D01*
X155087023Y-112021904D01*
X155087023Y-111212380D01*
X155563214Y-112212380D02*
X155563214Y-111212380D01*
X155944166Y-111212380D01*
X156039404Y-111260000D01*
X156087023Y-111307619D01*
X156134642Y-111402857D01*
X156134642Y-111545714D01*
X156087023Y-111640952D01*
X156039404Y-111688571D01*
X155944166Y-111736190D01*
X155563214Y-111736190D01*
X84868309Y-94432380D02*
X84534976Y-93956190D01*
X84296880Y-94432380D02*
X84296880Y-93432380D01*
X84677833Y-93432380D01*
X84773071Y-93480000D01*
X84820690Y-93527619D01*
X84868309Y-93622857D01*
X84868309Y-93765714D01*
X84820690Y-93860952D01*
X84773071Y-93908571D01*
X84677833Y-93956190D01*
X84296880Y-93956190D01*
X85296880Y-94432380D02*
X85296880Y-93432380D01*
X86296880Y-93480000D02*
X86201642Y-93432380D01*
X86058785Y-93432380D01*
X85915928Y-93480000D01*
X85820690Y-93575238D01*
X85773071Y-93670476D01*
X85725452Y-93860952D01*
X85725452Y-94003809D01*
X85773071Y-94194285D01*
X85820690Y-94289523D01*
X85915928Y-94384761D01*
X86058785Y-94432380D01*
X86154023Y-94432380D01*
X86296880Y-94384761D01*
X86344500Y-94337142D01*
X86344500Y-94003809D01*
X86154023Y-94003809D01*
X86773071Y-94432380D02*
X86773071Y-93432380D01*
X86773071Y-93908571D02*
X87344500Y-93908571D01*
X87344500Y-94432380D02*
X87344500Y-93432380D01*
X87677833Y-93432380D02*
X88249261Y-93432380D01*
X87963547Y-94432380D02*
X87963547Y-93432380D01*
X89296880Y-93384761D02*
X88439738Y-94670476D01*
X89630214Y-94432380D02*
X89630214Y-93432380D01*
X89868309Y-93432380D01*
X90011166Y-93480000D01*
X90106404Y-93575238D01*
X90154023Y-93670476D01*
X90201642Y-93860952D01*
X90201642Y-94003809D01*
X90154023Y-94194285D01*
X90106404Y-94289523D01*
X90011166Y-94384761D01*
X89868309Y-94432380D01*
X89630214Y-94432380D01*
X91106404Y-93432380D02*
X90630214Y-93432380D01*
X90582595Y-93908571D01*
X90630214Y-93860952D01*
X90725452Y-93813333D01*
X90963547Y-93813333D01*
X91058785Y-93860952D01*
X91106404Y-93908571D01*
X91154023Y-94003809D01*
X91154023Y-94241904D01*
X91106404Y-94337142D01*
X91058785Y-94384761D01*
X90963547Y-94432380D01*
X90725452Y-94432380D01*
X90630214Y-94384761D01*
X90582595Y-94337142D01*
X155087023Y-104592380D02*
X154753690Y-104116190D01*
X154515595Y-104592380D02*
X154515595Y-103592380D01*
X154896547Y-103592380D01*
X154991785Y-103640000D01*
X155039404Y-103687619D01*
X155087023Y-103782857D01*
X155087023Y-103925714D01*
X155039404Y-104020952D01*
X154991785Y-104068571D01*
X154896547Y-104116190D01*
X154515595Y-104116190D01*
X155515595Y-104592380D02*
X155515595Y-103592380D01*
X156515595Y-103640000D02*
X156420357Y-103592380D01*
X156277500Y-103592380D01*
X156134642Y-103640000D01*
X156039404Y-103735238D01*
X155991785Y-103830476D01*
X155944166Y-104020952D01*
X155944166Y-104163809D01*
X155991785Y-104354285D01*
X156039404Y-104449523D01*
X156134642Y-104544761D01*
X156277500Y-104592380D01*
X156372738Y-104592380D01*
X156515595Y-104544761D01*
X156563214Y-104497142D01*
X156563214Y-104163809D01*
X156372738Y-104163809D01*
X156991785Y-104592380D02*
X156991785Y-103592380D01*
X156991785Y-104068571D02*
X157563214Y-104068571D01*
X157563214Y-104592380D02*
X157563214Y-103592380D01*
X157896547Y-103592380D02*
X158467976Y-103592380D01*
X158182261Y-104592380D02*
X158182261Y-103592380D01*
D12*
X152246000Y-88646000D02*
G75*
G03*
X152246000Y-88646000I-100000J0D01*
G01*
X138022000Y-83820000D02*
G75*
G03*
X138022000Y-83820000I-100000J0D01*
G01*
D11*
X67355809Y-118082619D02*
X67403428Y-118035000D01*
X67498666Y-117987380D01*
X67736761Y-117987380D01*
X67832000Y-118035000D01*
X67879619Y-118082619D01*
X67927238Y-118177857D01*
X67927238Y-118273095D01*
X67879619Y-118415952D01*
X67308190Y-118987380D01*
X67927238Y-118987380D01*
X68546285Y-117987380D02*
X68641523Y-117987380D01*
X68736761Y-118035000D01*
X68784380Y-118082619D01*
X68832000Y-118177857D01*
X68879619Y-118368333D01*
X68879619Y-118606428D01*
X68832000Y-118796904D01*
X68784380Y-118892142D01*
X68736761Y-118939761D01*
X68641523Y-118987380D01*
X68546285Y-118987380D01*
X68451047Y-118939761D01*
X68403428Y-118892142D01*
X68355809Y-118796904D01*
X68308190Y-118606428D01*
X68308190Y-118368333D01*
X68355809Y-118177857D01*
X68403428Y-118082619D01*
X68451047Y-118035000D01*
X68546285Y-117987380D01*
X69212952Y-117987380D02*
X69832000Y-117987380D01*
X69498666Y-118368333D01*
X69641523Y-118368333D01*
X69736761Y-118415952D01*
X69784380Y-118463571D01*
X69832000Y-118558809D01*
X69832000Y-118796904D01*
X69784380Y-118892142D01*
X69736761Y-118939761D01*
X69641523Y-118987380D01*
X69355809Y-118987380D01*
X69260571Y-118939761D01*
X69212952Y-118892142D01*
X70212952Y-118082619D02*
X70260571Y-118035000D01*
X70355809Y-117987380D01*
X70593904Y-117987380D01*
X70689142Y-118035000D01*
X70736761Y-118082619D01*
X70784380Y-118177857D01*
X70784380Y-118273095D01*
X70736761Y-118415952D01*
X70165333Y-118987380D01*
X70784380Y-118987380D01*
X71879619Y-117987380D02*
X72498666Y-117987380D01*
X72165333Y-118368333D01*
X72308190Y-118368333D01*
X72403428Y-118415952D01*
X72451047Y-118463571D01*
X72498666Y-118558809D01*
X72498666Y-118796904D01*
X72451047Y-118892142D01*
X72403428Y-118939761D01*
X72308190Y-118987380D01*
X72022476Y-118987380D01*
X71927238Y-118939761D01*
X71879619Y-118892142D01*
X72832000Y-118320714D02*
X73070095Y-118987380D01*
X73308190Y-118320714D01*
X74784380Y-118463571D02*
X74927238Y-118511190D01*
X74974857Y-118558809D01*
X75022476Y-118654047D01*
X75022476Y-118796904D01*
X74974857Y-118892142D01*
X74927238Y-118939761D01*
X74832000Y-118987380D01*
X74451047Y-118987380D01*
X74451047Y-117987380D01*
X74784380Y-117987380D01*
X74879619Y-118035000D01*
X74927238Y-118082619D01*
X74974857Y-118177857D01*
X74974857Y-118273095D01*
X74927238Y-118368333D01*
X74879619Y-118415952D01*
X74784380Y-118463571D01*
X74451047Y-118463571D01*
X75879619Y-118987380D02*
X75879619Y-118463571D01*
X75832000Y-118368333D01*
X75736761Y-118320714D01*
X75546285Y-118320714D01*
X75451047Y-118368333D01*
X75879619Y-118939761D02*
X75784380Y-118987380D01*
X75546285Y-118987380D01*
X75451047Y-118939761D01*
X75403428Y-118844523D01*
X75403428Y-118749285D01*
X75451047Y-118654047D01*
X75546285Y-118606428D01*
X75784380Y-118606428D01*
X75879619Y-118558809D01*
X76212952Y-118320714D02*
X76593904Y-118320714D01*
X76355809Y-117987380D02*
X76355809Y-118844523D01*
X76403428Y-118939761D01*
X76498666Y-118987380D01*
X76593904Y-118987380D01*
X76784380Y-118320714D02*
X77165333Y-118320714D01*
X76927238Y-117987380D02*
X76927238Y-118844523D01*
X76974857Y-118939761D01*
X77070095Y-118987380D01*
X77165333Y-118987380D01*
X77879619Y-118939761D02*
X77784380Y-118987380D01*
X77593904Y-118987380D01*
X77498666Y-118939761D01*
X77451047Y-118844523D01*
X77451047Y-118463571D01*
X77498666Y-118368333D01*
X77593904Y-118320714D01*
X77784380Y-118320714D01*
X77879619Y-118368333D01*
X77927238Y-118463571D01*
X77927238Y-118558809D01*
X77451047Y-118654047D01*
X78355809Y-118987380D02*
X78355809Y-118320714D01*
X78355809Y-118511190D02*
X78403428Y-118415952D01*
X78451047Y-118368333D01*
X78546285Y-118320714D01*
X78641523Y-118320714D01*
X78879619Y-118320714D02*
X79117714Y-118987380D01*
X79355809Y-118320714D02*
X79117714Y-118987380D01*
X79022476Y-119225476D01*
X78974857Y-119273095D01*
X78879619Y-119320714D01*
X69070095Y-120589761D02*
X69212952Y-120637380D01*
X69451047Y-120637380D01*
X69546285Y-120589761D01*
X69593904Y-120542142D01*
X69641523Y-120446904D01*
X69641523Y-120351666D01*
X69593904Y-120256428D01*
X69546285Y-120208809D01*
X69451047Y-120161190D01*
X69260571Y-120113571D01*
X69165333Y-120065952D01*
X69117714Y-120018333D01*
X69070095Y-119923095D01*
X69070095Y-119827857D01*
X69117714Y-119732619D01*
X69165333Y-119685000D01*
X69260571Y-119637380D01*
X69498666Y-119637380D01*
X69641523Y-119685000D01*
X70212952Y-120065952D02*
X70117714Y-120018333D01*
X70070095Y-119970714D01*
X70022476Y-119875476D01*
X70022476Y-119827857D01*
X70070095Y-119732619D01*
X70117714Y-119685000D01*
X70212952Y-119637380D01*
X70403428Y-119637380D01*
X70498666Y-119685000D01*
X70546285Y-119732619D01*
X70593904Y-119827857D01*
X70593904Y-119875476D01*
X70546285Y-119970714D01*
X70498666Y-120018333D01*
X70403428Y-120065952D01*
X70212952Y-120065952D01*
X70117714Y-120113571D01*
X70070095Y-120161190D01*
X70022476Y-120256428D01*
X70022476Y-120446904D01*
X70070095Y-120542142D01*
X70117714Y-120589761D01*
X70212952Y-120637380D01*
X70403428Y-120637380D01*
X70498666Y-120589761D01*
X70546285Y-120542142D01*
X70593904Y-120446904D01*
X70593904Y-120256428D01*
X70546285Y-120161190D01*
X70498666Y-120113571D01*
X70403428Y-120065952D01*
X71451047Y-119970714D02*
X71451047Y-120637380D01*
X71212952Y-119589761D02*
X70974857Y-120304047D01*
X71593904Y-120304047D01*
X71927238Y-119732619D02*
X71974857Y-119685000D01*
X72070095Y-119637380D01*
X72308190Y-119637380D01*
X72403428Y-119685000D01*
X72451047Y-119732619D01*
X72498666Y-119827857D01*
X72498666Y-119923095D01*
X72451047Y-120065952D01*
X71879619Y-120637380D01*
X72498666Y-120637380D01*
X73451047Y-120637380D02*
X72879619Y-120637380D01*
X73165333Y-120637380D02*
X73165333Y-119637380D01*
X73070095Y-119780238D01*
X72974857Y-119875476D01*
X72879619Y-119923095D01*
X73879619Y-120256428D02*
X74641523Y-120256428D01*
X75546285Y-119970714D02*
X75546285Y-120637380D01*
X75308190Y-119589761D02*
X75070095Y-120304047D01*
X75689142Y-120304047D01*
X76546285Y-119637380D02*
X76070095Y-119637380D01*
X76022476Y-120113571D01*
X76070095Y-120065952D01*
X76165333Y-120018333D01*
X76403428Y-120018333D01*
X76498666Y-120065952D01*
X76546285Y-120113571D01*
X76593904Y-120208809D01*
X76593904Y-120446904D01*
X76546285Y-120542142D01*
X76498666Y-120589761D01*
X76403428Y-120637380D01*
X76165333Y-120637380D01*
X76070095Y-120589761D01*
X76022476Y-120542142D01*
X77593904Y-120637380D02*
X77260571Y-120161190D01*
X77022476Y-120637380D02*
X77022476Y-119637380D01*
X77403428Y-119637380D01*
X77498666Y-119685000D01*
X77546285Y-119732619D01*
X77593904Y-119827857D01*
X77593904Y-119970714D01*
X77546285Y-120065952D01*
X77498666Y-120113571D01*
X77403428Y-120161190D01*
X77022476Y-120161190D01*
X116422476Y-91812380D02*
X116422476Y-92621904D01*
X116470095Y-92717142D01*
X116517714Y-92764761D01*
X116612952Y-92812380D01*
X116803428Y-92812380D01*
X116898666Y-92764761D01*
X116946285Y-92717142D01*
X116993904Y-92621904D01*
X116993904Y-91812380D01*
X117422476Y-92764761D02*
X117565333Y-92812380D01*
X117803428Y-92812380D01*
X117898666Y-92764761D01*
X117946285Y-92717142D01*
X117993904Y-92621904D01*
X117993904Y-92526666D01*
X117946285Y-92431428D01*
X117898666Y-92383809D01*
X117803428Y-92336190D01*
X117612952Y-92288571D01*
X117517714Y-92240952D01*
X117470095Y-92193333D01*
X117422476Y-92098095D01*
X117422476Y-92002857D01*
X117470095Y-91907619D01*
X117517714Y-91860000D01*
X117612952Y-91812380D01*
X117851047Y-91812380D01*
X117993904Y-91860000D01*
X118755809Y-92288571D02*
X118898666Y-92336190D01*
X118946285Y-92383809D01*
X118993904Y-92479047D01*
X118993904Y-92621904D01*
X118946285Y-92717142D01*
X118898666Y-92764761D01*
X118803428Y-92812380D01*
X118422476Y-92812380D01*
X118422476Y-91812380D01*
X118755809Y-91812380D01*
X118851047Y-91860000D01*
X118898666Y-91907619D01*
X118946285Y-92002857D01*
X118946285Y-92098095D01*
X118898666Y-92193333D01*
X118851047Y-92240952D01*
X118755809Y-92288571D01*
X118422476Y-92288571D01*
X120184380Y-92812380D02*
X120184380Y-91812380D01*
X120184380Y-92288571D02*
X120755809Y-92288571D01*
X120755809Y-92812380D02*
X120755809Y-91812380D01*
X121374857Y-92812380D02*
X121279619Y-92764761D01*
X121232000Y-92717142D01*
X121184380Y-92621904D01*
X121184380Y-92336190D01*
X121232000Y-92240952D01*
X121279619Y-92193333D01*
X121374857Y-92145714D01*
X121517714Y-92145714D01*
X121612952Y-92193333D01*
X121660571Y-92240952D01*
X121708190Y-92336190D01*
X121708190Y-92621904D01*
X121660571Y-92717142D01*
X121612952Y-92764761D01*
X121517714Y-92812380D01*
X121374857Y-92812380D01*
X122089142Y-92764761D02*
X122184380Y-92812380D01*
X122374857Y-92812380D01*
X122470095Y-92764761D01*
X122517714Y-92669523D01*
X122517714Y-92621904D01*
X122470095Y-92526666D01*
X122374857Y-92479047D01*
X122232000Y-92479047D01*
X122136761Y-92431428D01*
X122089142Y-92336190D01*
X122089142Y-92288571D01*
X122136761Y-92193333D01*
X122232000Y-92145714D01*
X122374857Y-92145714D01*
X122470095Y-92193333D01*
X122803428Y-92145714D02*
X123184380Y-92145714D01*
X122946285Y-91812380D02*
X122946285Y-92669523D01*
X122993904Y-92764761D01*
X123089142Y-92812380D01*
X123184380Y-92812380D01*
X164689404Y-113800000D02*
X164594166Y-113752380D01*
X164451309Y-113752380D01*
X164308452Y-113800000D01*
X164213214Y-113895238D01*
X164165595Y-113990476D01*
X164117976Y-114180952D01*
X164117976Y-114323809D01*
X164165595Y-114514285D01*
X164213214Y-114609523D01*
X164308452Y-114704761D01*
X164451309Y-114752380D01*
X164546547Y-114752380D01*
X164689404Y-114704761D01*
X164737023Y-114657142D01*
X164737023Y-114323809D01*
X164546547Y-114323809D01*
X165165595Y-114752380D02*
X165165595Y-113752380D01*
X165737023Y-114752380D01*
X165737023Y-113752380D01*
X166213214Y-114752380D02*
X166213214Y-113752380D01*
X166451309Y-113752380D01*
X166594166Y-113800000D01*
X166689404Y-113895238D01*
X166737023Y-113990476D01*
X166784642Y-114180952D01*
X166784642Y-114323809D01*
X166737023Y-114514285D01*
X166689404Y-114609523D01*
X166594166Y-114704761D01*
X166451309Y-114752380D01*
X166213214Y-114752380D01*
X164689404Y-116340000D02*
X164594166Y-116292380D01*
X164451309Y-116292380D01*
X164308452Y-116340000D01*
X164213214Y-116435238D01*
X164165595Y-116530476D01*
X164117976Y-116720952D01*
X164117976Y-116863809D01*
X164165595Y-117054285D01*
X164213214Y-117149523D01*
X164308452Y-117244761D01*
X164451309Y-117292380D01*
X164546547Y-117292380D01*
X164689404Y-117244761D01*
X164737023Y-117197142D01*
X164737023Y-116863809D01*
X164546547Y-116863809D01*
X165165595Y-117292380D02*
X165165595Y-116292380D01*
X165737023Y-117292380D01*
X165737023Y-116292380D01*
X166213214Y-117292380D02*
X166213214Y-116292380D01*
X166451309Y-116292380D01*
X166594166Y-116340000D01*
X166689404Y-116435238D01*
X166737023Y-116530476D01*
X166784642Y-116720952D01*
X166784642Y-116863809D01*
X166737023Y-117054285D01*
X166689404Y-117149523D01*
X166594166Y-117244761D01*
X166451309Y-117292380D01*
X166213214Y-117292380D01*
X164641785Y-118832380D02*
X164165595Y-118832380D01*
X164117976Y-119308571D01*
X164165595Y-119260952D01*
X164260833Y-119213333D01*
X164498928Y-119213333D01*
X164594166Y-119260952D01*
X164641785Y-119308571D01*
X164689404Y-119403809D01*
X164689404Y-119641904D01*
X164641785Y-119737142D01*
X164594166Y-119784761D01*
X164498928Y-119832380D01*
X164260833Y-119832380D01*
X164165595Y-119784761D01*
X164117976Y-119737142D01*
X165022738Y-119165714D02*
X165260833Y-119832380D01*
X165498928Y-119165714D01*
X164641785Y-111212380D02*
X164165595Y-111212380D01*
X164117976Y-111688571D01*
X164165595Y-111640952D01*
X164260833Y-111593333D01*
X164498928Y-111593333D01*
X164594166Y-111640952D01*
X164641785Y-111688571D01*
X164689404Y-111783809D01*
X164689404Y-112021904D01*
X164641785Y-112117142D01*
X164594166Y-112164761D01*
X164498928Y-112212380D01*
X164260833Y-112212380D01*
X164165595Y-112164761D01*
X164117976Y-112117142D01*
X165022738Y-111545714D02*
X165260833Y-112212380D01*
X165498928Y-111545714D01*
X188008809Y-137507380D02*
X188008809Y-136507380D01*
X188389761Y-136507380D01*
X188485000Y-136555000D01*
X188532619Y-136602619D01*
X188580238Y-136697857D01*
X188580238Y-136840714D01*
X188532619Y-136935952D01*
X188485000Y-136983571D01*
X188389761Y-137031190D01*
X188008809Y-137031190D01*
X189151666Y-137507380D02*
X189056428Y-137459761D01*
X189008809Y-137412142D01*
X188961190Y-137316904D01*
X188961190Y-137031190D01*
X189008809Y-136935952D01*
X189056428Y-136888333D01*
X189151666Y-136840714D01*
X189294523Y-136840714D01*
X189389761Y-136888333D01*
X189437380Y-136935952D01*
X189485000Y-137031190D01*
X189485000Y-137316904D01*
X189437380Y-137412142D01*
X189389761Y-137459761D01*
X189294523Y-137507380D01*
X189151666Y-137507380D01*
X189818333Y-136840714D02*
X190008809Y-137507380D01*
X190199285Y-137031190D01*
X190389761Y-137507380D01*
X190580238Y-136840714D01*
X191342142Y-137459761D02*
X191246904Y-137507380D01*
X191056428Y-137507380D01*
X190961190Y-137459761D01*
X190913571Y-137364523D01*
X190913571Y-136983571D01*
X190961190Y-136888333D01*
X191056428Y-136840714D01*
X191246904Y-136840714D01*
X191342142Y-136888333D01*
X191389761Y-136983571D01*
X191389761Y-137078809D01*
X190913571Y-137174047D01*
X191818333Y-137507380D02*
X191818333Y-136840714D01*
X191818333Y-137031190D02*
X191865952Y-136935952D01*
X191913571Y-136888333D01*
X192008809Y-136840714D01*
X192104047Y-136840714D01*
X81708666Y-138247023D02*
X81708666Y-137770833D01*
X81994380Y-138342261D02*
X80994380Y-138008928D01*
X81994380Y-137675595D01*
X80994380Y-137437500D02*
X80994380Y-136818452D01*
X81375333Y-137151785D01*
X81375333Y-137008928D01*
X81422952Y-136913690D01*
X81470571Y-136866071D01*
X81565809Y-136818452D01*
X81803904Y-136818452D01*
X81899142Y-136866071D01*
X81946761Y-136913690D01*
X81994380Y-137008928D01*
X81994380Y-137294642D01*
X81946761Y-137389880D01*
X81899142Y-137437500D01*
X80946761Y-135675595D02*
X82232476Y-136532738D01*
X81946761Y-135389880D02*
X81994380Y-135247023D01*
X81994380Y-135008928D01*
X81946761Y-134913690D01*
X81899142Y-134866071D01*
X81803904Y-134818452D01*
X81708666Y-134818452D01*
X81613428Y-134866071D01*
X81565809Y-134913690D01*
X81518190Y-135008928D01*
X81470571Y-135199404D01*
X81422952Y-135294642D01*
X81375333Y-135342261D01*
X81280095Y-135389880D01*
X81184857Y-135389880D01*
X81089619Y-135342261D01*
X81042000Y-135294642D01*
X80994380Y-135199404D01*
X80994380Y-134961309D01*
X81042000Y-134818452D01*
X81994380Y-134389880D02*
X80994380Y-134389880D01*
X80994380Y-134151785D01*
X81042000Y-134008928D01*
X81137238Y-133913690D01*
X81232476Y-133866071D01*
X81422952Y-133818452D01*
X81565809Y-133818452D01*
X81756285Y-133866071D01*
X81851523Y-133913690D01*
X81946761Y-134008928D01*
X81994380Y-134151785D01*
X81994380Y-134389880D01*
X81708666Y-133437500D02*
X81708666Y-132961309D01*
X81994380Y-133532738D02*
X80994380Y-133199404D01*
X81994380Y-132866071D01*
X81994380Y-132008928D02*
X81994380Y-132580357D01*
X81994380Y-132294642D02*
X80994380Y-132294642D01*
X81137238Y-132389880D01*
X81232476Y-132485119D01*
X81280095Y-132580357D01*
X80946761Y-130866071D02*
X82232476Y-131723214D01*
X80994380Y-130675595D02*
X80994380Y-130104166D01*
X81994380Y-130389880D02*
X80994380Y-130389880D01*
X80994380Y-129866071D02*
X81994380Y-129199404D01*
X80994380Y-129199404D02*
X81994380Y-129866071D01*
X81327714Y-128389880D02*
X81994380Y-128389880D01*
X80946761Y-128627976D02*
X81661047Y-128866071D01*
X81661047Y-128247023D01*
X84246666Y-138247023D02*
X84246666Y-137770833D01*
X84532380Y-138342261D02*
X83532380Y-138008928D01*
X84532380Y-137675595D01*
X83627619Y-137389880D02*
X83580000Y-137342261D01*
X83532380Y-137247023D01*
X83532380Y-137008928D01*
X83580000Y-136913690D01*
X83627619Y-136866071D01*
X83722857Y-136818452D01*
X83818095Y-136818452D01*
X83960952Y-136866071D01*
X84532380Y-137437500D01*
X84532380Y-136818452D01*
X83484761Y-135675595D02*
X84770476Y-136532738D01*
X84484761Y-135389880D02*
X84532380Y-135247023D01*
X84532380Y-135008928D01*
X84484761Y-134913690D01*
X84437142Y-134866071D01*
X84341904Y-134818452D01*
X84246666Y-134818452D01*
X84151428Y-134866071D01*
X84103809Y-134913690D01*
X84056190Y-135008928D01*
X84008571Y-135199404D01*
X83960952Y-135294642D01*
X83913333Y-135342261D01*
X83818095Y-135389880D01*
X83722857Y-135389880D01*
X83627619Y-135342261D01*
X83580000Y-135294642D01*
X83532380Y-135199404D01*
X83532380Y-134961309D01*
X83580000Y-134818452D01*
X84437142Y-133818452D02*
X84484761Y-133866071D01*
X84532380Y-134008928D01*
X84532380Y-134104166D01*
X84484761Y-134247023D01*
X84389523Y-134342261D01*
X84294285Y-134389880D01*
X84103809Y-134437500D01*
X83960952Y-134437500D01*
X83770476Y-134389880D01*
X83675238Y-134342261D01*
X83580000Y-134247023D01*
X83532380Y-134104166D01*
X83532380Y-134008928D01*
X83580000Y-133866071D01*
X83627619Y-133818452D01*
X84532380Y-132913690D02*
X84532380Y-133389880D01*
X83532380Y-133389880D01*
X84532380Y-132056547D02*
X84532380Y-132627976D01*
X84532380Y-132342261D02*
X83532380Y-132342261D01*
X83675238Y-132437500D01*
X83770476Y-132532738D01*
X83818095Y-132627976D01*
X83484761Y-130913690D02*
X84770476Y-131770833D01*
X84532380Y-130008928D02*
X84056190Y-130342261D01*
X84532380Y-130580357D02*
X83532380Y-130580357D01*
X83532380Y-130199404D01*
X83580000Y-130104166D01*
X83627619Y-130056547D01*
X83722857Y-130008928D01*
X83865714Y-130008928D01*
X83960952Y-130056547D01*
X84008571Y-130104166D01*
X84056190Y-130199404D01*
X84056190Y-130580357D01*
X83532380Y-129675595D02*
X84532380Y-129008928D01*
X83532380Y-129008928D02*
X84532380Y-129675595D01*
X83865714Y-128199404D02*
X84532380Y-128199404D01*
X83484761Y-128437500D02*
X84199047Y-128675595D01*
X84199047Y-128056547D01*
X86072380Y-138294642D02*
X86072380Y-137675595D01*
X86453333Y-138008928D01*
X86453333Y-137866071D01*
X86500952Y-137770833D01*
X86548571Y-137723214D01*
X86643809Y-137675595D01*
X86881904Y-137675595D01*
X86977142Y-137723214D01*
X87024761Y-137770833D01*
X87072380Y-137866071D01*
X87072380Y-138151785D01*
X87024761Y-138247023D01*
X86977142Y-138294642D01*
X86977142Y-137247023D02*
X87024761Y-137199404D01*
X87072380Y-137247023D01*
X87024761Y-137294642D01*
X86977142Y-137247023D01*
X87072380Y-137247023D01*
X86072380Y-136866071D02*
X86072380Y-136247023D01*
X86453333Y-136580357D01*
X86453333Y-136437500D01*
X86500952Y-136342261D01*
X86548571Y-136294642D01*
X86643809Y-136247023D01*
X86881904Y-136247023D01*
X86977142Y-136294642D01*
X87024761Y-136342261D01*
X87072380Y-136437500D01*
X87072380Y-136723214D01*
X87024761Y-136818452D01*
X86977142Y-136866071D01*
X86405714Y-135913690D02*
X87072380Y-135675595D01*
X86405714Y-135437500D01*
X88662000Y-137675595D02*
X88614380Y-137770833D01*
X88614380Y-137913690D01*
X88662000Y-138056547D01*
X88757238Y-138151785D01*
X88852476Y-138199404D01*
X89042952Y-138247023D01*
X89185809Y-138247023D01*
X89376285Y-138199404D01*
X89471523Y-138151785D01*
X89566761Y-138056547D01*
X89614380Y-137913690D01*
X89614380Y-137818452D01*
X89566761Y-137675595D01*
X89519142Y-137627976D01*
X89185809Y-137627976D01*
X89185809Y-137818452D01*
X89614380Y-137199404D02*
X88614380Y-137199404D01*
X89614380Y-136627976D01*
X88614380Y-136627976D01*
X89614380Y-136151785D02*
X88614380Y-136151785D01*
X88614380Y-135913690D01*
X88662000Y-135770833D01*
X88757238Y-135675595D01*
X88852476Y-135627976D01*
X89042952Y-135580357D01*
X89185809Y-135580357D01*
X89376285Y-135627976D01*
X89471523Y-135675595D01*
X89566761Y-135770833D01*
X89614380Y-135913690D01*
X89614380Y-136151785D01*
X170280476Y-96072857D02*
X170394761Y-96110952D01*
X170432857Y-96149047D01*
X170470952Y-96225238D01*
X170470952Y-96339523D01*
X170432857Y-96415714D01*
X170394761Y-96453809D01*
X170318571Y-96491904D01*
X170013809Y-96491904D01*
X170013809Y-95691904D01*
X170280476Y-95691904D01*
X170356666Y-95730000D01*
X170394761Y-95768095D01*
X170432857Y-95844285D01*
X170432857Y-95920476D01*
X170394761Y-95996666D01*
X170356666Y-96034761D01*
X170280476Y-96072857D01*
X170013809Y-96072857D01*
X171156666Y-96491904D02*
X171156666Y-96072857D01*
X171118571Y-95996666D01*
X171042380Y-95958571D01*
X170890000Y-95958571D01*
X170813809Y-95996666D01*
X171156666Y-96453809D02*
X171080476Y-96491904D01*
X170890000Y-96491904D01*
X170813809Y-96453809D01*
X170775714Y-96377619D01*
X170775714Y-96301428D01*
X170813809Y-96225238D01*
X170890000Y-96187142D01*
X171080476Y-96187142D01*
X171156666Y-96149047D01*
X171423333Y-95958571D02*
X171728095Y-95958571D01*
X171537619Y-95691904D02*
X171537619Y-96377619D01*
X171575714Y-96453809D01*
X171651904Y-96491904D01*
X171728095Y-96491904D01*
X171880476Y-95958571D02*
X172185238Y-95958571D01*
X171994761Y-95691904D02*
X171994761Y-96377619D01*
X172032857Y-96453809D01*
X172109047Y-96491904D01*
X172185238Y-96491904D01*
X172756666Y-96453809D02*
X172680476Y-96491904D01*
X172528095Y-96491904D01*
X172451904Y-96453809D01*
X172413809Y-96377619D01*
X172413809Y-96072857D01*
X172451904Y-95996666D01*
X172528095Y-95958571D01*
X172680476Y-95958571D01*
X172756666Y-95996666D01*
X172794761Y-96072857D01*
X172794761Y-96149047D01*
X172413809Y-96225238D01*
X173137619Y-96491904D02*
X173137619Y-95958571D01*
X173137619Y-96110952D02*
X173175714Y-96034761D01*
X173213809Y-95996666D01*
X173290000Y-95958571D01*
X173366190Y-95958571D01*
X173556666Y-95958571D02*
X173747142Y-96491904D01*
X173937619Y-95958571D02*
X173747142Y-96491904D01*
X173670952Y-96682380D01*
X173632857Y-96720476D01*
X173556666Y-96758571D01*
X174813809Y-96453809D02*
X174928095Y-96491904D01*
X175118571Y-96491904D01*
X175194761Y-96453809D01*
X175232857Y-96415714D01*
X175270952Y-96339523D01*
X175270952Y-96263333D01*
X175232857Y-96187142D01*
X175194761Y-96149047D01*
X175118571Y-96110952D01*
X174966190Y-96072857D01*
X174890000Y-96034761D01*
X174851904Y-95996666D01*
X174813809Y-95920476D01*
X174813809Y-95844285D01*
X174851904Y-95768095D01*
X174890000Y-95730000D01*
X174966190Y-95691904D01*
X175156666Y-95691904D01*
X175270952Y-95730000D01*
X175918571Y-96453809D02*
X175842380Y-96491904D01*
X175690000Y-96491904D01*
X175613809Y-96453809D01*
X175575714Y-96377619D01*
X175575714Y-96072857D01*
X175613809Y-95996666D01*
X175690000Y-95958571D01*
X175842380Y-95958571D01*
X175918571Y-95996666D01*
X175956666Y-96072857D01*
X175956666Y-96149047D01*
X175575714Y-96225238D01*
X176413809Y-96491904D02*
X176337619Y-96453809D01*
X176299523Y-96377619D01*
X176299523Y-95691904D01*
X177023333Y-96453809D02*
X176947142Y-96491904D01*
X176794761Y-96491904D01*
X176718571Y-96453809D01*
X176680476Y-96377619D01*
X176680476Y-96072857D01*
X176718571Y-95996666D01*
X176794761Y-95958571D01*
X176947142Y-95958571D01*
X177023333Y-95996666D01*
X177061428Y-96072857D01*
X177061428Y-96149047D01*
X176680476Y-96225238D01*
X177747142Y-96453809D02*
X177670952Y-96491904D01*
X177518571Y-96491904D01*
X177442380Y-96453809D01*
X177404285Y-96415714D01*
X177366190Y-96339523D01*
X177366190Y-96110952D01*
X177404285Y-96034761D01*
X177442380Y-95996666D01*
X177518571Y-95958571D01*
X177670952Y-95958571D01*
X177747142Y-95996666D01*
X177975714Y-95958571D02*
X178280476Y-95958571D01*
X178090000Y-95691904D02*
X178090000Y-96377619D01*
X178128095Y-96453809D01*
X178204285Y-96491904D01*
X178280476Y-96491904D01*
X170204285Y-97841904D02*
X169823333Y-97841904D01*
X169823333Y-97041904D01*
X170775714Y-97803809D02*
X170699523Y-97841904D01*
X170547142Y-97841904D01*
X170470952Y-97803809D01*
X170432857Y-97727619D01*
X170432857Y-97422857D01*
X170470952Y-97346666D01*
X170547142Y-97308571D01*
X170699523Y-97308571D01*
X170775714Y-97346666D01*
X170813809Y-97422857D01*
X170813809Y-97499047D01*
X170432857Y-97575238D01*
X171042380Y-97308571D02*
X171347142Y-97308571D01*
X171156666Y-97841904D02*
X171156666Y-97156190D01*
X171194761Y-97080000D01*
X171270952Y-97041904D01*
X171347142Y-97041904D01*
X171499523Y-97308571D02*
X171804285Y-97308571D01*
X171613809Y-97041904D02*
X171613809Y-97727619D01*
X171651904Y-97803809D01*
X171728095Y-97841904D01*
X171804285Y-97841904D01*
X172680476Y-97422857D02*
X173290000Y-97422857D01*
X173290000Y-97651428D02*
X172680476Y-97651428D01*
X174547142Y-97422857D02*
X174280476Y-97422857D01*
X174280476Y-97841904D02*
X174280476Y-97041904D01*
X174661428Y-97041904D01*
X175270952Y-97803809D02*
X175194761Y-97841904D01*
X175042380Y-97841904D01*
X174966190Y-97803809D01*
X174928095Y-97727619D01*
X174928095Y-97422857D01*
X174966190Y-97346666D01*
X175042380Y-97308571D01*
X175194761Y-97308571D01*
X175270952Y-97346666D01*
X175309047Y-97422857D01*
X175309047Y-97499047D01*
X174928095Y-97575238D01*
X175994761Y-97841904D02*
X175994761Y-97422857D01*
X175956666Y-97346666D01*
X175880476Y-97308571D01*
X175728095Y-97308571D01*
X175651904Y-97346666D01*
X175994761Y-97803809D02*
X175918571Y-97841904D01*
X175728095Y-97841904D01*
X175651904Y-97803809D01*
X175613809Y-97727619D01*
X175613809Y-97651428D01*
X175651904Y-97575238D01*
X175728095Y-97537142D01*
X175918571Y-97537142D01*
X175994761Y-97499047D01*
X176261428Y-97308571D02*
X176566190Y-97308571D01*
X176375714Y-97041904D02*
X176375714Y-97727619D01*
X176413809Y-97803809D01*
X176490000Y-97841904D01*
X176566190Y-97841904D01*
X176832857Y-97841904D02*
X176832857Y-97041904D01*
X177175714Y-97841904D02*
X177175714Y-97422857D01*
X177137619Y-97346666D01*
X177061428Y-97308571D01*
X176947142Y-97308571D01*
X176870952Y-97346666D01*
X176832857Y-97384761D01*
X177861428Y-97803809D02*
X177785238Y-97841904D01*
X177632857Y-97841904D01*
X177556666Y-97803809D01*
X177518571Y-97727619D01*
X177518571Y-97422857D01*
X177556666Y-97346666D01*
X177632857Y-97308571D01*
X177785238Y-97308571D01*
X177861428Y-97346666D01*
X177899523Y-97422857D01*
X177899523Y-97499047D01*
X177518571Y-97575238D01*
X178242380Y-97841904D02*
X178242380Y-97308571D01*
X178242380Y-97460952D02*
X178280476Y-97384761D01*
X178318571Y-97346666D01*
X178394761Y-97308571D01*
X178470952Y-97308571D01*
X169613809Y-99191904D02*
X169347142Y-98810952D01*
X169156666Y-99191904D02*
X169156666Y-98391904D01*
X169461428Y-98391904D01*
X169537619Y-98430000D01*
X169575714Y-98468095D01*
X169613809Y-98544285D01*
X169613809Y-98658571D01*
X169575714Y-98734761D01*
X169537619Y-98772857D01*
X169461428Y-98810952D01*
X169156666Y-98810952D01*
X169956666Y-99191904D02*
X169956666Y-98658571D01*
X169956666Y-98391904D02*
X169918571Y-98430000D01*
X169956666Y-98468095D01*
X169994761Y-98430000D01*
X169956666Y-98391904D01*
X169956666Y-98468095D01*
X170680476Y-98658571D02*
X170680476Y-99306190D01*
X170642380Y-99382380D01*
X170604285Y-99420476D01*
X170528095Y-99458571D01*
X170413809Y-99458571D01*
X170337619Y-99420476D01*
X170680476Y-99153809D02*
X170604285Y-99191904D01*
X170451904Y-99191904D01*
X170375714Y-99153809D01*
X170337619Y-99115714D01*
X170299523Y-99039523D01*
X170299523Y-98810952D01*
X170337619Y-98734761D01*
X170375714Y-98696666D01*
X170451904Y-98658571D01*
X170604285Y-98658571D01*
X170680476Y-98696666D01*
X171061428Y-99191904D02*
X171061428Y-98391904D01*
X171404285Y-99191904D02*
X171404285Y-98772857D01*
X171366190Y-98696666D01*
X171290000Y-98658571D01*
X171175714Y-98658571D01*
X171099523Y-98696666D01*
X171061428Y-98734761D01*
X171670952Y-98658571D02*
X171975714Y-98658571D01*
X171785238Y-98391904D02*
X171785238Y-99077619D01*
X171823333Y-99153809D01*
X171899523Y-99191904D01*
X171975714Y-99191904D01*
X172851904Y-98772857D02*
X173461428Y-98772857D01*
X173461428Y-99001428D02*
X172851904Y-99001428D01*
X174604285Y-98391904D02*
X174756666Y-98391904D01*
X174832857Y-98430000D01*
X174909047Y-98506190D01*
X174947142Y-98658571D01*
X174947142Y-98925238D01*
X174909047Y-99077619D01*
X174832857Y-99153809D01*
X174756666Y-99191904D01*
X174604285Y-99191904D01*
X174528095Y-99153809D01*
X174451904Y-99077619D01*
X174413809Y-98925238D01*
X174413809Y-98658571D01*
X174451904Y-98506190D01*
X174528095Y-98430000D01*
X174604285Y-98391904D01*
X175290000Y-98658571D02*
X175290000Y-99191904D01*
X175290000Y-98734761D02*
X175328095Y-98696666D01*
X175404285Y-98658571D01*
X175518571Y-98658571D01*
X175594761Y-98696666D01*
X175632857Y-98772857D01*
X175632857Y-99191904D01*
X176013809Y-99191904D02*
X176013809Y-98391904D01*
X176013809Y-98696666D02*
X176090000Y-98658571D01*
X176242380Y-98658571D01*
X176318571Y-98696666D01*
X176356666Y-98734761D01*
X176394761Y-98810952D01*
X176394761Y-99039523D01*
X176356666Y-99115714D01*
X176318571Y-99153809D01*
X176242380Y-99191904D01*
X176090000Y-99191904D01*
X176013809Y-99153809D01*
X176851904Y-99191904D02*
X176775714Y-99153809D01*
X176737619Y-99115714D01*
X176699523Y-99039523D01*
X176699523Y-98810952D01*
X176737619Y-98734761D01*
X176775714Y-98696666D01*
X176851904Y-98658571D01*
X176966190Y-98658571D01*
X177042380Y-98696666D01*
X177080476Y-98734761D01*
X177118571Y-98810952D01*
X177118571Y-99039523D01*
X177080476Y-99115714D01*
X177042380Y-99153809D01*
X176966190Y-99191904D01*
X176851904Y-99191904D01*
X177804285Y-99191904D02*
X177804285Y-98772857D01*
X177766190Y-98696666D01*
X177690000Y-98658571D01*
X177537619Y-98658571D01*
X177461428Y-98696666D01*
X177804285Y-99153809D02*
X177728095Y-99191904D01*
X177537619Y-99191904D01*
X177461428Y-99153809D01*
X177423333Y-99077619D01*
X177423333Y-99001428D01*
X177461428Y-98925238D01*
X177537619Y-98887142D01*
X177728095Y-98887142D01*
X177804285Y-98849047D01*
X178185238Y-99191904D02*
X178185238Y-98658571D01*
X178185238Y-98810952D02*
X178223333Y-98734761D01*
X178261428Y-98696666D01*
X178337619Y-98658571D01*
X178413809Y-98658571D01*
X179023333Y-99191904D02*
X179023333Y-98391904D01*
X179023333Y-99153809D02*
X178947142Y-99191904D01*
X178794761Y-99191904D01*
X178718571Y-99153809D01*
X178680476Y-99115714D01*
X178642380Y-99039523D01*
X178642380Y-98810952D01*
X178680476Y-98734761D01*
X178718571Y-98696666D01*
X178794761Y-98658571D01*
X178947142Y-98658571D01*
X179023333Y-98696666D01*
X143168666Y-138142023D02*
X143168666Y-137665833D01*
X143454380Y-138237261D02*
X142454380Y-137903928D01*
X143454380Y-137570595D01*
X142454380Y-137046785D02*
X142454380Y-136951547D01*
X142502000Y-136856309D01*
X142549619Y-136808690D01*
X142644857Y-136761071D01*
X142835333Y-136713452D01*
X143073428Y-136713452D01*
X143263904Y-136761071D01*
X143359142Y-136808690D01*
X143406761Y-136856309D01*
X143454380Y-136951547D01*
X143454380Y-137046785D01*
X143406761Y-137142023D01*
X143359142Y-137189642D01*
X143263904Y-137237261D01*
X143073428Y-137284880D01*
X142835333Y-137284880D01*
X142644857Y-137237261D01*
X142549619Y-137189642D01*
X142502000Y-137142023D01*
X142454380Y-137046785D01*
X142406761Y-135570595D02*
X143692476Y-136427738D01*
X142454380Y-135380119D02*
X142454380Y-134808690D01*
X143454380Y-135094404D02*
X142454380Y-135094404D01*
X142454380Y-134570595D02*
X143454380Y-133903928D01*
X142454380Y-133903928D02*
X143454380Y-134570595D01*
X142454380Y-133618214D02*
X142454380Y-132999166D01*
X142835333Y-133332500D01*
X142835333Y-133189642D01*
X142882952Y-133094404D01*
X142930571Y-133046785D01*
X143025809Y-132999166D01*
X143263904Y-132999166D01*
X143359142Y-133046785D01*
X143406761Y-133094404D01*
X143454380Y-133189642D01*
X143454380Y-133475357D01*
X143406761Y-133570595D01*
X143359142Y-133618214D01*
X145708666Y-138142023D02*
X145708666Y-137665833D01*
X145994380Y-138237261D02*
X144994380Y-137903928D01*
X145994380Y-137570595D01*
X145994380Y-136713452D02*
X145994380Y-137284880D01*
X145994380Y-136999166D02*
X144994380Y-136999166D01*
X145137238Y-137094404D01*
X145232476Y-137189642D01*
X145280095Y-137284880D01*
X144946761Y-135570595D02*
X146232476Y-136427738D01*
X145994380Y-134665833D02*
X145518190Y-134999166D01*
X145994380Y-135237261D02*
X144994380Y-135237261D01*
X144994380Y-134856309D01*
X145042000Y-134761071D01*
X145089619Y-134713452D01*
X145184857Y-134665833D01*
X145327714Y-134665833D01*
X145422952Y-134713452D01*
X145470571Y-134761071D01*
X145518190Y-134856309D01*
X145518190Y-135237261D01*
X144994380Y-134332500D02*
X145994380Y-133665833D01*
X144994380Y-133665833D02*
X145994380Y-134332500D01*
X144994380Y-133380119D02*
X144994380Y-132761071D01*
X145375333Y-133094404D01*
X145375333Y-132951547D01*
X145422952Y-132856309D01*
X145470571Y-132808690D01*
X145565809Y-132761071D01*
X145803904Y-132761071D01*
X145899142Y-132808690D01*
X145946761Y-132856309D01*
X145994380Y-132951547D01*
X145994380Y-133237261D01*
X145946761Y-133332500D01*
X145899142Y-133380119D01*
X151074380Y-138094404D02*
X150074380Y-138094404D01*
X150074380Y-137856309D01*
X150122000Y-137713452D01*
X150217238Y-137618214D01*
X150312476Y-137570595D01*
X150502952Y-137522976D01*
X150645809Y-137522976D01*
X150836285Y-137570595D01*
X150931523Y-137618214D01*
X151026761Y-137713452D01*
X151074380Y-137856309D01*
X151074380Y-138094404D01*
X151074380Y-136570595D02*
X151074380Y-137142023D01*
X151074380Y-136856309D02*
X150074380Y-136856309D01*
X150217238Y-136951547D01*
X150312476Y-137046785D01*
X150360095Y-137142023D01*
X150026761Y-135427738D02*
X151312476Y-136284880D01*
X150074380Y-135237261D02*
X150074380Y-134665833D01*
X151074380Y-134951547D02*
X150074380Y-134951547D01*
X150074380Y-134427738D02*
X151074380Y-133761071D01*
X150074380Y-133761071D02*
X151074380Y-134427738D01*
X151074380Y-132856309D02*
X151074380Y-133427738D01*
X151074380Y-133142023D02*
X150074380Y-133142023D01*
X150217238Y-133237261D01*
X150312476Y-133332500D01*
X150360095Y-133427738D01*
X153614380Y-138034404D02*
X152614380Y-138034404D01*
X152614380Y-137796309D01*
X152662000Y-137653452D01*
X152757238Y-137558214D01*
X152852476Y-137510595D01*
X153042952Y-137462976D01*
X153185809Y-137462976D01*
X153376285Y-137510595D01*
X153471523Y-137558214D01*
X153566761Y-137653452D01*
X153614380Y-137796309D01*
X153614380Y-138034404D01*
X153614380Y-136510595D02*
X153614380Y-137082023D01*
X153614380Y-136796309D02*
X152614380Y-136796309D01*
X152757238Y-136891547D01*
X152852476Y-136986785D01*
X152900095Y-137082023D01*
X152566761Y-135367738D02*
X153852476Y-136224880D01*
X153614380Y-134462976D02*
X153138190Y-134796309D01*
X153614380Y-135034404D02*
X152614380Y-135034404D01*
X152614380Y-134653452D01*
X152662000Y-134558214D01*
X152709619Y-134510595D01*
X152804857Y-134462976D01*
X152947714Y-134462976D01*
X153042952Y-134510595D01*
X153090571Y-134558214D01*
X153138190Y-134653452D01*
X153138190Y-135034404D01*
X152614380Y-134129642D02*
X153614380Y-133462976D01*
X152614380Y-133462976D02*
X153614380Y-134129642D01*
X153614380Y-132558214D02*
X153614380Y-133129642D01*
X153614380Y-132843928D02*
X152614380Y-132843928D01*
X152757238Y-132939166D01*
X152852476Y-133034404D01*
X152900095Y-133129642D01*
X155202000Y-137510595D02*
X155154380Y-137605833D01*
X155154380Y-137748690D01*
X155202000Y-137891547D01*
X155297238Y-137986785D01*
X155392476Y-138034404D01*
X155582952Y-138082023D01*
X155725809Y-138082023D01*
X155916285Y-138034404D01*
X156011523Y-137986785D01*
X156106761Y-137891547D01*
X156154380Y-137748690D01*
X156154380Y-137653452D01*
X156106761Y-137510595D01*
X156059142Y-137462976D01*
X155725809Y-137462976D01*
X155725809Y-137653452D01*
X156154380Y-137034404D02*
X155154380Y-137034404D01*
X156154380Y-136462976D01*
X155154380Y-136462976D01*
X156154380Y-135986785D02*
X155154380Y-135986785D01*
X155154380Y-135748690D01*
X155202000Y-135605833D01*
X155297238Y-135510595D01*
X155392476Y-135462976D01*
X155582952Y-135415357D01*
X155725809Y-135415357D01*
X155916285Y-135462976D01*
X156011523Y-135510595D01*
X156106761Y-135605833D01*
X156154380Y-135748690D01*
X156154380Y-135986785D01*
X147582000Y-137570595D02*
X147534380Y-137665833D01*
X147534380Y-137808690D01*
X147582000Y-137951547D01*
X147677238Y-138046785D01*
X147772476Y-138094404D01*
X147962952Y-138142023D01*
X148105809Y-138142023D01*
X148296285Y-138094404D01*
X148391523Y-138046785D01*
X148486761Y-137951547D01*
X148534380Y-137808690D01*
X148534380Y-137713452D01*
X148486761Y-137570595D01*
X148439142Y-137522976D01*
X148105809Y-137522976D01*
X148105809Y-137713452D01*
X148534380Y-137094404D02*
X147534380Y-137094404D01*
X148534380Y-136522976D01*
X147534380Y-136522976D01*
X148534380Y-136046785D02*
X147534380Y-136046785D01*
X147534380Y-135808690D01*
X147582000Y-135665833D01*
X147677238Y-135570595D01*
X147772476Y-135522976D01*
X147962952Y-135475357D01*
X148105809Y-135475357D01*
X148296285Y-135522976D01*
X148391523Y-135570595D01*
X148486761Y-135665833D01*
X148534380Y-135808690D01*
X148534380Y-136046785D01*
X139962000Y-137570595D02*
X139914380Y-137665833D01*
X139914380Y-137808690D01*
X139962000Y-137951547D01*
X140057238Y-138046785D01*
X140152476Y-138094404D01*
X140342952Y-138142023D01*
X140485809Y-138142023D01*
X140676285Y-138094404D01*
X140771523Y-138046785D01*
X140866761Y-137951547D01*
X140914380Y-137808690D01*
X140914380Y-137713452D01*
X140866761Y-137570595D01*
X140819142Y-137522976D01*
X140485809Y-137522976D01*
X140485809Y-137713452D01*
X140914380Y-137094404D02*
X139914380Y-137094404D01*
X140914380Y-136522976D01*
X139914380Y-136522976D01*
X140914380Y-136046785D02*
X139914380Y-136046785D01*
X139914380Y-135808690D01*
X139962000Y-135665833D01*
X140057238Y-135570595D01*
X140152476Y-135522976D01*
X140342952Y-135475357D01*
X140485809Y-135475357D01*
X140676285Y-135522976D01*
X140771523Y-135570595D01*
X140866761Y-135665833D01*
X140914380Y-135808690D01*
X140914380Y-136046785D01*
X138088666Y-138142023D02*
X138088666Y-137665833D01*
X138374380Y-138237261D02*
X137374380Y-137903928D01*
X138374380Y-137570595D01*
X137374380Y-137332500D02*
X137374380Y-136665833D01*
X138374380Y-137094404D01*
X137326761Y-135570595D02*
X138612476Y-136427738D01*
X138374380Y-134665833D02*
X137898190Y-134999166D01*
X138374380Y-135237261D02*
X137374380Y-135237261D01*
X137374380Y-134856309D01*
X137422000Y-134761071D01*
X137469619Y-134713452D01*
X137564857Y-134665833D01*
X137707714Y-134665833D01*
X137802952Y-134713452D01*
X137850571Y-134761071D01*
X137898190Y-134856309D01*
X137898190Y-135237261D01*
X137374380Y-134332500D02*
X138374380Y-133665833D01*
X137374380Y-133665833D02*
X138374380Y-134332500D01*
X137374380Y-132808690D02*
X137374380Y-133284880D01*
X137850571Y-133332500D01*
X137802952Y-133284880D01*
X137755333Y-133189642D01*
X137755333Y-132951547D01*
X137802952Y-132856309D01*
X137850571Y-132808690D01*
X137945809Y-132761071D01*
X138183904Y-132761071D01*
X138279142Y-132808690D01*
X138326761Y-132856309D01*
X138374380Y-132951547D01*
X138374380Y-133189642D01*
X138326761Y-133284880D01*
X138279142Y-133332500D01*
X135548666Y-138142023D02*
X135548666Y-137665833D01*
X135834380Y-138237261D02*
X134834380Y-137903928D01*
X135834380Y-137570595D01*
X134834380Y-136808690D02*
X134834380Y-136999166D01*
X134882000Y-137094404D01*
X134929619Y-137142023D01*
X135072476Y-137237261D01*
X135262952Y-137284880D01*
X135643904Y-137284880D01*
X135739142Y-137237261D01*
X135786761Y-137189642D01*
X135834380Y-137094404D01*
X135834380Y-136903928D01*
X135786761Y-136808690D01*
X135739142Y-136761071D01*
X135643904Y-136713452D01*
X135405809Y-136713452D01*
X135310571Y-136761071D01*
X135262952Y-136808690D01*
X135215333Y-136903928D01*
X135215333Y-137094404D01*
X135262952Y-137189642D01*
X135310571Y-137237261D01*
X135405809Y-137284880D01*
X134786761Y-135570595D02*
X136072476Y-136427738D01*
X134834380Y-135380119D02*
X134834380Y-134808690D01*
X135834380Y-135094404D02*
X134834380Y-135094404D01*
X134834380Y-134570595D02*
X135834380Y-133903928D01*
X134834380Y-133903928D02*
X135834380Y-134570595D01*
X134834380Y-133046785D02*
X134834380Y-133522976D01*
X135310571Y-133570595D01*
X135262952Y-133522976D01*
X135215333Y-133427738D01*
X135215333Y-133189642D01*
X135262952Y-133094404D01*
X135310571Y-133046785D01*
X135405809Y-132999166D01*
X135643904Y-132999166D01*
X135739142Y-133046785D01*
X135786761Y-133094404D01*
X135834380Y-133189642D01*
X135834380Y-133427738D01*
X135786761Y-133522976D01*
X135739142Y-133570595D01*
X132342000Y-137570595D02*
X132294380Y-137665833D01*
X132294380Y-137808690D01*
X132342000Y-137951547D01*
X132437238Y-138046785D01*
X132532476Y-138094404D01*
X132722952Y-138142023D01*
X132865809Y-138142023D01*
X133056285Y-138094404D01*
X133151523Y-138046785D01*
X133246761Y-137951547D01*
X133294380Y-137808690D01*
X133294380Y-137713452D01*
X133246761Y-137570595D01*
X133199142Y-137522976D01*
X132865809Y-137522976D01*
X132865809Y-137713452D01*
X133294380Y-137094404D02*
X132294380Y-137094404D01*
X133294380Y-136522976D01*
X132294380Y-136522976D01*
X133294380Y-136046785D02*
X132294380Y-136046785D01*
X132294380Y-135808690D01*
X132342000Y-135665833D01*
X132437238Y-135570595D01*
X132532476Y-135522976D01*
X132722952Y-135475357D01*
X132865809Y-135475357D01*
X133056285Y-135522976D01*
X133151523Y-135570595D01*
X133246761Y-135665833D01*
X133294380Y-135808690D01*
X133294380Y-136046785D01*
X130468666Y-138142023D02*
X130468666Y-137665833D01*
X130754380Y-138237261D02*
X129754380Y-137903928D01*
X130754380Y-137570595D01*
X130754380Y-136713452D02*
X130754380Y-137284880D01*
X130754380Y-136999166D02*
X129754380Y-136999166D01*
X129897238Y-137094404D01*
X129992476Y-137189642D01*
X130040095Y-137284880D01*
X130754380Y-135761071D02*
X130754380Y-136332500D01*
X130754380Y-136046785D02*
X129754380Y-136046785D01*
X129897238Y-136142023D01*
X129992476Y-136237261D01*
X130040095Y-136332500D01*
X129706761Y-134618214D02*
X130992476Y-135475357D01*
X130754380Y-133713452D02*
X130278190Y-134046785D01*
X130754380Y-134284880D02*
X129754380Y-134284880D01*
X129754380Y-133903928D01*
X129802000Y-133808690D01*
X129849619Y-133761071D01*
X129944857Y-133713452D01*
X130087714Y-133713452D01*
X130182952Y-133761071D01*
X130230571Y-133808690D01*
X130278190Y-133903928D01*
X130278190Y-134284880D01*
X129754380Y-133380119D02*
X130754380Y-132713452D01*
X129754380Y-132713452D02*
X130754380Y-133380119D01*
X129754380Y-131903928D02*
X129754380Y-132094404D01*
X129802000Y-132189642D01*
X129849619Y-132237261D01*
X129992476Y-132332500D01*
X130182952Y-132380119D01*
X130563904Y-132380119D01*
X130659142Y-132332500D01*
X130706761Y-132284880D01*
X130754380Y-132189642D01*
X130754380Y-131999166D01*
X130706761Y-131903928D01*
X130659142Y-131856309D01*
X130563904Y-131808690D01*
X130325809Y-131808690D01*
X130230571Y-131856309D01*
X130182952Y-131903928D01*
X130135333Y-131999166D01*
X130135333Y-132189642D01*
X130182952Y-132284880D01*
X130230571Y-132332500D01*
X130325809Y-132380119D01*
X129706761Y-130665833D02*
X130992476Y-131522976D01*
X130706761Y-130380119D02*
X130754380Y-130237261D01*
X130754380Y-129999166D01*
X130706761Y-129903928D01*
X130659142Y-129856309D01*
X130563904Y-129808690D01*
X130468666Y-129808690D01*
X130373428Y-129856309D01*
X130325809Y-129903928D01*
X130278190Y-129999166D01*
X130230571Y-130189642D01*
X130182952Y-130284880D01*
X130135333Y-130332500D01*
X130040095Y-130380119D01*
X129944857Y-130380119D01*
X129849619Y-130332500D01*
X129802000Y-130284880D01*
X129754380Y-130189642D01*
X129754380Y-129951547D01*
X129802000Y-129808690D01*
X130754380Y-129380119D02*
X129754380Y-129380119D01*
X129754380Y-129142023D01*
X129802000Y-128999166D01*
X129897238Y-128903928D01*
X129992476Y-128856309D01*
X130182952Y-128808690D01*
X130325809Y-128808690D01*
X130516285Y-128856309D01*
X130611523Y-128903928D01*
X130706761Y-128999166D01*
X130754380Y-129142023D01*
X130754380Y-129380119D01*
X130468666Y-128427738D02*
X130468666Y-127951547D01*
X130754380Y-128522976D02*
X129754380Y-128189642D01*
X130754380Y-127856309D01*
X129849619Y-127570595D02*
X129802000Y-127522976D01*
X129754380Y-127427738D01*
X129754380Y-127189642D01*
X129802000Y-127094404D01*
X129849619Y-127046785D01*
X129944857Y-126999166D01*
X130040095Y-126999166D01*
X130182952Y-127046785D01*
X130754380Y-127618214D01*
X130754380Y-126999166D01*
X127928666Y-138142023D02*
X127928666Y-137665833D01*
X128214380Y-138237261D02*
X127214380Y-137903928D01*
X128214380Y-137570595D01*
X128214380Y-136713452D02*
X128214380Y-137284880D01*
X128214380Y-136999166D02*
X127214380Y-136999166D01*
X127357238Y-137094404D01*
X127452476Y-137189642D01*
X127500095Y-137284880D01*
X127214380Y-136094404D02*
X127214380Y-135999166D01*
X127262000Y-135903928D01*
X127309619Y-135856309D01*
X127404857Y-135808690D01*
X127595333Y-135761071D01*
X127833428Y-135761071D01*
X128023904Y-135808690D01*
X128119142Y-135856309D01*
X128166761Y-135903928D01*
X128214380Y-135999166D01*
X128214380Y-136094404D01*
X128166761Y-136189642D01*
X128119142Y-136237261D01*
X128023904Y-136284880D01*
X127833428Y-136332500D01*
X127595333Y-136332500D01*
X127404857Y-136284880D01*
X127309619Y-136237261D01*
X127262000Y-136189642D01*
X127214380Y-136094404D01*
X127166761Y-134618214D02*
X128452476Y-135475357D01*
X127214380Y-134427738D02*
X127214380Y-133856309D01*
X128214380Y-134142023D02*
X127214380Y-134142023D01*
X127214380Y-133618214D02*
X128214380Y-132951547D01*
X127214380Y-132951547D02*
X128214380Y-133618214D01*
X127214380Y-132142023D02*
X127214380Y-132332500D01*
X127262000Y-132427738D01*
X127309619Y-132475357D01*
X127452476Y-132570595D01*
X127642952Y-132618214D01*
X128023904Y-132618214D01*
X128119142Y-132570595D01*
X128166761Y-132522976D01*
X128214380Y-132427738D01*
X128214380Y-132237261D01*
X128166761Y-132142023D01*
X128119142Y-132094404D01*
X128023904Y-132046785D01*
X127785809Y-132046785D01*
X127690571Y-132094404D01*
X127642952Y-132142023D01*
X127595333Y-132237261D01*
X127595333Y-132427738D01*
X127642952Y-132522976D01*
X127690571Y-132570595D01*
X127785809Y-132618214D01*
X127166761Y-130903928D02*
X128452476Y-131761071D01*
X128166761Y-130618214D02*
X128214380Y-130475357D01*
X128214380Y-130237261D01*
X128166761Y-130142023D01*
X128119142Y-130094404D01*
X128023904Y-130046785D01*
X127928666Y-130046785D01*
X127833428Y-130094404D01*
X127785809Y-130142023D01*
X127738190Y-130237261D01*
X127690571Y-130427738D01*
X127642952Y-130522976D01*
X127595333Y-130570595D01*
X127500095Y-130618214D01*
X127404857Y-130618214D01*
X127309619Y-130570595D01*
X127262000Y-130522976D01*
X127214380Y-130427738D01*
X127214380Y-130189642D01*
X127262000Y-130046785D01*
X128119142Y-129046785D02*
X128166761Y-129094404D01*
X128214380Y-129237261D01*
X128214380Y-129332500D01*
X128166761Y-129475357D01*
X128071523Y-129570595D01*
X127976285Y-129618214D01*
X127785809Y-129665833D01*
X127642952Y-129665833D01*
X127452476Y-129618214D01*
X127357238Y-129570595D01*
X127262000Y-129475357D01*
X127214380Y-129332500D01*
X127214380Y-129237261D01*
X127262000Y-129094404D01*
X127309619Y-129046785D01*
X128214380Y-128142023D02*
X128214380Y-128618214D01*
X127214380Y-128618214D01*
X127309619Y-127856309D02*
X127262000Y-127808690D01*
X127214380Y-127713452D01*
X127214380Y-127475357D01*
X127262000Y-127380119D01*
X127309619Y-127332500D01*
X127404857Y-127284880D01*
X127500095Y-127284880D01*
X127642952Y-127332500D01*
X128214380Y-127903928D01*
X128214380Y-127284880D01*
X125674380Y-138094404D02*
X124674380Y-138094404D01*
X124674380Y-137856309D01*
X124722000Y-137713452D01*
X124817238Y-137618214D01*
X124912476Y-137570595D01*
X125102952Y-137522976D01*
X125245809Y-137522976D01*
X125436285Y-137570595D01*
X125531523Y-137618214D01*
X125626761Y-137713452D01*
X125674380Y-137856309D01*
X125674380Y-138094404D01*
X124769619Y-137142023D02*
X124722000Y-137094404D01*
X124674380Y-136999166D01*
X124674380Y-136761071D01*
X124722000Y-136665833D01*
X124769619Y-136618214D01*
X124864857Y-136570595D01*
X124960095Y-136570595D01*
X125102952Y-136618214D01*
X125674380Y-137189642D01*
X125674380Y-136570595D01*
X125102952Y-135999166D02*
X125055333Y-136094404D01*
X125007714Y-136142023D01*
X124912476Y-136189642D01*
X124864857Y-136189642D01*
X124769619Y-136142023D01*
X124722000Y-136094404D01*
X124674380Y-135999166D01*
X124674380Y-135808690D01*
X124722000Y-135713452D01*
X124769619Y-135665833D01*
X124864857Y-135618214D01*
X124912476Y-135618214D01*
X125007714Y-135665833D01*
X125055333Y-135713452D01*
X125102952Y-135808690D01*
X125102952Y-135999166D01*
X125150571Y-136094404D01*
X125198190Y-136142023D01*
X125293428Y-136189642D01*
X125483904Y-136189642D01*
X125579142Y-136142023D01*
X125626761Y-136094404D01*
X125674380Y-135999166D01*
X125674380Y-135808690D01*
X125626761Y-135713452D01*
X125579142Y-135665833D01*
X125483904Y-135618214D01*
X125293428Y-135618214D01*
X125198190Y-135665833D01*
X125150571Y-135713452D01*
X125102952Y-135808690D01*
X124626761Y-134475357D02*
X125912476Y-135332500D01*
X125674380Y-133570595D02*
X125198190Y-133903928D01*
X125674380Y-134142023D02*
X124674380Y-134142023D01*
X124674380Y-133761071D01*
X124722000Y-133665833D01*
X124769619Y-133618214D01*
X124864857Y-133570595D01*
X125007714Y-133570595D01*
X125102952Y-133618214D01*
X125150571Y-133665833D01*
X125198190Y-133761071D01*
X125198190Y-134142023D01*
X124674380Y-133237261D02*
X125674380Y-132570595D01*
X124674380Y-132570595D02*
X125674380Y-133237261D01*
X124674380Y-132284880D02*
X124674380Y-131618214D01*
X125674380Y-132046785D01*
X123134380Y-138094404D02*
X122134380Y-138094404D01*
X122134380Y-137856309D01*
X122182000Y-137713452D01*
X122277238Y-137618214D01*
X122372476Y-137570595D01*
X122562952Y-137522976D01*
X122705809Y-137522976D01*
X122896285Y-137570595D01*
X122991523Y-137618214D01*
X123086761Y-137713452D01*
X123134380Y-137856309D01*
X123134380Y-138094404D01*
X122229619Y-137142023D02*
X122182000Y-137094404D01*
X122134380Y-136999166D01*
X122134380Y-136761071D01*
X122182000Y-136665833D01*
X122229619Y-136618214D01*
X122324857Y-136570595D01*
X122420095Y-136570595D01*
X122562952Y-136618214D01*
X123134380Y-137189642D01*
X123134380Y-136570595D01*
X123134380Y-136094404D02*
X123134380Y-135903928D01*
X123086761Y-135808690D01*
X123039142Y-135761071D01*
X122896285Y-135665833D01*
X122705809Y-135618214D01*
X122324857Y-135618214D01*
X122229619Y-135665833D01*
X122182000Y-135713452D01*
X122134380Y-135808690D01*
X122134380Y-135999166D01*
X122182000Y-136094404D01*
X122229619Y-136142023D01*
X122324857Y-136189642D01*
X122562952Y-136189642D01*
X122658190Y-136142023D01*
X122705809Y-136094404D01*
X122753428Y-135999166D01*
X122753428Y-135808690D01*
X122705809Y-135713452D01*
X122658190Y-135665833D01*
X122562952Y-135618214D01*
X122086761Y-134475357D02*
X123372476Y-135332500D01*
X122134380Y-134284880D02*
X122134380Y-133713452D01*
X123134380Y-133999166D02*
X122134380Y-133999166D01*
X122134380Y-133475357D02*
X123134380Y-132808690D01*
X122134380Y-132808690D02*
X123134380Y-133475357D01*
X122134380Y-132522976D02*
X122134380Y-131856309D01*
X123134380Y-132284880D01*
X120594380Y-138094404D02*
X119594380Y-138094404D01*
X119594380Y-137856309D01*
X119642000Y-137713452D01*
X119737238Y-137618214D01*
X119832476Y-137570595D01*
X120022952Y-137522976D01*
X120165809Y-137522976D01*
X120356285Y-137570595D01*
X120451523Y-137618214D01*
X120546761Y-137713452D01*
X120594380Y-137856309D01*
X120594380Y-138094404D01*
X119594380Y-137189642D02*
X119594380Y-136570595D01*
X119975333Y-136903928D01*
X119975333Y-136761071D01*
X120022952Y-136665833D01*
X120070571Y-136618214D01*
X120165809Y-136570595D01*
X120403904Y-136570595D01*
X120499142Y-136618214D01*
X120546761Y-136665833D01*
X120594380Y-136761071D01*
X120594380Y-137046785D01*
X120546761Y-137142023D01*
X120499142Y-137189642D01*
X119927714Y-135713452D02*
X120594380Y-135713452D01*
X119546761Y-135951547D02*
X120261047Y-136189642D01*
X120261047Y-135570595D01*
X119546761Y-134475357D02*
X120832476Y-135332500D01*
X120594380Y-133570595D02*
X120118190Y-133903928D01*
X120594380Y-134142023D02*
X119594380Y-134142023D01*
X119594380Y-133761071D01*
X119642000Y-133665833D01*
X119689619Y-133618214D01*
X119784857Y-133570595D01*
X119927714Y-133570595D01*
X120022952Y-133618214D01*
X120070571Y-133665833D01*
X120118190Y-133761071D01*
X120118190Y-134142023D01*
X119594380Y-133237261D02*
X120594380Y-132570595D01*
X119594380Y-132570595D02*
X120594380Y-133237261D01*
X120022952Y-132046785D02*
X119975333Y-132142023D01*
X119927714Y-132189642D01*
X119832476Y-132237261D01*
X119784857Y-132237261D01*
X119689619Y-132189642D01*
X119642000Y-132142023D01*
X119594380Y-132046785D01*
X119594380Y-131856309D01*
X119642000Y-131761071D01*
X119689619Y-131713452D01*
X119784857Y-131665833D01*
X119832476Y-131665833D01*
X119927714Y-131713452D01*
X119975333Y-131761071D01*
X120022952Y-131856309D01*
X120022952Y-132046785D01*
X120070571Y-132142023D01*
X120118190Y-132189642D01*
X120213428Y-132237261D01*
X120403904Y-132237261D01*
X120499142Y-132189642D01*
X120546761Y-132142023D01*
X120594380Y-132046785D01*
X120594380Y-131856309D01*
X120546761Y-131761071D01*
X120499142Y-131713452D01*
X120403904Y-131665833D01*
X120213428Y-131665833D01*
X120118190Y-131713452D01*
X120070571Y-131761071D01*
X120022952Y-131856309D01*
X118054380Y-138094404D02*
X117054380Y-138094404D01*
X117054380Y-137856309D01*
X117102000Y-137713452D01*
X117197238Y-137618214D01*
X117292476Y-137570595D01*
X117482952Y-137522976D01*
X117625809Y-137522976D01*
X117816285Y-137570595D01*
X117911523Y-137618214D01*
X118006761Y-137713452D01*
X118054380Y-137856309D01*
X118054380Y-138094404D01*
X117054380Y-137189642D02*
X117054380Y-136570595D01*
X117435333Y-136903928D01*
X117435333Y-136761071D01*
X117482952Y-136665833D01*
X117530571Y-136618214D01*
X117625809Y-136570595D01*
X117863904Y-136570595D01*
X117959142Y-136618214D01*
X118006761Y-136665833D01*
X118054380Y-136761071D01*
X118054380Y-137046785D01*
X118006761Y-137142023D01*
X117959142Y-137189642D01*
X117054380Y-135665833D02*
X117054380Y-136142023D01*
X117530571Y-136189642D01*
X117482952Y-136142023D01*
X117435333Y-136046785D01*
X117435333Y-135808690D01*
X117482952Y-135713452D01*
X117530571Y-135665833D01*
X117625809Y-135618214D01*
X117863904Y-135618214D01*
X117959142Y-135665833D01*
X118006761Y-135713452D01*
X118054380Y-135808690D01*
X118054380Y-136046785D01*
X118006761Y-136142023D01*
X117959142Y-136189642D01*
X117006761Y-134475357D02*
X118292476Y-135332500D01*
X117054380Y-134284880D02*
X117054380Y-133713452D01*
X118054380Y-133999166D02*
X117054380Y-133999166D01*
X117054380Y-133475357D02*
X118054380Y-132808690D01*
X117054380Y-132808690D02*
X118054380Y-133475357D01*
X117482952Y-132284880D02*
X117435333Y-132380119D01*
X117387714Y-132427738D01*
X117292476Y-132475357D01*
X117244857Y-132475357D01*
X117149619Y-132427738D01*
X117102000Y-132380119D01*
X117054380Y-132284880D01*
X117054380Y-132094404D01*
X117102000Y-131999166D01*
X117149619Y-131951547D01*
X117244857Y-131903928D01*
X117292476Y-131903928D01*
X117387714Y-131951547D01*
X117435333Y-131999166D01*
X117482952Y-132094404D01*
X117482952Y-132284880D01*
X117530571Y-132380119D01*
X117578190Y-132427738D01*
X117673428Y-132475357D01*
X117863904Y-132475357D01*
X117959142Y-132427738D01*
X118006761Y-132380119D01*
X118054380Y-132284880D01*
X118054380Y-132094404D01*
X118006761Y-131999166D01*
X117959142Y-131951547D01*
X117863904Y-131903928D01*
X117673428Y-131903928D01*
X117578190Y-131951547D01*
X117530571Y-131999166D01*
X117482952Y-132094404D01*
X124254119Y-109624761D02*
X124396976Y-109672380D01*
X124635071Y-109672380D01*
X124730309Y-109624761D01*
X124777928Y-109577142D01*
X124825547Y-109481904D01*
X124825547Y-109386666D01*
X124777928Y-109291428D01*
X124730309Y-109243809D01*
X124635071Y-109196190D01*
X124444595Y-109148571D01*
X124349357Y-109100952D01*
X124301738Y-109053333D01*
X124254119Y-108958095D01*
X124254119Y-108862857D01*
X124301738Y-108767619D01*
X124349357Y-108720000D01*
X124444595Y-108672380D01*
X124682690Y-108672380D01*
X124825547Y-108720000D01*
X125254119Y-109672380D02*
X125254119Y-108672380D01*
X125635071Y-108672380D01*
X125730309Y-108720000D01*
X125777928Y-108767619D01*
X125825547Y-108862857D01*
X125825547Y-109005714D01*
X125777928Y-109100952D01*
X125730309Y-109148571D01*
X125635071Y-109196190D01*
X125254119Y-109196190D01*
X126254119Y-109672380D02*
X126254119Y-108672380D01*
X127444595Y-109624761D02*
X127587452Y-109672380D01*
X127825547Y-109672380D01*
X127920785Y-109624761D01*
X127968404Y-109577142D01*
X128016023Y-109481904D01*
X128016023Y-109386666D01*
X127968404Y-109291428D01*
X127920785Y-109243809D01*
X127825547Y-109196190D01*
X127635071Y-109148571D01*
X127539833Y-109100952D01*
X127492214Y-109053333D01*
X127444595Y-108958095D01*
X127444595Y-108862857D01*
X127492214Y-108767619D01*
X127539833Y-108720000D01*
X127635071Y-108672380D01*
X127873166Y-108672380D01*
X128016023Y-108720000D01*
X129016023Y-109577142D02*
X128968404Y-109624761D01*
X128825547Y-109672380D01*
X128730309Y-109672380D01*
X128587452Y-109624761D01*
X128492214Y-109529523D01*
X128444595Y-109434285D01*
X128396976Y-109243809D01*
X128396976Y-109100952D01*
X128444595Y-108910476D01*
X128492214Y-108815238D01*
X128587452Y-108720000D01*
X128730309Y-108672380D01*
X128825547Y-108672380D01*
X128968404Y-108720000D01*
X129016023Y-108767619D01*
X129444595Y-109672380D02*
X129444595Y-108672380D01*
X130016023Y-109672380D02*
X129587452Y-109100952D01*
X130016023Y-108672380D02*
X129444595Y-109243809D01*
X123682690Y-114704761D02*
X123825547Y-114752380D01*
X124063642Y-114752380D01*
X124158880Y-114704761D01*
X124206500Y-114657142D01*
X124254119Y-114561904D01*
X124254119Y-114466666D01*
X124206500Y-114371428D01*
X124158880Y-114323809D01*
X124063642Y-114276190D01*
X123873166Y-114228571D01*
X123777928Y-114180952D01*
X123730309Y-114133333D01*
X123682690Y-114038095D01*
X123682690Y-113942857D01*
X123730309Y-113847619D01*
X123777928Y-113800000D01*
X123873166Y-113752380D01*
X124111261Y-113752380D01*
X124254119Y-113800000D01*
X124682690Y-114752380D02*
X124682690Y-113752380D01*
X125063642Y-113752380D01*
X125158880Y-113800000D01*
X125206500Y-113847619D01*
X125254119Y-113942857D01*
X125254119Y-114085714D01*
X125206500Y-114180952D01*
X125158880Y-114228571D01*
X125063642Y-114276190D01*
X124682690Y-114276190D01*
X125682690Y-114752380D02*
X125682690Y-113752380D01*
X127492214Y-114657142D02*
X127444595Y-114704761D01*
X127301738Y-114752380D01*
X127206500Y-114752380D01*
X127063642Y-114704761D01*
X126968404Y-114609523D01*
X126920785Y-114514285D01*
X126873166Y-114323809D01*
X126873166Y-114180952D01*
X126920785Y-113990476D01*
X126968404Y-113895238D01*
X127063642Y-113800000D01*
X127206500Y-113752380D01*
X127301738Y-113752380D01*
X127444595Y-113800000D01*
X127492214Y-113847619D01*
X127920785Y-114752380D02*
X127920785Y-113752380D01*
X128396976Y-114752380D02*
X128396976Y-113752380D01*
X128777928Y-113752380D01*
X128873166Y-113800000D01*
X128920785Y-113847619D01*
X128968404Y-113942857D01*
X128968404Y-114085714D01*
X128920785Y-114180952D01*
X128873166Y-114228571D01*
X128777928Y-114276190D01*
X128396976Y-114276190D01*
X129587452Y-113752380D02*
X129777928Y-113752380D01*
X129873166Y-113800000D01*
X129968404Y-113895238D01*
X130016023Y-114085714D01*
X130016023Y-114419047D01*
X129968404Y-114609523D01*
X129873166Y-114704761D01*
X129777928Y-114752380D01*
X129587452Y-114752380D01*
X129492214Y-114704761D01*
X129396976Y-114609523D01*
X129349357Y-114419047D01*
X129349357Y-114085714D01*
X129396976Y-113895238D01*
X129492214Y-113800000D01*
X129587452Y-113752380D01*
X123682690Y-112164761D02*
X123825547Y-112212380D01*
X124063642Y-112212380D01*
X124158880Y-112164761D01*
X124206500Y-112117142D01*
X124254119Y-112021904D01*
X124254119Y-111926666D01*
X124206500Y-111831428D01*
X124158880Y-111783809D01*
X124063642Y-111736190D01*
X123873166Y-111688571D01*
X123777928Y-111640952D01*
X123730309Y-111593333D01*
X123682690Y-111498095D01*
X123682690Y-111402857D01*
X123730309Y-111307619D01*
X123777928Y-111260000D01*
X123873166Y-111212380D01*
X124111261Y-111212380D01*
X124254119Y-111260000D01*
X124682690Y-112212380D02*
X124682690Y-111212380D01*
X125063642Y-111212380D01*
X125158880Y-111260000D01*
X125206500Y-111307619D01*
X125254119Y-111402857D01*
X125254119Y-111545714D01*
X125206500Y-111640952D01*
X125158880Y-111688571D01*
X125063642Y-111736190D01*
X124682690Y-111736190D01*
X125682690Y-112212380D02*
X125682690Y-111212380D01*
X127492214Y-112117142D02*
X127444595Y-112164761D01*
X127301738Y-112212380D01*
X127206500Y-112212380D01*
X127063642Y-112164761D01*
X126968404Y-112069523D01*
X126920785Y-111974285D01*
X126873166Y-111783809D01*
X126873166Y-111640952D01*
X126920785Y-111450476D01*
X126968404Y-111355238D01*
X127063642Y-111260000D01*
X127206500Y-111212380D01*
X127301738Y-111212380D01*
X127444595Y-111260000D01*
X127492214Y-111307619D01*
X128111261Y-111212380D02*
X128301738Y-111212380D01*
X128396976Y-111260000D01*
X128492214Y-111355238D01*
X128539833Y-111545714D01*
X128539833Y-111879047D01*
X128492214Y-112069523D01*
X128396976Y-112164761D01*
X128301738Y-112212380D01*
X128111261Y-112212380D01*
X128016023Y-112164761D01*
X127920785Y-112069523D01*
X127873166Y-111879047D01*
X127873166Y-111545714D01*
X127920785Y-111355238D01*
X128016023Y-111260000D01*
X128111261Y-111212380D01*
X128968404Y-112212380D02*
X128968404Y-111212380D01*
X129349357Y-111212380D01*
X129444595Y-111260000D01*
X129492214Y-111307619D01*
X129539833Y-111402857D01*
X129539833Y-111545714D01*
X129492214Y-111640952D01*
X129444595Y-111688571D01*
X129349357Y-111736190D01*
X128968404Y-111736190D01*
X129968404Y-112212380D02*
X129968404Y-111212380D01*
X115857976Y-103024761D02*
X116000833Y-103072380D01*
X116238928Y-103072380D01*
X116334166Y-103024761D01*
X116381785Y-102977142D01*
X116429404Y-102881904D01*
X116429404Y-102786666D01*
X116381785Y-102691428D01*
X116334166Y-102643809D01*
X116238928Y-102596190D01*
X116048452Y-102548571D01*
X115953214Y-102500952D01*
X115905595Y-102453333D01*
X115857976Y-102358095D01*
X115857976Y-102262857D01*
X115905595Y-102167619D01*
X115953214Y-102120000D01*
X116048452Y-102072380D01*
X116286547Y-102072380D01*
X116429404Y-102120000D01*
X116857976Y-103072380D02*
X116857976Y-102072380D01*
X117238928Y-102072380D01*
X117334166Y-102120000D01*
X117381785Y-102167619D01*
X117429404Y-102262857D01*
X117429404Y-102405714D01*
X117381785Y-102500952D01*
X117334166Y-102548571D01*
X117238928Y-102596190D01*
X116857976Y-102596190D01*
X117857976Y-103072380D02*
X117857976Y-102072380D01*
X119048452Y-103024761D02*
X119191309Y-103072380D01*
X119429404Y-103072380D01*
X119524642Y-103024761D01*
X119572261Y-102977142D01*
X119619880Y-102881904D01*
X119619880Y-102786666D01*
X119572261Y-102691428D01*
X119524642Y-102643809D01*
X119429404Y-102596190D01*
X119238928Y-102548571D01*
X119143690Y-102500952D01*
X119096071Y-102453333D01*
X119048452Y-102358095D01*
X119048452Y-102262857D01*
X119096071Y-102167619D01*
X119143690Y-102120000D01*
X119238928Y-102072380D01*
X119477023Y-102072380D01*
X119619880Y-102120000D01*
X120619880Y-102977142D02*
X120572261Y-103024761D01*
X120429404Y-103072380D01*
X120334166Y-103072380D01*
X120191309Y-103024761D01*
X120096071Y-102929523D01*
X120048452Y-102834285D01*
X120000833Y-102643809D01*
X120000833Y-102500952D01*
X120048452Y-102310476D01*
X120096071Y-102215238D01*
X120191309Y-102120000D01*
X120334166Y-102072380D01*
X120429404Y-102072380D01*
X120572261Y-102120000D01*
X120619880Y-102167619D01*
X121048452Y-103072380D02*
X121048452Y-102072380D01*
X121619880Y-103072380D02*
X121191309Y-102500952D01*
X121619880Y-102072380D02*
X121048452Y-102643809D01*
X115857976Y-105564761D02*
X116000833Y-105612380D01*
X116238928Y-105612380D01*
X116334166Y-105564761D01*
X116381785Y-105517142D01*
X116429404Y-105421904D01*
X116429404Y-105326666D01*
X116381785Y-105231428D01*
X116334166Y-105183809D01*
X116238928Y-105136190D01*
X116048452Y-105088571D01*
X115953214Y-105040952D01*
X115905595Y-104993333D01*
X115857976Y-104898095D01*
X115857976Y-104802857D01*
X115905595Y-104707619D01*
X115953214Y-104660000D01*
X116048452Y-104612380D01*
X116286547Y-104612380D01*
X116429404Y-104660000D01*
X116857976Y-105612380D02*
X116857976Y-104612380D01*
X117238928Y-104612380D01*
X117334166Y-104660000D01*
X117381785Y-104707619D01*
X117429404Y-104802857D01*
X117429404Y-104945714D01*
X117381785Y-105040952D01*
X117334166Y-105088571D01*
X117238928Y-105136190D01*
X116857976Y-105136190D01*
X117857976Y-105612380D02*
X117857976Y-104612380D01*
X119667500Y-105517142D02*
X119619880Y-105564761D01*
X119477023Y-105612380D01*
X119381785Y-105612380D01*
X119238928Y-105564761D01*
X119143690Y-105469523D01*
X119096071Y-105374285D01*
X119048452Y-105183809D01*
X119048452Y-105040952D01*
X119096071Y-104850476D01*
X119143690Y-104755238D01*
X119238928Y-104660000D01*
X119381785Y-104612380D01*
X119477023Y-104612380D01*
X119619880Y-104660000D01*
X119667500Y-104707619D01*
X120096071Y-105612380D02*
X120096071Y-104612380D01*
X120572261Y-105612380D02*
X120572261Y-104612380D01*
X120953214Y-104612380D01*
X121048452Y-104660000D01*
X121096071Y-104707619D01*
X121143690Y-104802857D01*
X121143690Y-104945714D01*
X121096071Y-105040952D01*
X121048452Y-105088571D01*
X120953214Y-105136190D01*
X120572261Y-105136190D01*
X121762738Y-104612380D02*
X121953214Y-104612380D01*
X122048452Y-104660000D01*
X122143690Y-104755238D01*
X122191309Y-104945714D01*
X122191309Y-105279047D01*
X122143690Y-105469523D01*
X122048452Y-105564761D01*
X121953214Y-105612380D01*
X121762738Y-105612380D01*
X121667500Y-105564761D01*
X121572261Y-105469523D01*
X121524642Y-105279047D01*
X121524642Y-104945714D01*
X121572261Y-104755238D01*
X121667500Y-104660000D01*
X121762738Y-104612380D01*
X115857976Y-108104761D02*
X116000833Y-108152380D01*
X116238928Y-108152380D01*
X116334166Y-108104761D01*
X116381785Y-108057142D01*
X116429404Y-107961904D01*
X116429404Y-107866666D01*
X116381785Y-107771428D01*
X116334166Y-107723809D01*
X116238928Y-107676190D01*
X116048452Y-107628571D01*
X115953214Y-107580952D01*
X115905595Y-107533333D01*
X115857976Y-107438095D01*
X115857976Y-107342857D01*
X115905595Y-107247619D01*
X115953214Y-107200000D01*
X116048452Y-107152380D01*
X116286547Y-107152380D01*
X116429404Y-107200000D01*
X116857976Y-108152380D02*
X116857976Y-107152380D01*
X117238928Y-107152380D01*
X117334166Y-107200000D01*
X117381785Y-107247619D01*
X117429404Y-107342857D01*
X117429404Y-107485714D01*
X117381785Y-107580952D01*
X117334166Y-107628571D01*
X117238928Y-107676190D01*
X116857976Y-107676190D01*
X117857976Y-108152380D02*
X117857976Y-107152380D01*
X119667500Y-108057142D02*
X119619880Y-108104761D01*
X119477023Y-108152380D01*
X119381785Y-108152380D01*
X119238928Y-108104761D01*
X119143690Y-108009523D01*
X119096071Y-107914285D01*
X119048452Y-107723809D01*
X119048452Y-107580952D01*
X119096071Y-107390476D01*
X119143690Y-107295238D01*
X119238928Y-107200000D01*
X119381785Y-107152380D01*
X119477023Y-107152380D01*
X119619880Y-107200000D01*
X119667500Y-107247619D01*
X120286547Y-107152380D02*
X120477023Y-107152380D01*
X120572261Y-107200000D01*
X120667500Y-107295238D01*
X120715119Y-107485714D01*
X120715119Y-107819047D01*
X120667500Y-108009523D01*
X120572261Y-108104761D01*
X120477023Y-108152380D01*
X120286547Y-108152380D01*
X120191309Y-108104761D01*
X120096071Y-108009523D01*
X120048452Y-107819047D01*
X120048452Y-107485714D01*
X120096071Y-107295238D01*
X120191309Y-107200000D01*
X120286547Y-107152380D01*
X121143690Y-108152380D02*
X121143690Y-107152380D01*
X121524642Y-107152380D01*
X121619880Y-107200000D01*
X121667500Y-107247619D01*
X121715119Y-107342857D01*
X121715119Y-107485714D01*
X121667500Y-107580952D01*
X121619880Y-107628571D01*
X121524642Y-107676190D01*
X121143690Y-107676190D01*
X122143690Y-108152380D02*
X122143690Y-107152380D01*
X115857976Y-113184761D02*
X116000833Y-113232380D01*
X116238928Y-113232380D01*
X116334166Y-113184761D01*
X116381785Y-113137142D01*
X116429404Y-113041904D01*
X116429404Y-112946666D01*
X116381785Y-112851428D01*
X116334166Y-112803809D01*
X116238928Y-112756190D01*
X116048452Y-112708571D01*
X115953214Y-112660952D01*
X115905595Y-112613333D01*
X115857976Y-112518095D01*
X115857976Y-112422857D01*
X115905595Y-112327619D01*
X115953214Y-112280000D01*
X116048452Y-112232380D01*
X116286547Y-112232380D01*
X116429404Y-112280000D01*
X116857976Y-113232380D02*
X116857976Y-112232380D01*
X117096071Y-112232380D01*
X117238928Y-112280000D01*
X117334166Y-112375238D01*
X117381785Y-112470476D01*
X117429404Y-112660952D01*
X117429404Y-112803809D01*
X117381785Y-112994285D01*
X117334166Y-113089523D01*
X117238928Y-113184761D01*
X117096071Y-113232380D01*
X116857976Y-113232380D01*
X119191309Y-113137142D02*
X119143690Y-113184761D01*
X119000833Y-113232380D01*
X118905595Y-113232380D01*
X118762738Y-113184761D01*
X118667500Y-113089523D01*
X118619880Y-112994285D01*
X118572261Y-112803809D01*
X118572261Y-112660952D01*
X118619880Y-112470476D01*
X118667500Y-112375238D01*
X118762738Y-112280000D01*
X118905595Y-112232380D01*
X119000833Y-112232380D01*
X119143690Y-112280000D01*
X119191309Y-112327619D01*
X119572261Y-113184761D02*
X119715119Y-113232380D01*
X119953214Y-113232380D01*
X120048452Y-113184761D01*
X120096071Y-113137142D01*
X120143690Y-113041904D01*
X120143690Y-112946666D01*
X120096071Y-112851428D01*
X120048452Y-112803809D01*
X119953214Y-112756190D01*
X119762738Y-112708571D01*
X119667500Y-112660952D01*
X119619880Y-112613333D01*
X119572261Y-112518095D01*
X119572261Y-112422857D01*
X119619880Y-112327619D01*
X119667500Y-112280000D01*
X119762738Y-112232380D01*
X120000833Y-112232380D01*
X120143690Y-112280000D01*
X116429404Y-114820000D02*
X116334166Y-114772380D01*
X116191309Y-114772380D01*
X116048452Y-114820000D01*
X115953214Y-114915238D01*
X115905595Y-115010476D01*
X115857976Y-115200952D01*
X115857976Y-115343809D01*
X115905595Y-115534285D01*
X115953214Y-115629523D01*
X116048452Y-115724761D01*
X116191309Y-115772380D01*
X116286547Y-115772380D01*
X116429404Y-115724761D01*
X116477023Y-115677142D01*
X116477023Y-115343809D01*
X116286547Y-115343809D01*
X116905595Y-115772380D02*
X116905595Y-114772380D01*
X117286547Y-114772380D01*
X117381785Y-114820000D01*
X117429404Y-114867619D01*
X117477023Y-114962857D01*
X117477023Y-115105714D01*
X117429404Y-115200952D01*
X117381785Y-115248571D01*
X117286547Y-115296190D01*
X116905595Y-115296190D01*
X117905595Y-114772380D02*
X117905595Y-115581904D01*
X117953214Y-115677142D01*
X118000833Y-115724761D01*
X118096071Y-115772380D01*
X118286547Y-115772380D01*
X118381785Y-115724761D01*
X118429404Y-115677142D01*
X118477023Y-115581904D01*
X118477023Y-114772380D01*
X120286547Y-115677142D02*
X120238928Y-115724761D01*
X120096071Y-115772380D01*
X120000833Y-115772380D01*
X119857976Y-115724761D01*
X119762738Y-115629523D01*
X119715119Y-115534285D01*
X119667500Y-115343809D01*
X119667500Y-115200952D01*
X119715119Y-115010476D01*
X119762738Y-114915238D01*
X119857976Y-114820000D01*
X120000833Y-114772380D01*
X120096071Y-114772380D01*
X120238928Y-114820000D01*
X120286547Y-114867619D01*
X120667500Y-115724761D02*
X120810357Y-115772380D01*
X121048452Y-115772380D01*
X121143690Y-115724761D01*
X121191309Y-115677142D01*
X121238928Y-115581904D01*
X121238928Y-115486666D01*
X121191309Y-115391428D01*
X121143690Y-115343809D01*
X121048452Y-115296190D01*
X120857976Y-115248571D01*
X120762738Y-115200952D01*
X120715119Y-115153333D01*
X120667500Y-115058095D01*
X120667500Y-114962857D01*
X120715119Y-114867619D01*
X120762738Y-114820000D01*
X120857976Y-114772380D01*
X121096071Y-114772380D01*
X121238928Y-114820000D01*
X114091142Y-78590857D02*
X114091142Y-79448000D01*
X114034000Y-79619428D01*
X113919714Y-79733714D01*
X113748285Y-79790857D01*
X113634000Y-79790857D01*
X115234000Y-79790857D02*
X114662571Y-79790857D01*
X114662571Y-78590857D01*
X116319714Y-79676571D02*
X116262571Y-79733714D01*
X116091142Y-79790857D01*
X115976857Y-79790857D01*
X115805428Y-79733714D01*
X115691142Y-79619428D01*
X115634000Y-79505142D01*
X115576857Y-79276571D01*
X115576857Y-79105142D01*
X115634000Y-78876571D01*
X115691142Y-78762285D01*
X115805428Y-78648000D01*
X115976857Y-78590857D01*
X116091142Y-78590857D01*
X116262571Y-78648000D01*
X116319714Y-78705142D01*
X117176857Y-78590857D02*
X117176857Y-79448000D01*
X117119714Y-79619428D01*
X117005428Y-79733714D01*
X116834000Y-79790857D01*
X116719714Y-79790857D01*
X118319714Y-79790857D02*
X117748285Y-79790857D01*
X117748285Y-78590857D01*
X119405428Y-79676571D02*
X119348285Y-79733714D01*
X119176857Y-79790857D01*
X119062571Y-79790857D01*
X118891142Y-79733714D01*
X118776857Y-79619428D01*
X118719714Y-79505142D01*
X118662571Y-79276571D01*
X118662571Y-79105142D01*
X118719714Y-78876571D01*
X118776857Y-78762285D01*
X118891142Y-78648000D01*
X119062571Y-78590857D01*
X119176857Y-78590857D01*
X119348285Y-78648000D01*
X119405428Y-78705142D01*
X120262571Y-78590857D02*
X120262571Y-79448000D01*
X120205428Y-79619428D01*
X120091142Y-79733714D01*
X119919714Y-79790857D01*
X119805428Y-79790857D01*
X121405428Y-79790857D02*
X120834000Y-79790857D01*
X120834000Y-78590857D01*
X122491142Y-79676571D02*
X122434000Y-79733714D01*
X122262571Y-79790857D01*
X122148285Y-79790857D01*
X121976857Y-79733714D01*
X121862571Y-79619428D01*
X121805428Y-79505142D01*
X121748285Y-79276571D01*
X121748285Y-79105142D01*
X121805428Y-78876571D01*
X121862571Y-78762285D01*
X121976857Y-78648000D01*
X122148285Y-78590857D01*
X122262571Y-78590857D01*
X122434000Y-78648000D01*
X122491142Y-78705142D01*
X123348285Y-78590857D02*
X123348285Y-79448000D01*
X123291142Y-79619428D01*
X123176857Y-79733714D01*
X123005428Y-79790857D01*
X122891142Y-79790857D01*
X124491142Y-79790857D02*
X123919714Y-79790857D01*
X123919714Y-78590857D01*
X125576857Y-79676571D02*
X125519714Y-79733714D01*
X125348285Y-79790857D01*
X125234000Y-79790857D01*
X125062571Y-79733714D01*
X124948285Y-79619428D01*
X124891142Y-79505142D01*
X124834000Y-79276571D01*
X124834000Y-79105142D01*
X124891142Y-78876571D01*
X124948285Y-78762285D01*
X125062571Y-78648000D01*
X125234000Y-78590857D01*
X125348285Y-78590857D01*
X125519714Y-78648000D01*
X125576857Y-78705142D01*
D13*
%TO.C,A1*%
X130700000Y-80010000D02*
X130700000Y-125730000D01*
X153780000Y-80010000D02*
X153780000Y-125730000D01*
X151130000Y-128380000D02*
X133350000Y-128380000D01*
X151130000Y-77360000D02*
X133350000Y-77360000D01*
X130380000Y-84820000D02*
X130380000Y-82820000D01*
X133350000Y-128380000D02*
G75*
G02*
X130700000Y-125730000I0J2650000D01*
G01*
X153780000Y-125730000D02*
G75*
G02*
X151130000Y-128380000I-2650000J0D01*
G01*
X130700000Y-80010000D02*
G75*
G02*
X133350000Y-77360000I2650000J0D01*
G01*
X151130000Y-77360000D02*
G75*
G02*
X153780000Y-80010000I0J-2650000D01*
G01*
%TO.C,D2*%
X142400000Y-86580000D02*
X142400000Y-84580000D01*
X142400000Y-84580000D02*
X138500000Y-84580000D01*
X142400000Y-86580000D02*
X138500000Y-86580000D01*
%TO.C,D1*%
X167302000Y-83535000D02*
X169762000Y-83535000D01*
X169762000Y-83535000D02*
X169762000Y-82065000D01*
X169762000Y-82065000D02*
X167302000Y-82065000D01*
%TO.C,J2*%
X126350000Y-76320000D02*
X126350000Y-84430000D01*
X126350000Y-76320000D02*
X127000000Y-76320000D01*
X126350000Y-91280000D02*
X113030000Y-91280000D01*
X126350000Y-91280000D02*
X126350000Y-87950000D01*
X113030000Y-91280000D02*
X113030000Y-87950000D01*
X112380000Y-75800000D02*
X112380000Y-76320000D01*
X127000000Y-75800000D02*
X112380000Y-75800000D01*
X113030000Y-84430000D02*
X113030000Y-76320000D01*
X127000000Y-76320000D02*
X127000000Y-75800000D01*
X112380000Y-76320000D02*
X113030000Y-76320000D01*
X124090000Y-91500000D02*
X122290000Y-91500000D01*
%TO.C,J5*%
X186750000Y-76670000D02*
X186750000Y-79330000D01*
X194430000Y-76670000D02*
X186750000Y-76670000D01*
X194430000Y-79330000D02*
X186750000Y-79330000D01*
X194430000Y-76670000D02*
X194430000Y-79330000D01*
X195700000Y-76670000D02*
X197030000Y-76670000D01*
X197030000Y-76670000D02*
X197030000Y-78000000D01*
%TO.C,J1*%
X180690000Y-79090000D02*
X180410000Y-79090000D01*
X180410000Y-79090000D02*
X180410000Y-77490000D01*
X180410000Y-77490000D02*
X179490000Y-77490000D01*
X179490000Y-77490000D02*
X179490000Y-85310000D01*
X179490000Y-85310000D02*
X185610000Y-85310000D01*
X185610000Y-85310000D02*
X185610000Y-77490000D01*
X185610000Y-77490000D02*
X184690000Y-77490000D01*
X184690000Y-77490000D02*
X184690000Y-79090000D01*
X184690000Y-79090000D02*
X184410000Y-79090000D01*
X182050000Y-85310000D02*
X182050000Y-80950000D01*
X182050000Y-80950000D02*
X183050000Y-80950000D01*
X183050000Y-80950000D02*
X183050000Y-85310000D01*
X179490000Y-79090000D02*
X180410000Y-79090000D01*
X185610000Y-79090000D02*
X184690000Y-79090000D01*
X180250000Y-81450000D02*
X180250000Y-83050000D01*
X180250000Y-83050000D02*
X181250000Y-83050000D01*
X181250000Y-83050000D02*
X181250000Y-81450000D01*
X181250000Y-81450000D02*
X180250000Y-81450000D01*
X184850000Y-81450000D02*
X184850000Y-83050000D01*
X184850000Y-83050000D02*
X183850000Y-83050000D01*
X183850000Y-83050000D02*
X183850000Y-81450000D01*
X183850000Y-81450000D02*
X184850000Y-81450000D01*
X181250000Y-83050000D02*
X181250000Y-85310000D01*
X180750000Y-83050000D02*
X180750000Y-85310000D01*
X180690000Y-79090000D02*
X180690000Y-77875000D01*
%TO.C,J6*%
X168500000Y-76670000D02*
X168500000Y-78000000D01*
X167170000Y-76670000D02*
X168500000Y-76670000D01*
X165900000Y-76670000D02*
X165900000Y-79330000D01*
X165900000Y-79330000D02*
X163300000Y-79330000D01*
X165900000Y-76670000D02*
X163300000Y-76670000D01*
X163300000Y-76670000D02*
X163300000Y-79330000D01*
%TO.C,J3*%
X157032000Y-139110000D02*
X157032000Y-140440000D01*
X155702000Y-139110000D02*
X157032000Y-139110000D01*
X154432000Y-139110000D02*
X154432000Y-141770000D01*
X154432000Y-141770000D02*
X116272000Y-141770000D01*
X154432000Y-139110000D02*
X116272000Y-139110000D01*
X116272000Y-139110000D02*
X116272000Y-141770000D01*
%TO.C,JP2*%
X176150000Y-95090000D02*
X172050000Y-95090000D01*
X172050000Y-95090000D02*
X172050000Y-93090000D01*
X172050000Y-93090000D02*
X176150000Y-93090000D01*
X176150000Y-93090000D02*
X176150000Y-95090000D01*
X175400000Y-92890000D02*
X175700000Y-92590000D01*
X175700000Y-92590000D02*
X175100000Y-92590000D01*
X175400000Y-92890000D02*
X175100000Y-92590000D01*
%TO.C,U2*%
X98046000Y-96460000D02*
X97284000Y-96460000D01*
X98046000Y-95444000D02*
X98046000Y-96460000D01*
X98046000Y-91380000D02*
X97284000Y-91380000D01*
X98046000Y-92396000D02*
X98046000Y-91380000D01*
D11*
X101228026Y-120015000D02*
G75*
G03*
X101228026Y-120015000I-898026J0D01*
G01*
X106680000Y-100330000D02*
X93980000Y-100330000D01*
X106680000Y-113030000D02*
X106680000Y-100330000D01*
X93980000Y-113030000D02*
X106680000Y-113030000D01*
X93980000Y-100330000D02*
X93980000Y-113030000D01*
X97030800Y-86309200D02*
X94490800Y-86309200D01*
X97030800Y-83769200D02*
X97030800Y-86309200D01*
X94490800Y-83769200D02*
X97030800Y-83769200D01*
X94490800Y-96469200D02*
X94490800Y-83769200D01*
X97030800Y-96469200D02*
X94490800Y-96469200D01*
X97030800Y-83769200D02*
X97030800Y-96469200D01*
X101600000Y-118110000D02*
X101600000Y-121920000D01*
X99060000Y-118110000D02*
X101600000Y-118110000D01*
X99060000Y-121920000D02*
X99060000Y-118110000D01*
X101600000Y-121920000D02*
X99060000Y-121920000D01*
X95250000Y-137160000D02*
X95250000Y-138430000D01*
X105410000Y-137160000D02*
X95250000Y-137160000D01*
X105410000Y-138430000D02*
X105410000Y-137160000D01*
X93980000Y-125730000D02*
X93980000Y-138430000D01*
X106680000Y-125730000D02*
X93980000Y-125730000D01*
X106680000Y-138430000D02*
X106680000Y-125730000D01*
X96520000Y-77470000D02*
X96520000Y-76200000D01*
X96520000Y-76200000D02*
X104140000Y-76200000D01*
X104140000Y-76200000D02*
X104140000Y-77470000D01*
X96520000Y-82550000D02*
X104140000Y-82550000D01*
X104140000Y-82550000D02*
X104140000Y-77470000D01*
X96520000Y-82550000D02*
X96520000Y-77470000D01*
X109220000Y-77470000D02*
X109220000Y-138430000D01*
X109220000Y-138430000D02*
X91440000Y-138430000D01*
X91440000Y-138430000D02*
X91440000Y-77470000D01*
X91440000Y-77470000D02*
X109220000Y-77470000D01*
D14*
G36*
X100789000Y-103871000D02*
G01*
X101043000Y-104125000D01*
X100662000Y-104379000D01*
X100408000Y-104125000D01*
X100789000Y-103871000D01*
G37*
X100789000Y-103871000D02*
X101043000Y-104125000D01*
X100662000Y-104379000D01*
X100408000Y-104125000D01*
X100789000Y-103871000D01*
G36*
X100281000Y-104252000D02*
G01*
X100535000Y-104506000D01*
X100154000Y-104760000D01*
X99900000Y-104506000D01*
X100281000Y-104252000D01*
G37*
X100281000Y-104252000D02*
X100535000Y-104506000D01*
X100154000Y-104760000D01*
X99900000Y-104506000D01*
X100281000Y-104252000D01*
G36*
X99773000Y-104633000D02*
G01*
X100027000Y-104887000D01*
X99646000Y-105141000D01*
X99392000Y-104887000D01*
X99773000Y-104633000D01*
G37*
X99773000Y-104633000D02*
X100027000Y-104887000D01*
X99646000Y-105141000D01*
X99392000Y-104887000D01*
X99773000Y-104633000D01*
G36*
X100662000Y-104633000D02*
G01*
X100916000Y-104887000D01*
X100535000Y-105141000D01*
X100281000Y-104887000D01*
X100662000Y-104633000D01*
G37*
X100662000Y-104633000D02*
X100916000Y-104887000D01*
X100535000Y-105141000D01*
X100281000Y-104887000D01*
X100662000Y-104633000D01*
G36*
X100154000Y-105014000D02*
G01*
X100408000Y-105268000D01*
X100027000Y-105522000D01*
X99773000Y-105268000D01*
X100154000Y-105014000D01*
G37*
X100154000Y-105014000D02*
X100408000Y-105268000D01*
X100027000Y-105522000D01*
X99773000Y-105268000D01*
X100154000Y-105014000D01*
G36*
X99646000Y-105395000D02*
G01*
X99900000Y-105649000D01*
X99519000Y-105903000D01*
X99265000Y-105649000D01*
X99646000Y-105395000D01*
G37*
X99646000Y-105395000D02*
X99900000Y-105649000D01*
X99519000Y-105903000D01*
X99265000Y-105649000D01*
X99646000Y-105395000D01*
G36*
X100408000Y-103490000D02*
G01*
X100662000Y-103744000D01*
X100281000Y-103998000D01*
X100027000Y-103744000D01*
X100408000Y-103490000D01*
G37*
X100408000Y-103490000D02*
X100662000Y-103744000D01*
X100281000Y-103998000D01*
X100027000Y-103744000D01*
X100408000Y-103490000D01*
G36*
X100027000Y-103109000D02*
G01*
X100281000Y-103363000D01*
X99900000Y-103617000D01*
X99646000Y-103363000D01*
X100027000Y-103109000D01*
G37*
X100027000Y-103109000D02*
X100281000Y-103363000D01*
X99900000Y-103617000D01*
X99646000Y-103363000D01*
X100027000Y-103109000D01*
D13*
%TO.C,U1*%
X165702000Y-86490000D02*
X163902000Y-86490000D01*
X163902000Y-89710000D02*
X166352000Y-89710000D01*
%TO.C,SW1*%
X186120000Y-138370000D02*
X186120000Y-141030000D01*
X191260000Y-138370000D02*
X186120000Y-138370000D01*
X191260000Y-141030000D02*
X186120000Y-141030000D01*
X191260000Y-138370000D02*
X191260000Y-141030000D01*
X192530000Y-138370000D02*
X193860000Y-138370000D01*
X193860000Y-138370000D02*
X193860000Y-139700000D01*
%TO.C,R4*%
X146992224Y-86957500D02*
X146482776Y-86957500D01*
X146992224Y-88002500D02*
X146482776Y-88002500D01*
%TO.C,R5*%
X156627500Y-84747224D02*
X156627500Y-84237776D01*
X157672500Y-84747224D02*
X157672500Y-84237776D01*
%TO.C,R6*%
X156072500Y-84747224D02*
X156072500Y-84237776D01*
X155027500Y-84747224D02*
X155027500Y-84237776D01*
%TO.C,R7*%
X158227500Y-84747224D02*
X158227500Y-84237776D01*
X159272500Y-84747224D02*
X159272500Y-84237776D01*
%TO.C,U3*%
X151350000Y-84920000D02*
X149550000Y-84920000D01*
X149550000Y-88140000D02*
X152000000Y-88140000D01*
%TO.C,R3*%
X139195276Y-88102500D02*
X139704724Y-88102500D01*
X139195276Y-87057500D02*
X139704724Y-87057500D01*
%TO.C,R2*%
X164756724Y-82277500D02*
X164247276Y-82277500D01*
X164756724Y-83322500D02*
X164247276Y-83322500D01*
%TO.C,R1*%
X164347276Y-91322500D02*
X164856724Y-91322500D01*
X164347276Y-90277500D02*
X164856724Y-90277500D01*
%TO.C,R10*%
X135179500Y-79845276D02*
X135179500Y-80354724D01*
X136224500Y-79845276D02*
X136224500Y-80354724D01*
%TO.C,R9*%
X138024500Y-80354724D02*
X138024500Y-79845276D01*
X136979500Y-80354724D02*
X136979500Y-79845276D01*
%TO.C,BT1*%
X85190000Y-112880000D02*
X85190000Y-117380000D01*
X85190000Y-125880000D02*
X85190000Y-121380000D01*
X80690000Y-111580000D02*
X63690000Y-111580000D01*
X80690000Y-127180000D02*
X63690000Y-127180000D01*
X85190000Y-112880000D02*
X82190000Y-112880000D01*
X82190000Y-125880000D02*
X85190000Y-125880000D01*
X80690000Y-111580000D02*
X82190000Y-112880000D01*
X80690000Y-127180000D02*
X82190000Y-125880000D01*
X83690000Y-121380000D02*
X86690000Y-121380000D01*
X83690000Y-117380000D02*
X86690000Y-117380000D01*
X65190000Y-120880000D02*
X62190000Y-120880000D01*
X62190000Y-117880000D02*
X65190000Y-117880000D01*
X63690001Y-127179999D02*
G75*
G02*
X63690001Y-111580001I8539999J7799999D01*
G01*
%TO.C,Q1*%
X141730000Y-81820000D02*
X141730000Y-83280000D01*
X138570000Y-81820000D02*
X138570000Y-83980000D01*
X138570000Y-81820000D02*
X139500000Y-81820000D01*
X141730000Y-81820000D02*
X140800000Y-81820000D01*
%TO.C,J4*%
X90492000Y-139110000D02*
X90492000Y-140440000D01*
X89162000Y-139110000D02*
X90492000Y-139110000D01*
X87892000Y-139110000D02*
X87892000Y-141770000D01*
X87892000Y-141770000D02*
X80212000Y-141770000D01*
X87892000Y-139110000D02*
X80212000Y-139110000D01*
X80212000Y-139110000D02*
X80212000Y-141770000D01*
%TO.C,D3*%
X157250000Y-88480000D02*
X157250000Y-86480000D01*
X157250000Y-86480000D02*
X153350000Y-86480000D01*
X157250000Y-88480000D02*
X153350000Y-88480000D01*
%TO.C,L1*%
X148600000Y-78980000D02*
X154200000Y-78980000D01*
X148600000Y-84380000D02*
X154200000Y-84380000D01*
X148600000Y-78980000D02*
X148600000Y-80130000D01*
X148600000Y-84380000D02*
X148600000Y-83230000D01*
X154200000Y-78980000D02*
X154200000Y-80130000D01*
X154200000Y-84380000D02*
X154200000Y-83230000D01*
%TO.C,C4*%
X144910000Y-84728752D02*
X144910000Y-83306248D01*
X143090000Y-84728752D02*
X143090000Y-83306248D01*
%TO.C,C5*%
X145840000Y-84728752D02*
X145840000Y-83306248D01*
X147660000Y-84728752D02*
X147660000Y-83306248D01*
%TO.C,C6*%
X157692000Y-88351248D02*
X157692000Y-89773752D01*
X159512000Y-88351248D02*
X159512000Y-89773752D01*
%TO.C,C7*%
X161912000Y-88351248D02*
X161912000Y-89773752D01*
X160092000Y-88351248D02*
X160092000Y-89773752D01*
%TO.C,C1*%
X166013252Y-84090000D02*
X164590748Y-84090000D01*
X166013252Y-85910000D02*
X164590748Y-85910000D01*
%TO.C,C2*%
X168912000Y-88051248D02*
X168912000Y-89473752D01*
X167092000Y-88051248D02*
X167092000Y-89473752D01*
%TO.C,Q2*%
X175592000Y-91890000D02*
X174132000Y-91890000D01*
X175592000Y-88730000D02*
X173432000Y-88730000D01*
X175592000Y-88730000D02*
X175592000Y-89660000D01*
X175592000Y-91890000D02*
X175592000Y-90960000D01*
%TO.C,R8*%
X171809500Y-90055276D02*
X171809500Y-90564724D01*
X172854500Y-90055276D02*
X172854500Y-90564724D01*
%TO.C,C3*%
X144742000Y-88511248D02*
X144742000Y-89933752D01*
X142922000Y-88511248D02*
X142922000Y-89933752D01*
%TO.C,C8*%
X161942000Y-84208752D02*
X161942000Y-82786248D01*
X160122000Y-84208752D02*
X160122000Y-82786248D01*
%TO.C,C9*%
X132790000Y-78588748D02*
X132790000Y-80011252D01*
X134610000Y-78588748D02*
X134610000Y-80011252D01*
%TO.C,J7*%
X176590000Y-118170000D02*
X175260000Y-118170000D01*
X176590000Y-116840000D02*
X176590000Y-118170000D01*
X173990000Y-118170000D02*
X171390000Y-118170000D01*
X173990000Y-115570000D02*
X173990000Y-118170000D01*
X176590000Y-115570000D02*
X173990000Y-115570000D01*
X171390000Y-118170000D02*
X171390000Y-105350000D01*
X176590000Y-115570000D02*
X176590000Y-105350000D01*
X176590000Y-105350000D02*
X171390000Y-105350000D01*
%TO.C,J8*%
X75230000Y-108010000D02*
X80430000Y-108010000D01*
X75230000Y-97790000D02*
X75230000Y-108010000D01*
X80430000Y-95190000D02*
X80430000Y-108010000D01*
X75230000Y-97790000D02*
X77830000Y-97790000D01*
X77830000Y-97790000D02*
X77830000Y-95190000D01*
X77830000Y-95190000D02*
X80430000Y-95190000D01*
X75230000Y-96520000D02*
X75230000Y-95190000D01*
X75230000Y-95190000D02*
X76560000Y-95190000D01*
%TO.C,D2*%
D11*
X136167904Y-85542380D02*
X136167904Y-84542380D01*
X136406000Y-84542380D01*
X136548857Y-84590000D01*
X136644095Y-84685238D01*
X136691714Y-84780476D01*
X136739333Y-84970952D01*
X136739333Y-85113809D01*
X136691714Y-85304285D01*
X136644095Y-85399523D01*
X136548857Y-85494761D01*
X136406000Y-85542380D01*
X136167904Y-85542380D01*
X137120285Y-84637619D02*
X137167904Y-84590000D01*
X137263142Y-84542380D01*
X137501238Y-84542380D01*
X137596476Y-84590000D01*
X137644095Y-84637619D01*
X137691714Y-84732857D01*
X137691714Y-84828095D01*
X137644095Y-84970952D01*
X137072666Y-85542380D01*
X137691714Y-85542380D01*
%TO.C,D1*%
X167391904Y-81652380D02*
X167391904Y-80652380D01*
X167630000Y-80652380D01*
X167772857Y-80700000D01*
X167868095Y-80795238D01*
X167915714Y-80890476D01*
X167963333Y-81080952D01*
X167963333Y-81223809D01*
X167915714Y-81414285D01*
X167868095Y-81509523D01*
X167772857Y-81604761D01*
X167630000Y-81652380D01*
X167391904Y-81652380D01*
X168915714Y-81652380D02*
X168344285Y-81652380D01*
X168630000Y-81652380D02*
X168630000Y-80652380D01*
X168534761Y-80795238D01*
X168439523Y-80890476D01*
X168344285Y-80938095D01*
%TO.C,JP2*%
X177136666Y-93612380D02*
X177136666Y-94326666D01*
X177089047Y-94469523D01*
X176993809Y-94564761D01*
X176850952Y-94612380D01*
X176755714Y-94612380D01*
X177612857Y-94612380D02*
X177612857Y-93612380D01*
X177993809Y-93612380D01*
X178089047Y-93660000D01*
X178136666Y-93707619D01*
X178184285Y-93802857D01*
X178184285Y-93945714D01*
X178136666Y-94040952D01*
X178089047Y-94088571D01*
X177993809Y-94136190D01*
X177612857Y-94136190D01*
X178565238Y-93707619D02*
X178612857Y-93660000D01*
X178708095Y-93612380D01*
X178946190Y-93612380D01*
X179041428Y-93660000D01*
X179089047Y-93707619D01*
X179136666Y-93802857D01*
X179136666Y-93898095D01*
X179089047Y-94040952D01*
X178517619Y-94612380D01*
X179136666Y-94612380D01*
%TO.C,U2*%
X104864380Y-86355333D02*
X105864380Y-86022000D01*
X104864380Y-85688666D01*
X104864380Y-85355333D02*
X105673904Y-85355333D01*
X105769142Y-85307714D01*
X105816761Y-85260095D01*
X105864380Y-85164857D01*
X105864380Y-84974380D01*
X105816761Y-84879142D01*
X105769142Y-84831523D01*
X105673904Y-84783904D01*
X104864380Y-84783904D01*
X105816761Y-84355333D02*
X105864380Y-84212476D01*
X105864380Y-83974380D01*
X105816761Y-83879142D01*
X105769142Y-83831523D01*
X105673904Y-83783904D01*
X105578666Y-83783904D01*
X105483428Y-83831523D01*
X105435809Y-83879142D01*
X105388190Y-83974380D01*
X105340571Y-84164857D01*
X105292952Y-84260095D01*
X105245333Y-84307714D01*
X105150095Y-84355333D01*
X105054857Y-84355333D01*
X104959619Y-84307714D01*
X104912000Y-84260095D01*
X104864380Y-84164857D01*
X104864380Y-83926761D01*
X104912000Y-83783904D01*
X105340571Y-83022000D02*
X105388190Y-82879142D01*
X105435809Y-82831523D01*
X105531047Y-82783904D01*
X105673904Y-82783904D01*
X105769142Y-82831523D01*
X105816761Y-82879142D01*
X105864380Y-82974380D01*
X105864380Y-83355333D01*
X104864380Y-83355333D01*
X104864380Y-83022000D01*
X104912000Y-82926761D01*
X104959619Y-82879142D01*
X105054857Y-82831523D01*
X105150095Y-82831523D01*
X105245333Y-82879142D01*
X105292952Y-82926761D01*
X105340571Y-83022000D01*
X105340571Y-83355333D01*
X97430000Y-94681904D02*
X97382380Y-94777142D01*
X97382380Y-94920000D01*
X97430000Y-95062857D01*
X97525238Y-95158095D01*
X97620476Y-95205714D01*
X97810952Y-95253333D01*
X97953809Y-95253333D01*
X98144285Y-95205714D01*
X98239523Y-95158095D01*
X98334761Y-95062857D01*
X98382380Y-94920000D01*
X98382380Y-94824761D01*
X98334761Y-94681904D01*
X98287142Y-94634285D01*
X97953809Y-94634285D01*
X97953809Y-94824761D01*
X98382380Y-94205714D02*
X97382380Y-94205714D01*
X98382380Y-93634285D01*
X97382380Y-93634285D01*
X98382380Y-93158095D02*
X97382380Y-93158095D01*
X97382380Y-92920000D01*
X97430000Y-92777142D01*
X97525238Y-92681904D01*
X97620476Y-92634285D01*
X97810952Y-92586666D01*
X97953809Y-92586666D01*
X98144285Y-92634285D01*
X98239523Y-92681904D01*
X98334761Y-92777142D01*
X98382380Y-92920000D01*
X98382380Y-93158095D01*
X97739523Y-84482380D02*
X97263333Y-84482380D01*
X97215714Y-84958571D01*
X97263333Y-84910952D01*
X97358571Y-84863333D01*
X97596666Y-84863333D01*
X97691904Y-84910952D01*
X97739523Y-84958571D01*
X97787142Y-85053809D01*
X97787142Y-85291904D01*
X97739523Y-85387142D01*
X97691904Y-85434761D01*
X97596666Y-85482380D01*
X97358571Y-85482380D01*
X97263333Y-85434761D01*
X97215714Y-85387142D01*
X98072857Y-84482380D02*
X98406190Y-85482380D01*
X98739523Y-84482380D01*
X98770666Y-109162666D02*
X98770666Y-108462666D01*
X98937333Y-108462666D01*
X99037333Y-108496000D01*
X99104000Y-108562666D01*
X99137333Y-108629333D01*
X99170666Y-108762666D01*
X99170666Y-108862666D01*
X99137333Y-108996000D01*
X99104000Y-109062666D01*
X99037333Y-109129333D01*
X98937333Y-109162666D01*
X98770666Y-109162666D01*
X99370666Y-108462666D02*
X99604000Y-109162666D01*
X99837333Y-108462666D01*
X100270666Y-108462666D02*
X100270666Y-108962666D01*
X100237333Y-109062666D01*
X100170666Y-109129333D01*
X100070666Y-109162666D01*
X100004000Y-109162666D01*
X100904000Y-108462666D02*
X100770666Y-108462666D01*
X100704000Y-108496000D01*
X100670666Y-108529333D01*
X100604000Y-108629333D01*
X100570666Y-108762666D01*
X100570666Y-109029333D01*
X100604000Y-109096000D01*
X100637333Y-109129333D01*
X100704000Y-109162666D01*
X100837333Y-109162666D01*
X100904000Y-109129333D01*
X100937333Y-109096000D01*
X100970666Y-109029333D01*
X100970666Y-108862666D01*
X100937333Y-108796000D01*
X100904000Y-108762666D01*
X100837333Y-108729333D01*
X100704000Y-108729333D01*
X100637333Y-108762666D01*
X100604000Y-108796000D01*
X100570666Y-108862666D01*
X101237333Y-108962666D02*
X101570666Y-108962666D01*
X101170666Y-109162666D02*
X101404000Y-108462666D01*
X101637333Y-109162666D01*
X97250666Y-107892666D02*
X97250666Y-107192666D01*
X97484000Y-107692666D01*
X97717333Y-107192666D01*
X97717333Y-107892666D01*
X98050666Y-107892666D02*
X98050666Y-107192666D01*
X98384000Y-107892666D02*
X98384000Y-107192666D01*
X98617333Y-107692666D01*
X98850666Y-107192666D01*
X98850666Y-107892666D01*
X99117333Y-107192666D02*
X99584000Y-107892666D01*
X99584000Y-107192666D02*
X99117333Y-107892666D01*
X100250666Y-107892666D02*
X100017333Y-107559333D01*
X99850666Y-107892666D02*
X99850666Y-107192666D01*
X100117333Y-107192666D01*
X100184000Y-107226000D01*
X100217333Y-107259333D01*
X100250666Y-107326000D01*
X100250666Y-107426000D01*
X100217333Y-107492666D01*
X100184000Y-107526000D01*
X100117333Y-107559333D01*
X99850666Y-107559333D01*
X100450666Y-107192666D02*
X100850666Y-107192666D01*
X100650666Y-107892666D02*
X100650666Y-107192666D01*
X101450666Y-107892666D02*
X101050666Y-107892666D01*
X101250666Y-107892666D02*
X101250666Y-107192666D01*
X101184000Y-107292666D01*
X101117333Y-107359333D01*
X101050666Y-107392666D01*
X101884000Y-107192666D02*
X101950666Y-107192666D01*
X102017333Y-107226000D01*
X102050666Y-107259333D01*
X102084000Y-107326000D01*
X102117333Y-107459333D01*
X102117333Y-107626000D01*
X102084000Y-107759333D01*
X102050666Y-107826000D01*
X102017333Y-107859333D01*
X101950666Y-107892666D01*
X101884000Y-107892666D01*
X101817333Y-107859333D01*
X101784000Y-107826000D01*
X101750666Y-107759333D01*
X101717333Y-107626000D01*
X101717333Y-107459333D01*
X101750666Y-107326000D01*
X101784000Y-107259333D01*
X101817333Y-107226000D01*
X101884000Y-107192666D01*
X102717333Y-107192666D02*
X102584000Y-107192666D01*
X102517333Y-107226000D01*
X102484000Y-107259333D01*
X102417333Y-107359333D01*
X102384000Y-107492666D01*
X102384000Y-107759333D01*
X102417333Y-107826000D01*
X102450666Y-107859333D01*
X102517333Y-107892666D01*
X102650666Y-107892666D01*
X102717333Y-107859333D01*
X102750666Y-107826000D01*
X102784000Y-107759333D01*
X102784000Y-107592666D01*
X102750666Y-107526000D01*
X102717333Y-107492666D01*
X102650666Y-107459333D01*
X102517333Y-107459333D01*
X102450666Y-107492666D01*
X102417333Y-107526000D01*
X102384000Y-107592666D01*
X103050666Y-107259333D02*
X103084000Y-107226000D01*
X103150666Y-107192666D01*
X103317333Y-107192666D01*
X103384000Y-107226000D01*
X103417333Y-107259333D01*
X103450666Y-107326000D01*
X103450666Y-107392666D01*
X103417333Y-107492666D01*
X103017333Y-107892666D01*
X103450666Y-107892666D01*
X97210952Y-132532380D02*
X97210952Y-131532380D01*
X97544285Y-132246666D01*
X97877619Y-131532380D01*
X97877619Y-132532380D01*
X98353809Y-132532380D02*
X98353809Y-131865714D01*
X98353809Y-131532380D02*
X98306190Y-131580000D01*
X98353809Y-131627619D01*
X98401428Y-131580000D01*
X98353809Y-131532380D01*
X98353809Y-131627619D01*
X99258571Y-132484761D02*
X99163333Y-132532380D01*
X98972857Y-132532380D01*
X98877619Y-132484761D01*
X98830000Y-132437142D01*
X98782380Y-132341904D01*
X98782380Y-132056190D01*
X98830000Y-131960952D01*
X98877619Y-131913333D01*
X98972857Y-131865714D01*
X99163333Y-131865714D01*
X99258571Y-131913333D01*
X99687142Y-132532380D02*
X99687142Y-131865714D01*
X99687142Y-132056190D02*
X99734761Y-131960952D01*
X99782380Y-131913333D01*
X99877619Y-131865714D01*
X99972857Y-131865714D01*
X100449047Y-132532380D02*
X100353809Y-132484761D01*
X100306190Y-132437142D01*
X100258571Y-132341904D01*
X100258571Y-132056190D01*
X100306190Y-131960952D01*
X100353809Y-131913333D01*
X100449047Y-131865714D01*
X100591904Y-131865714D01*
X100687142Y-131913333D01*
X100734761Y-131960952D01*
X100782380Y-132056190D01*
X100782380Y-132341904D01*
X100734761Y-132437142D01*
X100687142Y-132484761D01*
X100591904Y-132532380D01*
X100449047Y-132532380D01*
X101925238Y-132484761D02*
X102068095Y-132532380D01*
X102306190Y-132532380D01*
X102401428Y-132484761D01*
X102449047Y-132437142D01*
X102496666Y-132341904D01*
X102496666Y-132246666D01*
X102449047Y-132151428D01*
X102401428Y-132103809D01*
X102306190Y-132056190D01*
X102115714Y-132008571D01*
X102020476Y-131960952D01*
X101972857Y-131913333D01*
X101925238Y-131818095D01*
X101925238Y-131722857D01*
X101972857Y-131627619D01*
X102020476Y-131580000D01*
X102115714Y-131532380D01*
X102353809Y-131532380D01*
X102496666Y-131580000D01*
X102925238Y-132532380D02*
X102925238Y-131532380D01*
X103163333Y-131532380D01*
X103306190Y-131580000D01*
X103401428Y-131675238D01*
X103449047Y-131770476D01*
X103496666Y-131960952D01*
X103496666Y-132103809D01*
X103449047Y-132294285D01*
X103401428Y-132389523D01*
X103306190Y-132484761D01*
X103163333Y-132532380D01*
X102925238Y-132532380D01*
X99070095Y-77878380D02*
X99070095Y-78687904D01*
X99117714Y-78783142D01*
X99165333Y-78830761D01*
X99260571Y-78878380D01*
X99451047Y-78878380D01*
X99546285Y-78830761D01*
X99593904Y-78783142D01*
X99641523Y-78687904D01*
X99641523Y-77878380D01*
X100070095Y-78830761D02*
X100212952Y-78878380D01*
X100451047Y-78878380D01*
X100546285Y-78830761D01*
X100593904Y-78783142D01*
X100641523Y-78687904D01*
X100641523Y-78592666D01*
X100593904Y-78497428D01*
X100546285Y-78449809D01*
X100451047Y-78402190D01*
X100260571Y-78354571D01*
X100165333Y-78306952D01*
X100117714Y-78259333D01*
X100070095Y-78164095D01*
X100070095Y-78068857D01*
X100117714Y-77973619D01*
X100165333Y-77926000D01*
X100260571Y-77878380D01*
X100498666Y-77878380D01*
X100641523Y-77926000D01*
X101403428Y-78354571D02*
X101546285Y-78402190D01*
X101593904Y-78449809D01*
X101641523Y-78545047D01*
X101641523Y-78687904D01*
X101593904Y-78783142D01*
X101546285Y-78830761D01*
X101451047Y-78878380D01*
X101070095Y-78878380D01*
X101070095Y-77878380D01*
X101403428Y-77878380D01*
X101498666Y-77926000D01*
X101546285Y-77973619D01*
X101593904Y-78068857D01*
X101593904Y-78164095D01*
X101546285Y-78259333D01*
X101498666Y-78306952D01*
X101403428Y-78354571D01*
X101070095Y-78354571D01*
X97702476Y-88342380D02*
X97702476Y-89151904D01*
X97750095Y-89247142D01*
X97797714Y-89294761D01*
X97892952Y-89342380D01*
X98083428Y-89342380D01*
X98178666Y-89294761D01*
X98226285Y-89247142D01*
X98273904Y-89151904D01*
X98273904Y-88342380D01*
X98702476Y-89294761D02*
X98845333Y-89342380D01*
X99083428Y-89342380D01*
X99178666Y-89294761D01*
X99226285Y-89247142D01*
X99273904Y-89151904D01*
X99273904Y-89056666D01*
X99226285Y-88961428D01*
X99178666Y-88913809D01*
X99083428Y-88866190D01*
X98892952Y-88818571D01*
X98797714Y-88770952D01*
X98750095Y-88723333D01*
X98702476Y-88628095D01*
X98702476Y-88532857D01*
X98750095Y-88437619D01*
X98797714Y-88390000D01*
X98892952Y-88342380D01*
X99131047Y-88342380D01*
X99273904Y-88390000D01*
X100035809Y-88818571D02*
X100178666Y-88866190D01*
X100226285Y-88913809D01*
X100273904Y-89009047D01*
X100273904Y-89151904D01*
X100226285Y-89247142D01*
X100178666Y-89294761D01*
X100083428Y-89342380D01*
X99702476Y-89342380D01*
X99702476Y-88342380D01*
X100035809Y-88342380D01*
X100131047Y-88390000D01*
X100178666Y-88437619D01*
X100226285Y-88532857D01*
X100226285Y-88628095D01*
X100178666Y-88723333D01*
X100131047Y-88770952D01*
X100035809Y-88818571D01*
X99702476Y-88818571D01*
X101464380Y-89342380D02*
X101464380Y-88342380D01*
X101464380Y-88818571D02*
X102035809Y-88818571D01*
X102035809Y-89342380D02*
X102035809Y-88342380D01*
X102654857Y-89342380D02*
X102559619Y-89294761D01*
X102512000Y-89247142D01*
X102464380Y-89151904D01*
X102464380Y-88866190D01*
X102512000Y-88770952D01*
X102559619Y-88723333D01*
X102654857Y-88675714D01*
X102797714Y-88675714D01*
X102892952Y-88723333D01*
X102940571Y-88770952D01*
X102988190Y-88866190D01*
X102988190Y-89151904D01*
X102940571Y-89247142D01*
X102892952Y-89294761D01*
X102797714Y-89342380D01*
X102654857Y-89342380D01*
X103369142Y-89294761D02*
X103464380Y-89342380D01*
X103654857Y-89342380D01*
X103750095Y-89294761D01*
X103797714Y-89199523D01*
X103797714Y-89151904D01*
X103750095Y-89056666D01*
X103654857Y-89009047D01*
X103512000Y-89009047D01*
X103416761Y-88961428D01*
X103369142Y-88866190D01*
X103369142Y-88818571D01*
X103416761Y-88723333D01*
X103512000Y-88675714D01*
X103654857Y-88675714D01*
X103750095Y-88723333D01*
X104083428Y-88675714D02*
X104464380Y-88675714D01*
X104226285Y-88342380D02*
X104226285Y-89199523D01*
X104273904Y-89294761D01*
X104369142Y-89342380D01*
X104464380Y-89342380D01*
%TO.C,U1*%
X165768095Y-93552380D02*
X165768095Y-94361904D01*
X165815714Y-94457142D01*
X165863333Y-94504761D01*
X165958571Y-94552380D01*
X166149047Y-94552380D01*
X166244285Y-94504761D01*
X166291904Y-94457142D01*
X166339523Y-94361904D01*
X166339523Y-93552380D01*
X167339523Y-94552380D02*
X166768095Y-94552380D01*
X167053809Y-94552380D02*
X167053809Y-93552380D01*
X166958571Y-93695238D01*
X166863333Y-93790476D01*
X166768095Y-93838095D01*
%TO.C,R4*%
X146763333Y-90052380D02*
X146430000Y-89576190D01*
X146191904Y-90052380D02*
X146191904Y-89052380D01*
X146572857Y-89052380D01*
X146668095Y-89100000D01*
X146715714Y-89147619D01*
X146763333Y-89242857D01*
X146763333Y-89385714D01*
X146715714Y-89480952D01*
X146668095Y-89528571D01*
X146572857Y-89576190D01*
X146191904Y-89576190D01*
X147620476Y-89385714D02*
X147620476Y-90052380D01*
X147382380Y-89004761D02*
X147144285Y-89719047D01*
X147763333Y-89719047D01*
%TO.C,R5*%
X157577380Y-81471666D02*
X157101190Y-81805000D01*
X157577380Y-82043095D02*
X156577380Y-82043095D01*
X156577380Y-81662142D01*
X156625000Y-81566904D01*
X156672619Y-81519285D01*
X156767857Y-81471666D01*
X156910714Y-81471666D01*
X157005952Y-81519285D01*
X157053571Y-81566904D01*
X157101190Y-81662142D01*
X157101190Y-82043095D01*
X156577380Y-80566904D02*
X156577380Y-81043095D01*
X157053571Y-81090714D01*
X157005952Y-81043095D01*
X156958333Y-80947857D01*
X156958333Y-80709761D01*
X157005952Y-80614523D01*
X157053571Y-80566904D01*
X157148809Y-80519285D01*
X157386904Y-80519285D01*
X157482142Y-80566904D01*
X157529761Y-80614523D01*
X157577380Y-80709761D01*
X157577380Y-80947857D01*
X157529761Y-81043095D01*
X157482142Y-81090714D01*
%TO.C,R6*%
X156002380Y-81446666D02*
X155526190Y-81780000D01*
X156002380Y-82018095D02*
X155002380Y-82018095D01*
X155002380Y-81637142D01*
X155050000Y-81541904D01*
X155097619Y-81494285D01*
X155192857Y-81446666D01*
X155335714Y-81446666D01*
X155430952Y-81494285D01*
X155478571Y-81541904D01*
X155526190Y-81637142D01*
X155526190Y-82018095D01*
X155002380Y-80589523D02*
X155002380Y-80780000D01*
X155050000Y-80875238D01*
X155097619Y-80922857D01*
X155240476Y-81018095D01*
X155430952Y-81065714D01*
X155811904Y-81065714D01*
X155907142Y-81018095D01*
X155954761Y-80970476D01*
X156002380Y-80875238D01*
X156002380Y-80684761D01*
X155954761Y-80589523D01*
X155907142Y-80541904D01*
X155811904Y-80494285D01*
X155573809Y-80494285D01*
X155478571Y-80541904D01*
X155430952Y-80589523D01*
X155383333Y-80684761D01*
X155383333Y-80875238D01*
X155430952Y-80970476D01*
X155478571Y-81018095D01*
X155573809Y-81065714D01*
%TO.C,R7*%
X159202380Y-81471666D02*
X158726190Y-81805000D01*
X159202380Y-82043095D02*
X158202380Y-82043095D01*
X158202380Y-81662142D01*
X158250000Y-81566904D01*
X158297619Y-81519285D01*
X158392857Y-81471666D01*
X158535714Y-81471666D01*
X158630952Y-81519285D01*
X158678571Y-81566904D01*
X158726190Y-81662142D01*
X158726190Y-82043095D01*
X158202380Y-81138333D02*
X158202380Y-80471666D01*
X159202380Y-80900238D01*
%TO.C,U3*%
X149840095Y-88452380D02*
X149840095Y-89261904D01*
X149887714Y-89357142D01*
X149935333Y-89404761D01*
X150030571Y-89452380D01*
X150221047Y-89452380D01*
X150316285Y-89404761D01*
X150363904Y-89357142D01*
X150411523Y-89261904D01*
X150411523Y-88452380D01*
X150792476Y-88452380D02*
X151411523Y-88452380D01*
X151078190Y-88833333D01*
X151221047Y-88833333D01*
X151316285Y-88880952D01*
X151363904Y-88928571D01*
X151411523Y-89023809D01*
X151411523Y-89261904D01*
X151363904Y-89357142D01*
X151316285Y-89404761D01*
X151221047Y-89452380D01*
X150935333Y-89452380D01*
X150840095Y-89404761D01*
X150792476Y-89357142D01*
%TO.C,R3*%
X138535333Y-89569880D02*
X138202000Y-89093690D01*
X137963904Y-89569880D02*
X137963904Y-88569880D01*
X138344857Y-88569880D01*
X138440095Y-88617500D01*
X138487714Y-88665119D01*
X138535333Y-88760357D01*
X138535333Y-88903214D01*
X138487714Y-88998452D01*
X138440095Y-89046071D01*
X138344857Y-89093690D01*
X137963904Y-89093690D01*
X138868666Y-88569880D02*
X139487714Y-88569880D01*
X139154380Y-88950833D01*
X139297238Y-88950833D01*
X139392476Y-88998452D01*
X139440095Y-89046071D01*
X139487714Y-89141309D01*
X139487714Y-89379404D01*
X139440095Y-89474642D01*
X139392476Y-89522261D01*
X139297238Y-89569880D01*
X139011523Y-89569880D01*
X138916285Y-89522261D01*
X138868666Y-89474642D01*
%TO.C,R2*%
X164263333Y-81852380D02*
X163930000Y-81376190D01*
X163691904Y-81852380D02*
X163691904Y-80852380D01*
X164072857Y-80852380D01*
X164168095Y-80900000D01*
X164215714Y-80947619D01*
X164263333Y-81042857D01*
X164263333Y-81185714D01*
X164215714Y-81280952D01*
X164168095Y-81328571D01*
X164072857Y-81376190D01*
X163691904Y-81376190D01*
X164644285Y-80947619D02*
X164691904Y-80900000D01*
X164787142Y-80852380D01*
X165025238Y-80852380D01*
X165120476Y-80900000D01*
X165168095Y-80947619D01*
X165215714Y-81042857D01*
X165215714Y-81138095D01*
X165168095Y-81280952D01*
X164596666Y-81852380D01*
X165215714Y-81852380D01*
%TO.C,R1*%
X163663333Y-92752380D02*
X163330000Y-92276190D01*
X163091904Y-92752380D02*
X163091904Y-91752380D01*
X163472857Y-91752380D01*
X163568095Y-91800000D01*
X163615714Y-91847619D01*
X163663333Y-91942857D01*
X163663333Y-92085714D01*
X163615714Y-92180952D01*
X163568095Y-92228571D01*
X163472857Y-92276190D01*
X163091904Y-92276190D01*
X164615714Y-92752380D02*
X164044285Y-92752380D01*
X164330000Y-92752380D02*
X164330000Y-91752380D01*
X164234761Y-91895238D01*
X164139523Y-91990476D01*
X164044285Y-92038095D01*
%TO.C,R10*%
X136046666Y-77850000D02*
X135713333Y-78083333D01*
X136046666Y-78250000D02*
X135346666Y-78250000D01*
X135346666Y-77983333D01*
X135380000Y-77916666D01*
X135413333Y-77883333D01*
X135480000Y-77850000D01*
X135580000Y-77850000D01*
X135646666Y-77883333D01*
X135680000Y-77916666D01*
X135713333Y-77983333D01*
X135713333Y-78250000D01*
X136046666Y-77183333D02*
X136046666Y-77583333D01*
X136046666Y-77383333D02*
X135346666Y-77383333D01*
X135446666Y-77450000D01*
X135513333Y-77516666D01*
X135546666Y-77583333D01*
X135346666Y-76750000D02*
X135346666Y-76683333D01*
X135380000Y-76616666D01*
X135413333Y-76583333D01*
X135480000Y-76550000D01*
X135613333Y-76516666D01*
X135780000Y-76516666D01*
X135913333Y-76550000D01*
X135980000Y-76583333D01*
X136013333Y-76616666D01*
X136046666Y-76683333D01*
X136046666Y-76750000D01*
X136013333Y-76816666D01*
X135980000Y-76850000D01*
X135913333Y-76883333D01*
X135780000Y-76916666D01*
X135613333Y-76916666D01*
X135480000Y-76883333D01*
X135413333Y-76850000D01*
X135380000Y-76816666D01*
X135346666Y-76750000D01*
%TO.C,R9*%
X137891904Y-77833333D02*
X137510952Y-78100000D01*
X137891904Y-78290476D02*
X137091904Y-78290476D01*
X137091904Y-77985714D01*
X137130000Y-77909523D01*
X137168095Y-77871428D01*
X137244285Y-77833333D01*
X137358571Y-77833333D01*
X137434761Y-77871428D01*
X137472857Y-77909523D01*
X137510952Y-77985714D01*
X137510952Y-78290476D01*
X137891904Y-77452380D02*
X137891904Y-77300000D01*
X137853809Y-77223809D01*
X137815714Y-77185714D01*
X137701428Y-77109523D01*
X137549047Y-77071428D01*
X137244285Y-77071428D01*
X137168095Y-77109523D01*
X137130000Y-77147619D01*
X137091904Y-77223809D01*
X137091904Y-77376190D01*
X137130000Y-77452380D01*
X137168095Y-77490476D01*
X137244285Y-77528571D01*
X137434761Y-77528571D01*
X137510952Y-77490476D01*
X137549047Y-77452380D01*
X137587142Y-77376190D01*
X137587142Y-77223809D01*
X137549047Y-77147619D01*
X137510952Y-77109523D01*
X137434761Y-77071428D01*
%TO.C,Q1*%
X140054761Y-80565119D02*
X139959523Y-80517500D01*
X139864285Y-80422261D01*
X139721428Y-80279404D01*
X139626190Y-80231785D01*
X139530952Y-80231785D01*
X139578571Y-80469880D02*
X139483333Y-80422261D01*
X139388095Y-80327023D01*
X139340476Y-80136547D01*
X139340476Y-79803214D01*
X139388095Y-79612738D01*
X139483333Y-79517500D01*
X139578571Y-79469880D01*
X139769047Y-79469880D01*
X139864285Y-79517500D01*
X139959523Y-79612738D01*
X140007142Y-79803214D01*
X140007142Y-80136547D01*
X139959523Y-80327023D01*
X139864285Y-80422261D01*
X139769047Y-80469880D01*
X139578571Y-80469880D01*
X140959523Y-80469880D02*
X140388095Y-80469880D01*
X140673809Y-80469880D02*
X140673809Y-79469880D01*
X140578571Y-79612738D01*
X140483333Y-79707976D01*
X140388095Y-79755595D01*
%TO.C,D3*%
X154201904Y-89832380D02*
X154201904Y-88832380D01*
X154440000Y-88832380D01*
X154582857Y-88880000D01*
X154678095Y-88975238D01*
X154725714Y-89070476D01*
X154773333Y-89260952D01*
X154773333Y-89403809D01*
X154725714Y-89594285D01*
X154678095Y-89689523D01*
X154582857Y-89784761D01*
X154440000Y-89832380D01*
X154201904Y-89832380D01*
X155106666Y-88832380D02*
X155725714Y-88832380D01*
X155392380Y-89213333D01*
X155535238Y-89213333D01*
X155630476Y-89260952D01*
X155678095Y-89308571D01*
X155725714Y-89403809D01*
X155725714Y-89641904D01*
X155678095Y-89737142D01*
X155630476Y-89784761D01*
X155535238Y-89832380D01*
X155249523Y-89832380D01*
X155154285Y-89784761D01*
X155106666Y-89737142D01*
%TO.C,L1*%
X151233333Y-78532380D02*
X150757142Y-78532380D01*
X150757142Y-77532380D01*
X152090476Y-78532380D02*
X151519047Y-78532380D01*
X151804761Y-78532380D02*
X151804761Y-77532380D01*
X151709523Y-77675238D01*
X151614285Y-77770476D01*
X151519047Y-77818095D01*
%TO.C,C4*%
X143863333Y-80557142D02*
X143815714Y-80604761D01*
X143672857Y-80652380D01*
X143577619Y-80652380D01*
X143434761Y-80604761D01*
X143339523Y-80509523D01*
X143291904Y-80414285D01*
X143244285Y-80223809D01*
X143244285Y-80080952D01*
X143291904Y-79890476D01*
X143339523Y-79795238D01*
X143434761Y-79700000D01*
X143577619Y-79652380D01*
X143672857Y-79652380D01*
X143815714Y-79700000D01*
X143863333Y-79747619D01*
X144720476Y-79985714D02*
X144720476Y-80652380D01*
X144482380Y-79604761D02*
X144244285Y-80319047D01*
X144863333Y-80319047D01*
%TO.C,C5*%
X146463333Y-80557142D02*
X146415714Y-80604761D01*
X146272857Y-80652380D01*
X146177619Y-80652380D01*
X146034761Y-80604761D01*
X145939523Y-80509523D01*
X145891904Y-80414285D01*
X145844285Y-80223809D01*
X145844285Y-80080952D01*
X145891904Y-79890476D01*
X145939523Y-79795238D01*
X146034761Y-79700000D01*
X146177619Y-79652380D01*
X146272857Y-79652380D01*
X146415714Y-79700000D01*
X146463333Y-79747619D01*
X147368095Y-79652380D02*
X146891904Y-79652380D01*
X146844285Y-80128571D01*
X146891904Y-80080952D01*
X146987142Y-80033333D01*
X147225238Y-80033333D01*
X147320476Y-80080952D01*
X147368095Y-80128571D01*
X147415714Y-80223809D01*
X147415714Y-80461904D01*
X147368095Y-80557142D01*
X147320476Y-80604761D01*
X147225238Y-80652380D01*
X146987142Y-80652380D01*
X146891904Y-80604761D01*
X146844285Y-80557142D01*
%TO.C,C6*%
X158335333Y-93457142D02*
X158287714Y-93504761D01*
X158144857Y-93552380D01*
X158049619Y-93552380D01*
X157906761Y-93504761D01*
X157811523Y-93409523D01*
X157763904Y-93314285D01*
X157716285Y-93123809D01*
X157716285Y-92980952D01*
X157763904Y-92790476D01*
X157811523Y-92695238D01*
X157906761Y-92600000D01*
X158049619Y-92552380D01*
X158144857Y-92552380D01*
X158287714Y-92600000D01*
X158335333Y-92647619D01*
X159192476Y-92552380D02*
X159002000Y-92552380D01*
X158906761Y-92600000D01*
X158859142Y-92647619D01*
X158763904Y-92790476D01*
X158716285Y-92980952D01*
X158716285Y-93361904D01*
X158763904Y-93457142D01*
X158811523Y-93504761D01*
X158906761Y-93552380D01*
X159097238Y-93552380D01*
X159192476Y-93504761D01*
X159240095Y-93457142D01*
X159287714Y-93361904D01*
X159287714Y-93123809D01*
X159240095Y-93028571D01*
X159192476Y-92980952D01*
X159097238Y-92933333D01*
X158906761Y-92933333D01*
X158811523Y-92980952D01*
X158763904Y-93028571D01*
X158716285Y-93123809D01*
%TO.C,C7*%
X160835333Y-93457142D02*
X160787714Y-93504761D01*
X160644857Y-93552380D01*
X160549619Y-93552380D01*
X160406761Y-93504761D01*
X160311523Y-93409523D01*
X160263904Y-93314285D01*
X160216285Y-93123809D01*
X160216285Y-92980952D01*
X160263904Y-92790476D01*
X160311523Y-92695238D01*
X160406761Y-92600000D01*
X160549619Y-92552380D01*
X160644857Y-92552380D01*
X160787714Y-92600000D01*
X160835333Y-92647619D01*
X161168666Y-92552380D02*
X161835333Y-92552380D01*
X161406761Y-93552380D01*
%TO.C,C1*%
X170563333Y-84657142D02*
X170515714Y-84704761D01*
X170372857Y-84752380D01*
X170277619Y-84752380D01*
X170134761Y-84704761D01*
X170039523Y-84609523D01*
X169991904Y-84514285D01*
X169944285Y-84323809D01*
X169944285Y-84180952D01*
X169991904Y-83990476D01*
X170039523Y-83895238D01*
X170134761Y-83800000D01*
X170277619Y-83752380D01*
X170372857Y-83752380D01*
X170515714Y-83800000D01*
X170563333Y-83847619D01*
X171515714Y-84752380D02*
X170944285Y-84752380D01*
X171230000Y-84752380D02*
X171230000Y-83752380D01*
X171134761Y-83895238D01*
X171039523Y-83990476D01*
X170944285Y-84038095D01*
%TO.C,C2*%
X167835333Y-92957142D02*
X167787714Y-93004761D01*
X167644857Y-93052380D01*
X167549619Y-93052380D01*
X167406761Y-93004761D01*
X167311523Y-92909523D01*
X167263904Y-92814285D01*
X167216285Y-92623809D01*
X167216285Y-92480952D01*
X167263904Y-92290476D01*
X167311523Y-92195238D01*
X167406761Y-92100000D01*
X167549619Y-92052380D01*
X167644857Y-92052380D01*
X167787714Y-92100000D01*
X167835333Y-92147619D01*
X168216285Y-92147619D02*
X168263904Y-92100000D01*
X168359142Y-92052380D01*
X168597238Y-92052380D01*
X168692476Y-92100000D01*
X168740095Y-92147619D01*
X168787714Y-92242857D01*
X168787714Y-92338095D01*
X168740095Y-92480952D01*
X168168666Y-93052380D01*
X168787714Y-93052380D01*
%TO.C,Q2*%
X174736761Y-88357619D02*
X174641523Y-88310000D01*
X174546285Y-88214761D01*
X174403428Y-88071904D01*
X174308190Y-88024285D01*
X174212952Y-88024285D01*
X174260571Y-88262380D02*
X174165333Y-88214761D01*
X174070095Y-88119523D01*
X174022476Y-87929047D01*
X174022476Y-87595714D01*
X174070095Y-87405238D01*
X174165333Y-87310000D01*
X174260571Y-87262380D01*
X174451047Y-87262380D01*
X174546285Y-87310000D01*
X174641523Y-87405238D01*
X174689142Y-87595714D01*
X174689142Y-87929047D01*
X174641523Y-88119523D01*
X174546285Y-88214761D01*
X174451047Y-88262380D01*
X174260571Y-88262380D01*
X175070095Y-87357619D02*
X175117714Y-87310000D01*
X175212952Y-87262380D01*
X175451047Y-87262380D01*
X175546285Y-87310000D01*
X175593904Y-87357619D01*
X175641523Y-87452857D01*
X175641523Y-87548095D01*
X175593904Y-87690952D01*
X175022476Y-88262380D01*
X175641523Y-88262380D01*
%TO.C,R8*%
X172065333Y-88392380D02*
X171732000Y-87916190D01*
X171493904Y-88392380D02*
X171493904Y-87392380D01*
X171874857Y-87392380D01*
X171970095Y-87440000D01*
X172017714Y-87487619D01*
X172065333Y-87582857D01*
X172065333Y-87725714D01*
X172017714Y-87820952D01*
X171970095Y-87868571D01*
X171874857Y-87916190D01*
X171493904Y-87916190D01*
X172636761Y-87820952D02*
X172541523Y-87773333D01*
X172493904Y-87725714D01*
X172446285Y-87630476D01*
X172446285Y-87582857D01*
X172493904Y-87487619D01*
X172541523Y-87440000D01*
X172636761Y-87392380D01*
X172827238Y-87392380D01*
X172922476Y-87440000D01*
X172970095Y-87487619D01*
X173017714Y-87582857D01*
X173017714Y-87630476D01*
X172970095Y-87725714D01*
X172922476Y-87773333D01*
X172827238Y-87820952D01*
X172636761Y-87820952D01*
X172541523Y-87868571D01*
X172493904Y-87916190D01*
X172446285Y-88011428D01*
X172446285Y-88201904D01*
X172493904Y-88297142D01*
X172541523Y-88344761D01*
X172636761Y-88392380D01*
X172827238Y-88392380D01*
X172922476Y-88344761D01*
X172970095Y-88297142D01*
X173017714Y-88201904D01*
X173017714Y-88011428D01*
X172970095Y-87916190D01*
X172922476Y-87868571D01*
X172827238Y-87820952D01*
%TO.C,C3*%
X143663333Y-92857142D02*
X143615714Y-92904761D01*
X143472857Y-92952380D01*
X143377619Y-92952380D01*
X143234761Y-92904761D01*
X143139523Y-92809523D01*
X143091904Y-92714285D01*
X143044285Y-92523809D01*
X143044285Y-92380952D01*
X143091904Y-92190476D01*
X143139523Y-92095238D01*
X143234761Y-92000000D01*
X143377619Y-91952380D01*
X143472857Y-91952380D01*
X143615714Y-92000000D01*
X143663333Y-92047619D01*
X143996666Y-91952380D02*
X144615714Y-91952380D01*
X144282380Y-92333333D01*
X144425238Y-92333333D01*
X144520476Y-92380952D01*
X144568095Y-92428571D01*
X144615714Y-92523809D01*
X144615714Y-92761904D01*
X144568095Y-92857142D01*
X144520476Y-92904761D01*
X144425238Y-92952380D01*
X144139523Y-92952380D01*
X144044285Y-92904761D01*
X143996666Y-92857142D01*
%TO.C,C8*%
X160763333Y-80757142D02*
X160715714Y-80804761D01*
X160572857Y-80852380D01*
X160477619Y-80852380D01*
X160334761Y-80804761D01*
X160239523Y-80709523D01*
X160191904Y-80614285D01*
X160144285Y-80423809D01*
X160144285Y-80280952D01*
X160191904Y-80090476D01*
X160239523Y-79995238D01*
X160334761Y-79900000D01*
X160477619Y-79852380D01*
X160572857Y-79852380D01*
X160715714Y-79900000D01*
X160763333Y-79947619D01*
X161334761Y-80280952D02*
X161239523Y-80233333D01*
X161191904Y-80185714D01*
X161144285Y-80090476D01*
X161144285Y-80042857D01*
X161191904Y-79947619D01*
X161239523Y-79900000D01*
X161334761Y-79852380D01*
X161525238Y-79852380D01*
X161620476Y-79900000D01*
X161668095Y-79947619D01*
X161715714Y-80042857D01*
X161715714Y-80090476D01*
X161668095Y-80185714D01*
X161620476Y-80233333D01*
X161525238Y-80280952D01*
X161334761Y-80280952D01*
X161239523Y-80328571D01*
X161191904Y-80376190D01*
X161144285Y-80471428D01*
X161144285Y-80661904D01*
X161191904Y-80757142D01*
X161239523Y-80804761D01*
X161334761Y-80852380D01*
X161525238Y-80852380D01*
X161620476Y-80804761D01*
X161668095Y-80757142D01*
X161715714Y-80661904D01*
X161715714Y-80471428D01*
X161668095Y-80376190D01*
X161620476Y-80328571D01*
X161525238Y-80280952D01*
%TO.C,C9*%
X131433333Y-78157142D02*
X131385714Y-78204761D01*
X131242857Y-78252380D01*
X131147619Y-78252380D01*
X131004761Y-78204761D01*
X130909523Y-78109523D01*
X130861904Y-78014285D01*
X130814285Y-77823809D01*
X130814285Y-77680952D01*
X130861904Y-77490476D01*
X130909523Y-77395238D01*
X131004761Y-77300000D01*
X131147619Y-77252380D01*
X131242857Y-77252380D01*
X131385714Y-77300000D01*
X131433333Y-77347619D01*
X131909523Y-78252380D02*
X132100000Y-78252380D01*
X132195238Y-78204761D01*
X132242857Y-78157142D01*
X132338095Y-78014285D01*
X132385714Y-77823809D01*
X132385714Y-77442857D01*
X132338095Y-77347619D01*
X132290476Y-77300000D01*
X132195238Y-77252380D01*
X132004761Y-77252380D01*
X131909523Y-77300000D01*
X131861904Y-77347619D01*
X131814285Y-77442857D01*
X131814285Y-77680952D01*
X131861904Y-77776190D01*
X131909523Y-77823809D01*
X132004761Y-77871428D01*
X132195238Y-77871428D01*
X132290476Y-77823809D01*
X132338095Y-77776190D01*
X132385714Y-77680952D01*
%TD*%
M02*
