M48
; DRILL file {KiCad 5.1.9} date Sun Jan 24 16:08:08 2021
; FORMAT={3:3/ absolute / metric / suppress leading zeros}
; #@! TF.CreationDate,2021-01-24T16:08:08-08:00
; #@! TF.GenerationSoftware,Kicad,Pcbnew,5.1.9
FMAT,2
METRIC,TZ
T1C0.400
T2C0.660
T3C0.750
T4C0.950
T5C1.000
T6C1.100
T7C2.300
T8C3.200
T9C1.152
%
G90
G05
T1
X62302Y-117500
X62302Y-121300
X71760Y-109290
X71860Y-98990
X72860Y-88290
X72860Y-101390
X72860Y-132090
X72860Y-134390
X73960Y-93290
X80836Y-131614
X81530Y-105420
X82610Y-110190
X87062Y-102640
X88062Y-104240
X89060Y-96290
X90112Y-114190
X90562Y-125640
X94762Y-114090
X95682Y-110560
X96182Y-115560
X98382Y-105160
X98482Y-102860
X98582Y-98460
X98612Y-93290
X98812Y-96340
X99282Y-126260
X99862Y-132400
X100300Y-86880
X100862Y-93190
X100862Y-137300
X101382Y-100760
X102182Y-86060
X102312Y-113090
X102616Y-135890
X103006Y-122386
X103082Y-98470
X103662Y-115840
X104140Y-133096
X104902Y-107950
X105182Y-92560
X105662Y-114340
X105918Y-106172
X110162Y-132040
X110262Y-128340
X110462Y-130240
X110630Y-117400
X111030Y-110400
X111582Y-97760
X111612Y-96190
X111630Y-118200
X112762Y-95140
X116682Y-123060
X117130Y-118900
X118030Y-114000
X118872Y-134060
X118982Y-104760
X120362Y-119390
X121712Y-116390
X122912Y-130340
X124312Y-129290
X125282Y-122160
X126282Y-96560
X126482Y-107260
X126502Y-135700
X127582Y-93160
X127882Y-101460
X128402Y-92100
X129802Y-79200
X132300Y-80900
X133700Y-79800
X134662Y-131690
X135312Y-130040
X135702Y-82200
X136602Y-82200
X137082Y-123860
X137232Y-130010
X138182Y-110860
X138682Y-126480
X139232Y-130010
X139382Y-94760
X139882Y-124760
X140402Y-88700
X140482Y-106560
X141502Y-87600
X142432Y-90860
X143202Y-81100
X143400Y-127480
X143682Y-125660
X144400Y-128480
X144602Y-81100
X145232Y-90860
X145802Y-81100
X145802Y-88600
X146632Y-88560
X146682Y-128360
X147502Y-81100
X148962Y-120340
X149812Y-132190
X150450Y-86530
X151312Y-131490
X152532Y-84560
X152701Y-86304
X153210Y-130640
X154210Y-129840
X154532Y-84360
X155082Y-123960
X155502Y-82400
X155582Y-129160
X157102Y-90700
X157702Y-88800
X157902Y-92000
X158582Y-107060
X158902Y-88800
X159202Y-92000
X159382Y-119960
X159532Y-81960
X160202Y-86200
X160202Y-88800
X160402Y-92000
X161602Y-92000
X162002Y-86200
X162002Y-88800
X162502Y-90700
X162532Y-81960
X164772Y-88400
X165502Y-91900
X165602Y-85000
X167102Y-88600
X167202Y-91600
X168202Y-85000
X168702Y-91600
X169500Y-85100
X171440Y-91200
X174780Y-90000
X179060Y-111990
X179220Y-120650
X179936Y-129914
X190382Y-118110
X198492Y-120650
T2
X101100Y-84980
X105162Y-83640
X110902Y-89700
X115344Y-84180
X125430Y-81610
X138202Y-82600
X141002Y-90300
X142002Y-80500
X142702Y-107200
X170500Y-87800
X178320Y-87810
T3
X181550Y-78950
X183550Y-78950
T4
X116190Y-88900
X118690Y-88900
X120690Y-88900
X123190Y-88900
T5
X76560Y-96520
X76560Y-99060
X76560Y-101600
X76560Y-104140
X76560Y-106680
X79100Y-96520
X79100Y-99060
X79100Y-101600
X79100Y-104140
X79100Y-106680
X81542Y-140440
X84082Y-140440
X86622Y-140440
X89162Y-140440
X92710Y-78740
X92710Y-81280
X92710Y-83820
X92710Y-86360
X92710Y-88900
X92710Y-91440
X92710Y-93980
X92710Y-96520
X92710Y-99060
X92710Y-101600
X92710Y-104140
X92710Y-106680
X92710Y-109220
X92710Y-111760
X92710Y-114300
X92710Y-116840
X92710Y-119380
X92710Y-121920
X92710Y-124460
X92710Y-127000
X92710Y-129540
X92710Y-132080
X92710Y-134620
X92710Y-137160
X95250Y-124460
X95761Y-85039
X95761Y-87579
X95761Y-90119
X95761Y-92659
X95761Y-95199
X97790Y-124460
X100330Y-124460
X102870Y-124460
X105410Y-81280
X105410Y-124460
X107950Y-78740
X107950Y-81280
X107950Y-83820
X107950Y-86360
X107950Y-88900
X107950Y-91440
X107950Y-93980
X107950Y-96520
X107950Y-99060
X107950Y-101600
X107950Y-104140
X107950Y-106680
X107950Y-109220
X107950Y-111760
X107950Y-114300
X107950Y-116840
X107950Y-119380
X107950Y-121920
X107950Y-124460
X107950Y-127000
X107950Y-129540
X107950Y-132080
X107950Y-134620
X107950Y-137160
X114300Y-97540
X114300Y-100080
X114300Y-102620
X114300Y-105160
X114300Y-107700
X114300Y-110240
X114300Y-112780
X114300Y-115320
X114300Y-119380
X114300Y-121920
X114300Y-124460
X114300Y-127000
X114300Y-129540
X114300Y-132080
X114300Y-134620
X114300Y-137160
X117602Y-140440
X120142Y-140440
X122682Y-140440
X125222Y-140440
X127762Y-140440
X130302Y-140440
X132080Y-83820
X132080Y-86360
X132080Y-88900
X132080Y-91440
X132080Y-93980
X132080Y-96520
X132080Y-99060
X132080Y-101600
X132080Y-104140
X132080Y-106680
X132080Y-109220
X132080Y-111760
X132080Y-114300
X132080Y-116840
X132080Y-119380
X132080Y-121920
X132842Y-140440
X135382Y-140440
X137922Y-140440
X140462Y-140440
X143002Y-140440
X145542Y-140440
X148082Y-140440
X150622Y-140440
X152400Y-93980
X152400Y-96520
X152400Y-99060
X152400Y-101600
X152400Y-104140
X152400Y-106680
X152400Y-109220
X152400Y-111760
X152400Y-114300
X152400Y-116840
X152400Y-119380
X152400Y-121920
X153162Y-140440
X155702Y-140440
X162560Y-101600
X162560Y-104140
X162560Y-106680
X162560Y-109220
X162560Y-111760
X162560Y-114300
X162560Y-116840
X162560Y-119380
X162560Y-124460
X162560Y-127000
X162560Y-129540
X162560Y-132080
X162560Y-134620
X162560Y-137160
X164630Y-78000
X167170Y-78000
X172720Y-106680
X172720Y-109220
X172720Y-111760
X172720Y-114300
X172720Y-116840
X175260Y-106680
X175260Y-109220
X175260Y-111760
X175260Y-114300
X175260Y-116840
X187450Y-139700
X188080Y-78000
X189990Y-139700
X190620Y-78000
X192530Y-139700
X193160Y-78000
X195700Y-78000
T6
X40382Y-97640
X40382Y-104140
X44882Y-97640
X44882Y-104140
X52358Y-87140
X52358Y-93640
X52358Y-108140
X52358Y-114640
X56858Y-87140
X56858Y-93640
X56858Y-108140
X56858Y-114640
X57508Y-130206
X57508Y-134706
X64008Y-130206
X64008Y-134706
X64334Y-97640
X64334Y-104140
X68834Y-97640
X68834Y-104140
X185350Y-97640
X185350Y-104140
X186436Y-130206
X186436Y-134706
X189850Y-97640
X189850Y-104140
X192936Y-130206
X192936Y-134706
X193350Y-89640
X193350Y-96140
X193350Y-105640
X193350Y-112140
X197850Y-89640
X197850Y-96140
X197850Y-105640
X197850Y-112140
X201350Y-97640
X201350Y-104140
X205850Y-97640
X205850Y-104140
T7
X113120Y-86190
X126260Y-86190
T8
X40560Y-81200
X40560Y-137240
X76560Y-81200
X76560Y-137240
X173884Y-81200
X173884Y-137240
X209884Y-81200
X209884Y-137240
T9
X45280Y-137260
X45282Y-81220
X100332Y-120020
X195600Y-100900
X204880Y-137210
X204882Y-81180
T0
M30
